<?xml version="1.0" encoding="utf-8"?>
<!-- Generator: Adobe Illustrator 16.0.3, SVG Export Plug-In . SVG Version: 6.00 Build 0)  -->
<!DOCTYPE svg PUBLIC "-//W3C//DTD SVG 1.1//EN" "http://www.w3.org/Graphics/SVG/1.1/DTD/svg11.dtd">
<svg version="1.1" id="Capa_1" xmlns="http://www.w3.org/2000/svg" xmlns:xlink="http://www.w3.org/1999/xlink" x="0px" y="0px"
	 width="100px" height="100px" viewBox="0 0 100 100" enable-background="new 0 0 100 100" xml:space="preserve">
<circle fill="#891182" cx="50" cy="50" r="49"/>
<g>
	<path fill="#FFFFFF" d="M51.554,86.246h-3.555v-8.164c-5.183,0-9.558-1.08-13.125-3.242v-5.391c0.859,0.65,1.81,1.236,2.852,1.758
		c1.041,0.521,2.142,0.971,3.301,1.348c1.158,0.377,2.33,0.664,3.516,0.859c1.185,0.195,2.337,0.293,3.457,0.293v-21.68
		c-1.589-0.885-3.171-1.778-4.746-2.676c-1.576-0.898-2.988-1.934-4.238-3.105s-2.266-2.539-3.047-4.102s-1.172-3.45-1.172-5.664
		c0-1.927,0.325-3.711,0.977-5.352c0.65-1.641,1.563-3.086,2.734-4.336s2.564-2.278,4.18-3.086c1.614-0.807,3.385-1.354,5.313-1.641
		v-7.07h3.555v6.953c2.291,0.053,4.297,0.273,6.016,0.664s3.177,0.886,4.375,1.484v5.117c-2.734-1.822-6.198-2.773-10.391-2.852
		V48.55c2.552,1.276,4.688,2.514,6.406,3.711s3.099,2.402,4.141,3.613c1.041,1.211,1.783,2.467,2.227,3.77
		c0.442,1.303,0.664,2.721,0.664,4.258c0,1.822-0.307,3.516-0.918,5.078c-0.612,1.563-1.491,2.949-2.637,4.16
		c-1.146,1.211-2.553,2.221-4.219,3.027c-1.667,0.807-3.555,1.367-5.664,1.68V86.246z M47.999,26.519
		c-2.475,0.469-4.434,1.523-5.879,3.164s-2.168,3.698-2.168,6.172c0,1.146,0.123,2.182,0.371,3.105
		c0.247,0.925,0.677,1.804,1.289,2.637c0.611,0.834,1.432,1.647,2.461,2.441c1.028,0.795,2.337,1.635,3.926,2.52V26.519z
		 M51.554,73.512c2.76-0.521,4.83-1.557,6.211-3.105c1.38-1.549,2.07-3.51,2.07-5.879c0-1.041-0.15-2.018-0.449-2.93
		c-0.3-0.912-0.775-1.791-1.426-2.637c-0.651-0.846-1.504-1.674-2.559-2.48s-2.338-1.641-3.848-2.5V73.512z"/>
</g>
</svg>
