<?xml version="1.0" encoding="utf-8"?>
<!-- Generator: Adobe Illustrator 16.0.3, SVG Export Plug-In . SVG Version: 6.00 Build 0)  -->
<!DOCTYPE svg PUBLIC "-//W3C//DTD SVG 1.1//EN" "http://www.w3.org/Graphics/SVG/1.1/DTD/svg11.dtd">
<svg version="1.1" id="Capa_1" xmlns="http://www.w3.org/2000/svg" xmlns:xlink="http://www.w3.org/1999/xlink" x="0px" y="0px"
	 width="200px" height="200px" viewBox="0 0 200 200" enable-background="new 0 0 200 200" xml:space="preserve">
<g>
	<path fill-rule="evenodd" clip-rule="evenodd" fill="#FFFFFF" d="M83.124,89.455c-9.364-7.752-13.6-17.481-12.177-29.563
		c1.438-12.214,12.591-23.901,24.631-25.589c13.516-1.895,25.717,3.654,32.091,14.593c6.665,11.44,5.623,24.259-3.155,35.313
		c-1.673,2.106-1.733,3.102,0.599,4.457c15.513,9.011,21.122,23.054,20.647,40.343c-0.288,10.486-0.125,20.984-0.152,31.478
		c-0.006,2.415-0.042,5.249-3.125,5.282c-3.294,0.034-3.516-2.766-3.506-5.463c0.045-12.658,0.125-25.319-0.046-37.976
		c-0.122-9.083-3.783-16.729-10.299-23.049c-1.826-1.771-2.728-1.772-3.689,0.893c-3.865,10.711-9.458,20.503-16.517,29.433
		c-1.22,1.543-1.467,3.229-1.838,5.021c-1.106,5.347-4.669,8.312-10.178,8.433c-5.327,0.116-10.664,0.16-15.987-0.014
		c-2.622-0.085-3.499,0.747-3.402,3.386c0.182,4.99,0.004,9.993,0.071,14.989c0.03,2.278-0.681,4.216-3.062,4.355
		c-2.842,0.167-3.434-2.039-3.429-4.432c0.009-3.997,0.015-7.995-0.012-11.992c-0.049-7.313,0.543-6.188-6.51-6.283
		c-0.333-0.005-0.667,0.002-1-0.002c-10.883-0.106-16.474-9.224-11.363-18.916c6.137-11.638,14.649-21.371,24.858-29.633
		C78.64,92.848,80.779,91.265,83.124,89.455z M125.25,63.165c-0.208-1.164-0.578-3.448-1.032-5.716
		c-0.669-3.34-1.673-4.716-5.535-2.561c-11.573,6.456-23.339,12.591-35.23,18.443c-3.885,1.913-3.254,3.48-1.166,6.114
		c6.146,7.755,17.02,11.06,26.412,7.895C118.772,83.944,125.277,74.895,125.25,63.165z M86.939,96.722
		c1.334,5.196,2.858,10.277,3.911,15.453c1.256,6.169,2.075,12.221,10.664,12.173c1.614-0.009,2.569,0.238,3.568-1.101
		c6.289-8.427,11.067-17.646,14.614-27.524c0.498-1.388,0.469-2.551-0.927-3.451c-1.121-0.723-1.981-1.384-3.55-0.586
		c-7.742,3.939-15.76,4.466-24.071,1.767C88.604,92.625,87.171,94.128,86.939,96.722z M71.458,108.093
		c-6.086,6.559-10.703,12.614-14.129,19.448c-2.524,5.036,0.056,8.973,5.617,9.189c2.158,0.085,4.37,0.293,6.468-0.069
		c1.803-0.312,5.197,1.974,5.051-2.308c-0.103-3.021-0.512-6.084-5.018-5.175c-1.239,0.25-2.682,0.023-3.915-0.36
		c-1.468-0.457-1.86-1.807-1.583-3.25c0.215-1.118,0.484-1.832,2.112-1.978c7.241-0.647,7.209-0.764,6.175-7.941
		C71.936,113.57,71.799,111.468,71.458,108.093z M80.902,99.522c-1.743,1.522-3.819,2.002-3.551,4.312
		c1.201,10.359,2.213,20.752,3.88,31.038c0.612,3.775,4.444,1.354,6.767,1.796c1.92,0.364,2.055-1.035,1.667-2.56
		C86.78,122.765,83.913,111.416,80.902,99.522z M77.753,69.06c12.572-6.565,24.773-12.9,36.919-19.342
		c1.12-0.594,3.563-0.782,2.834-2.604c-0.863-2.162-2.787-0.809-4.279-0.182c-10.395,4.374-20.686,9.021-31.233,12.988
		C77.383,61.655,76.098,64.064,77.753,69.06z M107.678,41.71c-8.278-2.103-12.421-1.53-17.288,1.911
		C96.905,49.79,102.052,43.657,107.678,41.71z M95.651,131.488c0.983,1.249-0.313,4.23,2.308,4.523
		c1.581,0.178,2.265-1.644,2.121-3.318c-0.168-1.949-1.442-2.937-3.181-3.276C95.479,129.139,95.21,130.019,95.651,131.488z
		 M79.679,53.824c3.368-1.373,5.579-2.274,8.075-3.291C83.659,46.438,82.046,49.546,79.679,53.824z"/>
	<path fill-rule="evenodd" clip-rule="evenodd" fill="#FFFFFF" d="M125.328,141.257c-0.002-6.318,0.005-12.638-0.005-18.957
		c-0.004-2.506,0.394-5.034,3.511-4.903c2.673,0.112,3.193,2.376,3.187,4.77c-0.037,12.971-0.039,25.942,0.002,38.913
		c0.007,2.443-0.683,4.6-3.305,4.686c-2.741,0.09-3.392-2.168-3.391-4.552C125.332,154.561,125.329,147.909,125.328,141.257z"/>
	<path fill-rule="evenodd" clip-rule="evenodd" fill="#FFFFFF" d="M102.241,74.985c1.832-0.004,3.663,0,5.494-0.005
		c1.607-0.004,3.167,0.234,3.154,2.266c-0.011,1.732-1.455,2.087-2.838,2.106c-3.828,0.052-7.658,0.054-11.486-0.012
		c-1.37-0.023-2.754-0.302-2.604-2.208c0.136-1.718,1.313-2.138,2.785-2.141C98.579,74.987,100.41,74.99,102.241,74.985z"/>
</g>
</svg>
