<?xml version="1.0" encoding="utf-8"?>
<!-- Generator: Adobe Illustrator 16.0.3, SVG Export Plug-In . SVG Version: 6.00 Build 0)  -->
<!DOCTYPE svg PUBLIC "-//W3C//DTD SVG 1.1//EN" "http://www.w3.org/Graphics/SVG/1.1/DTD/svg11.dtd">
<svg version="1.1" id="Capa_1" xmlns="http://www.w3.org/2000/svg" xmlns:xlink="http://www.w3.org/1999/xlink" x="0px" y="0px"
	 width="200px" height="200px" viewBox="0 0 200 200" enable-background="new 0 0 200 200" xml:space="preserve">
<g>
	<path fill-rule="evenodd" clip-rule="evenodd" fill="#FFFFFF" d="M175.191,143.343c-8.69,3.745-17.851,5.898-27.033,7.916
		c-19.022,4.179-38.268,5.64-57.701,4.573c-19.652-1.07-38.83-4.724-57.473-11.083c-1.095-0.369-2.312-0.504-3.183-1.406
		c-0.212-0.244-0.425-0.504-0.642-0.75c0-4.731,0-9.48,0-14.212c0.089-0.064,0.259-0.129,0.25-0.176
		c-0.035-0.161-0.125-0.327-0.191-0.483c1.559-1.653,3.805-1.616,5.764-2.161c2.065-0.57,2.762-1.539,2.691-3.688
		c-0.314-9.472,0.18-18.84,3.304-27.953c5.568-16.252,15.843-28.49,30.829-36.825c1.433-0.798,2.681-1.348,2.733-3.536
		c0.147-6.033,3.573-9.194,9.682-9.319c4.366-0.091,8.741-0.095,13.104,0.015c1.932,0.05,2.942-0.467,2.659-2.56
		c-0.239-1.773,0.437-2.535,2.354-2.525c1.87,0.008,2.997,0.408,2.681,2.541c-0.314,2.109,0.762,2.592,2.66,2.544
		c4.38-0.106,8.748-0.106,13.112-0.013c6.114,0.126,9.446,3.284,9.697,9.333c0.076,1.685,0.714,2.444,2.081,3.211
		c23.13,13.05,34.587,32.945,34.807,59.417c0.02,2.713-0.689,5.827,0.415,8.004c1.085,2.145,4.625,1.716,7.003,2.679
		c0.447,0.169,0.885,0.289,0.983,0.841c-0.071,0.074-0.236,0.179-0.217,0.203c0.066,0.155,0.179,0.306,0.278,0.455
		c0,4.731,0,9.48,0.001,14.212C175.624,142.839,175.408,143.099,175.191,143.343z M41.9,128.541
		c-1.653,0.58-3.265,1.422-4.969,1.687c-2.38,0.374-3.217,1.554-2.943,3.847c0.127,1.046,0.116,2.123,0.002,3.181
		c-0.218,2.017,0.683,2.778,2.6,3.402c18.156,6.006,36.82,9.35,55.859,10.24c25.694,1.188,50.845-2.152,75.391-10.016
		c2.53-0.81,3.284-1.9,3.207-4.44c-0.146-5.4-0.023-5.394-5.336-6.986c-0.875-0.262-1.727-0.689-2.579-1.039
		c-0.212-0.234-0.423-0.469-0.634-0.703c-0.038-4.476-0.038-8.952-0.139-13.443c-0.412-18.442-7.449-33.836-21.441-45.927
		c-3.021-2.62-6.234-5.078-10.504-6.815c0,7.604,0,14.557,0,21.511c-0.071,0.054-0.242,0.118-0.236,0.159
		c0.039,0.156,0.104,0.313,0.171,0.473c-1.55,1.014-3.084,1.019-4.634-0.001c0.075-0.067,0.212-0.168,0.2-0.205
		c-0.073-0.147-0.182-0.287-0.262-0.424c-0.053-9.077-0.096-18.154-0.124-27.231c-0.033-5.879-0.517-6.364-6.547-6.373
		c-3.304-0.006-6.618,0.189-9.889-0.057c-3.139-0.237-4.196,0.621-4.167,4.001c0.167,15.791,0.002,31.592-0.035,47.385
		c-0.208,0.224-0.417,0.449-0.608,0.673c-1.194,0-2.372,0-3.558,0c-0.208-0.225-0.409-0.449-0.616-0.673
		c-0.046-1.289-0.123-2.586-0.123-3.883c-0.008-14.621-0.096-29.243,0.064-43.859c0.037-3.021-0.907-3.851-3.783-3.645
		c-3.405,0.242-6.837,0.052-10.258,0.058c-6.023,0.009-6.514,0.494-6.531,6.373c-0.035,9.077-0.082,18.154-0.123,27.231
		c-0.086,0.054-0.238,0.119-0.232,0.16c0.023,0.162,0.1,0.31,0.157,0.468c-1.54,1.02-3.08,1.015-4.623,0.001
		c0.071-0.068,0.209-0.171,0.197-0.206c-0.067-0.148-0.178-0.289-0.276-0.426c0-7.019,0-14.039,0-20.872
		c-1.325-0.484-1.886,0.104-2.439,0.446c-14.922,9.17-24.353,22.264-28.178,39.386c-1.897,8.491-1.069,17.14-1.46,25.716
		C42.299,127.983,42.102,128.271,41.9,128.541z"/>
	<path fill-rule="evenodd" clip-rule="evenodd" fill="#FFFFFF" d="M29.218,127.722c0.067,0.156,0.157,0.322,0.191,0.483
		c0.009,0.047-0.16,0.111-0.25,0.176C29.082,128.154,29.1,127.934,29.218,127.722z"/>
	<path fill-rule="evenodd" clip-rule="evenodd" fill="#FFFFFF" d="M175.84,128.382c-0.1-0.149-0.212-0.3-0.278-0.455
		c-0.02-0.024,0.146-0.129,0.217-0.203C175.9,127.936,175.925,128.154,175.84,128.382z"/>
	<path fill-rule="evenodd" clip-rule="evenodd" fill="#FFFFFF" d="M29.16,142.593c0.216,0.246,0.429,0.506,0.642,0.75
		C29.372,143.276,29.14,143.045,29.16,142.593z"/>
	<path fill-rule="evenodd" clip-rule="evenodd" fill="#FFFFFF" d="M175.191,143.343c0.217-0.244,0.433-0.504,0.649-0.749
		C175.858,143.046,175.627,143.276,175.191,143.343z"/>
	<path fill-rule="evenodd" clip-rule="evenodd" fill="#FFFFFF" d="M74.657,83.671c-0.133-0.203-0.155-0.408-0.08-0.632
		c0.098,0.138,0.209,0.278,0.276,0.426C74.866,83.5,74.728,83.603,74.657,83.671z"/>
	<path fill-rule="evenodd" clip-rule="evenodd" fill="#FFFFFF" d="M79.355,83.041c0.077,0.223,0.056,0.426-0.073,0.628
		c-0.06-0.159-0.137-0.306-0.16-0.468C79.117,83.16,79.269,83.095,79.355,83.041z"/>
	<path fill-rule="evenodd" clip-rule="evenodd" fill="#FFFFFF" d="M125.715,83.669c-0.126-0.202-0.146-0.406-0.062-0.628
		c0.08,0.137,0.188,0.277,0.262,0.424C125.927,83.501,125.79,83.603,125.715,83.669z"/>
	<path fill-rule="evenodd" clip-rule="evenodd" fill="#FFFFFF" d="M130.414,83.039c0.084,0.224,0.062,0.429-0.065,0.632
		c-0.066-0.16-0.132-0.317-0.171-0.473C130.172,83.157,130.343,83.092,130.414,83.039z"/>
	<path fill-rule="evenodd" clip-rule="evenodd" fill="#FFFFFF" d="M100.725,101.439c-0.466,0.015-0.631-0.243-0.616-0.673
		C100.316,100.99,100.517,101.215,100.725,101.439z"/>
	<path fill-rule="evenodd" clip-rule="evenodd" fill="#FFFFFF" d="M104.892,100.766c0.015,0.43-0.142,0.688-0.608,0.673
		C104.475,101.215,104.684,100.99,104.892,100.766z"/>
	<path fill-rule="evenodd" clip-rule="evenodd" fill="#FFFFFF" d="M42.5,127.714c0.027,0.442-0.16,0.719-0.6,0.827
		C42.102,128.271,42.299,127.983,42.5,127.714z"/>
	<path fill-rule="evenodd" clip-rule="evenodd" fill="#FFFFFF" d="M163.132,128.416c-0.444-0.024-0.652-0.262-0.634-0.704
		C162.709,127.947,162.92,128.182,163.132,128.416z"/>
	<path fill-rule="evenodd" clip-rule="evenodd" fill="#FFFFFF" d="M102.374,129.1c-13.461,0-26.918-0.004-40.377,0.006
		c-1.669,0.002-3.156,0.314-3.207-2.36c-0.054-2.798,1.432-2.651,3.314-2.65c26.798,0.036,53.604,0.009,80.394,0.041
		c1.346,0.001,3.08-0.495,3.513,1.455c0.489,2.258,0.134,3.623-2.916,3.59C129.534,129,115.954,129.1,102.374,129.1z"/>
</g>
</svg>
