<?xml version="1.0" encoding="utf-8"?>
<!-- Generator: Adobe Illustrator 16.0.3, SVG Export Plug-In . SVG Version: 6.00 Build 0)  -->
<!DOCTYPE svg PUBLIC "-//W3C//DTD SVG 1.1//EN" "http://www.w3.org/Graphics/SVG/1.1/DTD/svg11.dtd">
<svg version="1.1" id="Capa_1" xmlns="http://www.w3.org/2000/svg" xmlns:xlink="http://www.w3.org/1999/xlink" x="0px" y="0px"
	 width="100px" height="100px" viewBox="0 0 100 100" enable-background="new 0 0 100 100" xml:space="preserve">
<circle fill="#F0047F" cx="50" cy="50" r="48.5"/>
<g>
	<path fill-rule="evenodd" clip-rule="evenodd" fill="#FFFFFF" d="M56.445,28.174c2.522,0.173,5.102,0.071,7.556,0.575
		c5.444,1.118,9.3,5.92,9.586,11.484c0.28,5.451-3.151,10.565-8.368,12.339c-0.813,0.276-1.031,0.647-0.994,1.439
		c0.062,1.266,0.105,2.546-0.024,3.802c-0.058,0.554-0.443,1.313-0.892,1.521c-0.453,0.209-1.313,0.039-1.743-0.292
		c-1.931-1.488-3.815-3.044-5.626-4.676c-0.913-0.822-1.851-1.162-3.063-1.079c-2.834,0.196-5.481-0.436-7.897-1.978
		c-4.603-2.938-6.761-8.692-5.224-13.978c1.531-5.261,6.368-8.951,11.8-8.993c1.626-0.012,3.253-0.002,4.88-0.002
		C56.438,28.284,56.442,28.229,56.445,28.174z M61.149,54.673c0-1.021-0.001-1.768,0-2.513c0.004-1.498,0.277-1.83,1.785-2.17
		c4.507-1.016,7.529-4.939,7.395-9.599c-0.127-4.371-3.461-8.313-7.955-8.754c-3.738-0.366-7.543-0.307-11.305-0.138
		c-4.658,0.208-8.302,3.996-8.676,8.641c-0.362,4.499,2.659,8.741,7.154,9.742c1.625,0.362,3.357,0.284,5.042,0.309
		c0.836,0.012,1.493,0.239,2.12,0.782C58.102,52.18,59.537,53.335,61.149,54.673z"/>
	<path fill-rule="evenodd" clip-rule="evenodd" fill="#FFFFFF" d="M39.241,67.247c1.682-1.398,3.12-2.672,4.65-3.823
		c0.523-0.395,1.263-0.618,1.927-0.686c1.645-0.168,3.322-0.073,4.95-0.322c1.665-0.255,3.087-1.148,4.319-2.32
		c0.904-0.859,1.805-0.927,2.482-0.232c0.69,0.707,0.564,1.673-0.373,2.54c-2.421,2.237-5.286,3.522-8.581,3.351
		c-2.083-0.109-3.656,0.482-5.123,1.91c-1.395,1.357-2.984,2.514-4.476,3.773c-0.581,0.491-1.179,0.821-1.95,0.476
		c-0.82-0.368-0.94-1.068-0.924-1.867c0.025-1.302-0.021-2.604,0.02-3.905c0.018-0.558-0.191-0.766-0.702-0.954
		c-5.172-1.911-8.062-5.612-8.563-11.119c-0.442-4.865,2.585-9.958,7.105-12.021c0.957-0.437,1.869-0.176,2.253,0.645
		c0.381,0.815,0.044,1.684-0.923,2.161c-2.667,1.316-4.403,3.384-5.143,6.269c-1.302,5.082,1.997,10.344,7.138,11.401
		c1.649,0.34,1.912,0.664,1.913,2.364C39.242,65.593,39.241,66.3,39.241,67.247z"/>
	<path fill-rule="evenodd" clip-rule="evenodd" fill="#FFFFFF" d="M50.144,39.335c0,1,0,1.938,0,2.953c-0.984,0-1.968,0-3.005,0
		c0-0.971,0-1.931,0-2.953C48.119,39.335,49.079,39.335,50.144,39.335z"/>
	<path fill-rule="evenodd" clip-rule="evenodd" fill="#FFFFFF" d="M54.93,42.31c0-1.013,0-1.95,0-2.961c0.998,0,1.981,0,3.014,0
		c0,0.984,0,1.944,0,2.961C56.951,42.31,55.991,42.31,54.93,42.31z"/>
	<path fill-rule="evenodd" clip-rule="evenodd" fill="#FFFFFF" d="M65.723,42.332c-1.011,0-1.947,0-2.947,0c0-0.992,0-1.952,0-2.985
		c0.944,0,1.905,0,2.947,0C65.723,40.288,65.723,41.271,65.723,42.332z"/>
</g>
</svg>
