<?xml version="1.0" encoding="utf-8"?>
<!-- Generator: Adobe Illustrator 16.0.3, SVG Export Plug-In . SVG Version: 6.00 Build 0)  -->
<!DOCTYPE svg PUBLIC "-//W3C//DTD SVG 1.1//EN" "http://www.w3.org/Graphics/SVG/1.1/DTD/svg11.dtd">
<svg version="1.1" id="Capa_1" xmlns="http://www.w3.org/2000/svg" xmlns:xlink="http://www.w3.org/1999/xlink" x="0px" y="0px"
	 width="200px" height="200px" viewBox="0 0 200 200" enable-background="new 0 0 200 200" xml:space="preserve">
<g>
	<path fill-rule="evenodd" clip-rule="evenodd" fill="#FFFFFF" d="M141.636,143.805c-29.129,0-58.069,0-87.254,0
		c0,1.968,0,3.843,0,5.72c-0.004,4.669-2.482,7.172-7.117,7.196c-3.972,0.023-7.945,0.029-11.917,0
		c-4.3-0.024-6.897-2.619-6.903-6.936c-0.021-15.019-0.029-30.037,0.006-45.055c0-4.834,1.041-9.469,3.337-13.78
		c0.99-1.868,1.888-3.779,2.903-5.84c-1.587-0.792-3.059-1.57-4.577-2.271c-1.166-0.546-1.726-1.401-1.691-2.695
		c0.033-1.21-0.024-2.399,0.021-3.588c0.104-3.894,2.705-6.508,6.613-6.62c1.836-0.055,3.705-0.077,5.537,0.01
		c1.264,0.071,1.938-0.34,2.503-1.5c2.159-4.522,4.406-8.985,6.681-13.428c3.722-7.316,9.759-11.147,17.939-11.179
		c20.286-0.107,40.595-0.121,60.893,0.003c7.86,0.054,13.801,3.832,17.44,10.869c2.407,4.579,4.664,9.213,6.934,13.865
		c0.481,1.044,1.103,1.415,2.226,1.359c1.896-0.106,3.821-0.055,5.735-0.005c3.832,0.072,6.51,2.613,6.514,6.46
		c0.088,6.731,0.772,5.132-4.524,7.891c-0.465,0.259-0.948,0.516-1.615,0.883c1.045,2.081,1.975,4.135,3.049,6.124
		c2.221,4.229,3.204,8.751,3.201,13.506c0,14.828,0,29.713-0.111,44.535c0,1.567-0.414,3.283-1.126,4.633
		c-1.063,1.959-3.013,2.76-5.247,2.762c-4.33,0.005-8.702,0.078-13.048-0.027c-3.842-0.047-6.339-2.688-6.4-6.57
		C141.636,148.088,141.636,145.996,141.636,143.805z M157.419,87.041c-2.14,1.09-4.274,2.067-6.294,3.2
		c-1.747,0.938-3.523,1.324-5.478,1.296c-5.8-0.063-11.624,0.01-17.465,0.007c-13.25-0.007-26.512-0.035-39.798-0.035
		c-12.982,0-25.987,0.055-38.969,0c-1.21,0-2.481-0.355-3.584-0.846c-2.458-1.103-4.839-2.409-7.386-3.678
		c-2.641,5.242-5.653,10.197-5.838,16.194c-0.07,2.207-0.016,4.426-0.017,6.668c-0.001,13.205-0.011,26.435-0.013,39.674
		c0,2.319,0.784,3.118,3.121,3.135c3.863,0.027,7.726,0.039,11.588-0.006c2.13-0.021,2.932-0.833,2.952-2.997
		c0.006-2.227,0.001-4.435,0.004-6.672c0.001-2.974,0.383-3.373,3.398-3.373c19.854-0.003,39.706-0.002,59.558-0.002
		c9.79,0,19.61-0.004,29.391,0.005c2.707,0,3.178,0.504,3.187,3.287c0.007,2.157-0.008,4.319,0.009,6.515
		c0.021,2.562,0.705,3.235,3.333,3.252c3.133,0.02,6.313,0.001,9.452,0.001c4.694-0.002,4.869-0.163,4.871-4.874
		c0.007-13.386-0.199-26.737,0.089-40.12C163.705,100.076,161.322,93.496,157.419,87.041z M155.65,83.29
		c-0.253-0.564-0.428-0.971-0.604-1.349c-4.245-8.469-8.43-16.94-12.723-25.359c-2.895-5.724-7.715-8.607-14.068-8.632
		c-20.155-0.059-40.273-0.052-60.401-0.007c-6.575,0.022-11.412,3.07-14.395,8.955c-2.498,4.936-4.971,9.9-7.446,14.861
		c-1.892,3.789-3.769,7.559-5.736,11.518c2.243,1.116,4.339,2.275,6.522,3.175c1.26,0.535,2.686,0.921,4.052,0.921
		c31.767,0.05,63.53,0.028,95.309,0.002c0.56,0,1.216-0.002,1.756-0.231C150.462,85.936,152.956,84.64,155.65,83.29z M40.208,74.079
		c-2.089,0-3.884-0.202-5.597,0.106c-0.759,0.13-1.778,1.223-1.912,2.018c-0.174,1.128-0.818,2.649,0.603,3.551
		c0.983,0.612,2.099,1.052,3.27,1.622C37.787,78.938,38.934,76.657,40.208,74.079z M159.402,81.396
		c1.101-0.534,1.913-1.049,2.832-1.369c1.803-0.655,1.128-2.13,1.161-3.313c0.086-1.197-0.449-2.335-1.669-2.472
		c-1.88-0.208-3.764-0.056-5.893-0.056C157.084,76.68,158.188,78.944,159.402,81.396z"/>
	<path fill-rule="evenodd" clip-rule="evenodd" fill="#FFFFFF" d="M154.437,113.282c0.074,7.114-5.626,12.942-12.728,12.959
		c-7.23,0.063-13.068-5.55-13.096-12.579c-0.094-7.416,5.631-13.243,12.996-13.251C148.724,100.403,154.347,106.049,154.437,113.282
		z M141.473,104.613c-4.8-0.032-8.716,3.862-8.748,8.664c-0.025,4.843,3.835,8.783,8.582,8.879c4.981,0.034,9.023-3.86,9.049-8.811
		C150.356,108.516,146.445,104.629,141.473,104.613z"/>
	<path fill-rule="evenodd" clip-rule="evenodd" fill="#FFFFFF" d="M54.421,126.242c-7.156-0.001-12.943-5.754-12.902-12.809
		c0.017-7.31,5.815-13.071,13.083-13.014c7.153,0.057,12.855,5.887,12.807,13.116C67.375,120.613,61.567,126.279,54.421,126.242z
		 M54.33,104.613c-4.749,0.04-8.721,4.055-8.687,8.758c0.027,4.925,4.063,8.846,9.045,8.787c4.733-0.109,8.632-4.096,8.617-8.892
		C63.266,108.405,59.292,104.56,54.33,104.613z"/>
</g>
</svg>
