<?xml version="1.0" encoding="utf-8"?>
<!-- Generator: Adobe Illustrator 16.0.3, SVG Export Plug-In . SVG Version: 6.00 Build 0)  -->
<!DOCTYPE svg PUBLIC "-//W3C//DTD SVG 1.1//EN" "http://www.w3.org/Graphics/SVG/1.1/DTD/svg11.dtd">
<svg version="1.1" id="Capa_1" xmlns="http://www.w3.org/2000/svg" xmlns:xlink="http://www.w3.org/1999/xlink" x="0px" y="0px"
	 width="99px" height="45px" viewBox="0 0 99 45" enable-background="new 0 0 99 45" xml:space="preserve">
<title>180E6704-C2DB-4D66-BA72-B3A6C3B45ABC</title>
<desc>Created with sketchtool.</desc>
<g id="diseño-alta-Home---responsive">
	<g id="_x30_1.-Home-_x7C_-Feedback-03---Header-fixed-pos-corto-v05" transform="translate(-121.000000, -8.000000)">
		<g id="header_fixed">
			<g id="logo_bds_pos" transform="translate(121.000000, 7.000000)">
				<g id="Group-7" transform="translate(0.000000, 0.000000)">
					<g id="Group-3" transform="translate(0.000000, 17.008874)">
						<g id="Clip-2">
						</g>
						<defs>
							<filter id="Adobe_OpacityMaskFilter" filterUnits="userSpaceOnUse" x="0" y="0.842" width="65.347" height="28.042">
								<feColorMatrix  type="matrix" values="1 0 0 0 0  0 1 0 0 0  0 0 1 0 0  0 0 0 1 0"/>
							</filter>
						</defs>
						<mask maskUnits="userSpaceOnUse" x="0" y="0.842" width="65.347" height="28.042" id="mask-2">
							<g filter="url(#Adobe_OpacityMaskFilter)">
								<polygon id="path-1" fill="#FFFFFF" points="0,0.842 65.347,0.842 65.347,28.884 0,28.884 								"/>
							</g>
						</mask>
						<path id="Fill-1" mask="url(#mask-2)" fill="#FFFFFF" d="M2.392,19.882h2.064c2.266,0,3.01,1.563,3.011,3.125
							c0,1.563-0.651,3.297-3.01,3.297H2.393L2.392,19.882z M4.456,17.7H0.002l0.002,10.832h4.453c3.802,0,5.4-2.662,5.399-5.494
							C9.855,20.206,8.195,17.7,4.456,17.7L4.456,17.7z M11.686,17.699c0.001,3.604,0.001,7.226,0.002,10.831h8.271v-2.229h-5.896
							V24.12h5.353v-2.121h-5.354v-2.088l5.679-0.001l-0.001-2.212L11.686,17.699z M21.866,17.698l0.002,10.831l7.851-0.001
							l-0.001-2.213l-5.43,0.002l-0.001-8.621L21.866,17.698z M57.493,17.692l0.001,10.832h7.853v-2.213h-5.431l-0.002-8.619H57.493
							z M46.338,23.11c-0.001-1.965,1.427-3.514,3.491-3.514c2.111,0,3.492,1.532,3.492,3.514c0,2.011-1.381,3.496-3.491,3.496
							h-0.001C47.765,26.606,46.338,25.138,46.338,23.11L46.338,23.11z M49.828,17.432c-3.476,0-5.865,2.151-5.865,5.679
							c0.001,3.527,2.391,5.68,5.867,5.68c3.475-0.002,5.866-2.152,5.864-5.68c0-3.528-2.389-5.68-5.864-5.679H49.828z
							 M38.33,17.309c-2.235,0.001-4.282,1.146-4.297,3.297c-0.031,2.554,2.018,3.126,4.313,3.343
							c1.474,0.123,2.204,0.541,2.188,1.453c0,0.774-0.885,1.285-2.171,1.285c-1.103,0-2.484-0.463-3.322-1.531l-1.443,1.501
							c0.9,1.491,2.806,2.219,4.654,2.228h0.068h0.026c2.343-0.016,4.578-1.068,4.577-3.482c0-2.508-2.033-3.327-4.174-3.512
							c-1.396-0.125-2.343-0.31-2.343-1.301c0-0.742,0.869-1.191,1.938-1.191c0.854,0,1.909,0.278,2.515,0.913l1.521-1.331
							C41.263,17.68,40.006,17.309,38.33,17.309L38.33,17.309z M2.375,7.331c0.962,0,1.987,0,2.948,0
							c1.071,0,1.629,0.51,1.629,1.269c0,0.757-0.511,1.237-1.598,1.237H2.375V7.331z M2.374,3.199l2.98-0.001
							c0.916,0,1.381,0.464,1.381,1.1c0,0.634-0.465,1.021-1.412,1.021L2.375,5.32L2.374,3.199z M5.353,1.11L0,1.111l0.001,10.831
							c1.769,0,3.694-0.001,5.446-0.001c2.172,0,3.63-0.79,3.957-2.538c0.232-1.253-0.342-2.646-1.723-3.14
							c1.04-0.48,1.442-1.316,1.442-2.213C9.124,2.038,7.417,1.11,5.353,1.11L5.353,1.11z M15.998,3.554l1.863,4.395l-3.739,0.001
							L15.998,3.554z M14.679,1.109L9.809,11.941l2.607-0.001l0.791-1.855l5.57-0.002l0.792,1.856h2.622L17.317,1.108L14.679,1.109z
							 M30.74,1.107l0.001,3.636l0.155,3.404l-5.478-7.041l-2.079,0.001l0.001,10.832h2.452l-0.001-3.373l-0.093-3.559l5.4,6.931
							h2.078L33.175,1.107H30.74z M40.779,0.858c-3.988,0.001-5.818,2.94-5.802,5.741c0.016,2.957,1.661,5.617,5.803,5.617
							c1.614,0,3.058-0.496,4.174-1.594L43.449,8.95c-0.651,0.65-1.8,1.037-2.669,1.037c-2.545,0.001-3.398-1.795-3.414-3.372
							c-0.016-1.579,0.946-3.482,3.413-3.483c0.87,0,1.815,0.263,2.467,0.898l1.521-1.501C43.649,1.43,42.27,0.858,40.779,0.858
							L40.779,0.858z M47.857,6.52c-0.001-1.965,1.426-3.512,3.49-3.512c2.11-0.001,3.491,1.531,3.493,3.512
							c0,2.012-1.382,3.497-3.492,3.497C49.284,10.017,47.857,8.548,47.857,6.52L47.857,6.52z M51.347,0.842
							c-3.476,0-5.865,2.15-5.865,5.679c0.001,3.529,2.391,5.678,5.866,5.678c3.477-0.001,5.867-2.151,5.865-5.68
							c0-3.528-2.39-5.677-5.864-5.677H51.347z"/>
					</g>
					<g id="Group-6" transform="translate(65.255814, 0.962363)">
						<g id="Clip-5">
						</g>
						<defs>
							<filter id="Adobe_OpacityMaskFilter_1_" filterUnits="userSpaceOnUse" x="0.074" y="0.107" width="33.752" height="33.659">
								<feColorMatrix  type="matrix" values="1 0 0 0 0  0 1 0 0 0  0 0 1 0 0  0 0 0 1 0"/>
							</filter>
						</defs>
						<mask maskUnits="userSpaceOnUse" x="0.074" y="0.107" width="33.752" height="33.659" id="mask-4">
							<g filter="url(#Adobe_OpacityMaskFilter_1_)">
								<path id="path-3" fill="#FFFFFF" d="M17.647,0.107l-0.479,0.178c-4.943,1.844-8.027,6.378-7.931,11.608l0,0l0.011,0.327
									l0.021,0.507l3.064-0.133l-0.021-0.508c-0.172-3.918,2.037-7.35,5.65-8.824l0,0l0.279-0.11l0.478-0.178L17.647,0.107z
									 M14.848,8.169l-0.344,0.374l2.263,2.068l0.343-0.375c2.654-2.888,6.642-3.758,10.239-2.262l0,0L27.64,8.1l0.462,0.21
									l1.273-2.784l-0.463-0.211c-1.535-0.697-3.131-1.067-4.711-1.124l0,0L23.77,4.184C20.456,4.184,17.244,5.561,14.848,8.169
									L14.848,8.169z M5.297,5.009C3.111,9.793,4.141,15.169,7.91,18.799l0,0l0.249,0.235l0.376,0.342l2.072-2.257l-0.376-0.342
									c-2.896-2.646-3.769-6.623-2.269-10.21l0,0l0.128-0.29l0.21-0.461l-2.793-1.27L5.297,5.009z M21.68,9.253l-0.508,0.023
									l0.134,3.057l0.508-0.022c3.929-0.17,7.37,2.031,8.851,5.635l0,0l0.109,0.279l0.178,0.475l2.875-1.071l-0.178-0.476
									c-1.781-4.749-6.064-7.777-11.064-7.908l0,0L22.25,9.243C22.06,9.243,21.871,9.246,21.68,9.253L21.68,9.253z M23.295,16.753
									l0.375,0.342c2.896,2.646,3.769,6.624,2.268,10.209l0,0l-0.126,0.291L25.6,28.057l2.793,1.27l0.211-0.461
									c2.187-4.787,1.157-10.162-2.611-13.792l0,0l-0.25-0.234l-0.375-0.342L23.295,16.753z M0.074,16.243l0.178,0.476
									c1.85,4.932,6.396,8.008,11.641,7.91l0,0l0.328-0.01l0.508-0.022l-0.133-3.058l-0.508,0.022
									c-3.93,0.17-7.371-2.031-8.851-5.634l0,0l-0.11-0.28l-0.178-0.475L0.074,16.243z M21.566,21.28l0.022,0.508
									c0.171,3.917-2.036,7.35-5.649,8.826l0,0l-0.28,0.109l-0.478,0.176l1.076,2.867l0.475-0.178
									c4.945-1.844,8.028-6.377,7.932-11.607l0,0l-0.01-0.327l-0.021-0.507L21.566,21.28z M16.791,23.637
									c-2.652,2.889-6.643,3.758-10.238,2.263l0,0l-0.291-0.126l-0.463-0.211l-1.272,2.783l0.463,0.211
									c4.799,2.182,10.189,1.156,13.829-2.604l0,0l0.234-0.249l0.344-0.373l-2.262-2.068L16.791,23.637z"/>
							</g>
						</mask>
						<path id="Fill-4" mask="url(#mask-4)" fill="#FFFFFF" d="M17.647,0.107l-0.479,0.178c-4.943,1.844-8.027,6.378-7.931,11.608
							l0,0l0.011,0.327l0.021,0.507l3.064-0.133l-0.021-0.508c-0.172-3.918,2.037-7.35,5.65-8.824l0,0l0.279-0.11l0.478-0.178
							L17.647,0.107z M14.848,8.169l-0.344,0.374l2.263,2.068l0.343-0.375c2.654-2.888,6.642-3.758,10.239-2.262l0,0L27.64,8.1
							l0.462,0.21l1.273-2.784l-0.463-0.211c-1.535-0.697-3.131-1.067-4.711-1.124l0,0L23.77,4.184
							C20.456,4.184,17.244,5.561,14.848,8.169L14.848,8.169z M5.297,5.009C3.111,9.793,4.141,15.169,7.91,18.799l0,0l0.249,0.235
							l0.376,0.342l2.072-2.257l-0.376-0.342c-2.896-2.646-3.769-6.623-2.269-10.21l0,0l0.128-0.29l0.21-0.461l-2.793-1.27
							L5.297,5.009z M21.68,9.253l-0.508,0.023l0.134,3.057l0.508-0.022c3.929-0.17,7.37,2.031,8.851,5.635l0,0l0.109,0.279
							l0.178,0.475l2.875-1.071l-0.178-0.476c-1.781-4.749-6.064-7.777-11.064-7.908l0,0L22.25,9.243
							C22.06,9.243,21.871,9.246,21.68,9.253L21.68,9.253z M23.295,16.753l0.375,0.342c2.896,2.646,3.769,6.624,2.268,10.209l0,0
							l-0.126,0.291L25.6,28.057l2.793,1.27l0.211-0.461c2.187-4.787,1.157-10.162-2.611-13.792l0,0l-0.25-0.234l-0.375-0.342
							L23.295,16.753z M0.074,16.243l0.178,0.476c1.85,4.932,6.396,8.008,11.641,7.91l0,0l0.328-0.01l0.508-0.022l-0.133-3.058
							l-0.508,0.022c-3.93,0.17-7.371-2.031-8.851-5.634l0,0l-0.11-0.28l-0.178-0.475L0.074,16.243z M21.566,21.28l0.022,0.508
							c0.171,3.917-2.036,7.35-5.649,8.826l0,0l-0.28,0.109l-0.478,0.176l1.076,2.867l0.475-0.178
							c4.945-1.844,8.028-6.377,7.932-11.607l0,0l-0.01-0.327l-0.021-0.507L21.566,21.28z M16.791,23.637
							c-2.652,2.889-6.643,3.758-10.238,2.263l0,0l-0.291-0.126l-0.463-0.211l-1.272,2.783l0.463,0.211
							c4.799,2.182,10.189,1.156,13.829-2.604l0,0l0.234-0.249l0.344-0.373l-2.262-2.068L16.791,23.637z"/>
					</g>
				</g>
			</g>
		</g>
	</g>
</g>
</svg>
