<svg xmlns="http://www.w3.org/2000/svg"  viewBox="0 0 64 64" width="96px" height="96px"><linearGradient id="DgrXqkLRAN2ZaAsWkWA3wa" x1="32" x2="32" y1="11.167" y2="51.715" gradientUnits="userSpaceOnUse" spreadMethod="reflect"><stop offset="0" stop-color="#1a6dff"/><stop offset="1" stop-color="#c822ff"/></linearGradient><path fill="url(#DgrXqkLRAN2ZaAsWkWA3wa)" d="M55.913,52H8.087C6.877,52,6,51.111,6,49.886L5.995,18.104c0-1.225,0.877-2.114,2.087-2.114 h11.821c0.068,0,0.087-0.032,0.087-0.114l0.006-2.763c0-1.223,0.877-2.112,2.087-2.112h19.831C43.123,11,44,11.889,44,13.114 l0.005,2.78c0,0.084,0.019,0.116,0.019,0.116l11.895,0c1.209,0,2.087,0.889,2.087,2.114L58,49.886C58,51.111,57.123,52,55.913,52z M8.082,17.989c-0.068,0-0.087,0.032-0.087,0.114L8,49.886C8,49.968,8.019,50,8.019,50h47.895C55.981,50,56,49.968,56,49.886 l0.005-31.761c0-0.083-0.019-0.114-0.019-0.114H44.092c-1.209,0-2.087-0.889-2.087-2.114L42,13.116C42,13.032,41.981,13,41.981,13 H22.083c-0.068,0-0.087,0.032-0.087,0.114l-0.006,2.763c0,1.223-0.877,2.112-2.087,2.112H8.082z"/><linearGradient id="DgrXqkLRAN2ZaAsWkWA3wb" x1="50.5" x2="50.5" y1="11.167" y2="51.715" gradientUnits="userSpaceOnUse" spreadMethod="reflect"><stop offset="0" stop-color="#1a6dff"/><stop offset="1" stop-color="#c822ff"/></linearGradient><path fill="url(#DgrXqkLRAN2ZaAsWkWA3wb)" d="M50.5,27c-1.93,0-3.5-1.57-3.5-3.5s1.57-3.5,3.5-3.5s3.5,1.57,3.5,3.5S52.43,27,50.5,27z M50.5,22c-0.827,0-1.5,0.673-1.5,1.5s0.673,1.5,1.5,1.5s1.5-0.673,1.5-1.5S51.327,22,50.5,22z"/><linearGradient id="DgrXqkLRAN2ZaAsWkWA3wc" x1="32" x2="32" y1="11.167" y2="51.715" gradientUnits="userSpaceOnUse" spreadMethod="reflect"><stop offset="0" stop-color="#1a6dff"/><stop offset="1" stop-color="#c822ff"/></linearGradient><path fill="url(#DgrXqkLRAN2ZaAsWkWA3wc)" d="M32,48c-8.271,0-15-6.729-15-15s6.729-15,15-15s15,6.729,15,15S40.271,48,32,48z M32,20 c-7.168,0-13,5.832-13,13s5.832,13,13,13s13-5.832,13-13S39.168,20,32,20z"/><linearGradient id="DgrXqkLRAN2ZaAsWkWA3wd" x1="32" x2="32" y1="22" y2="44" gradientUnits="userSpaceOnUse" spreadMethod="reflect"><stop offset="0" stop-color="#6dc7ff"/><stop offset="1" stop-color="#e6abff"/></linearGradient><path fill="url(#DgrXqkLRAN2ZaAsWkWA3wd)" d="M32,44c-6.05,0-11-4.95-11-11s4.95-11,11-11s11,4.95,11,11S38.05,44,32,44z"/></svg>