<?xml version="1.0" encoding="utf-8"?>
<!-- Generator: Adobe Illustrator 16.0.3, SVG Export Plug-In . SVG Version: 6.00 Build 0)  -->
<!DOCTYPE svg PUBLIC "-//W3C//DTD SVG 1.1//EN" "http://www.w3.org/Graphics/SVG/1.1/DTD/svg11.dtd">
<svg version="1.1" id="Capa_1" xmlns="http://www.w3.org/2000/svg" xmlns:xlink="http://www.w3.org/1999/xlink" x="0px" y="0px"
	 width="100px" height="100px" viewBox="0 0 100 100" enable-background="new 0 0 100 100" xml:space="preserve">
<circle fill="#F0047F" cx="50" cy="50" r="48.5"/>
<g>
	<path fill-rule="evenodd" clip-rule="evenodd" fill="#FFFFFF" d="M49.902,34.572c1.89-1.413,3.427-2.868,5.224-3.848
		c5.938-3.236,13.383-1.554,17.353,3.749c4.065,5.432,3.636,12.915-1.16,17.803c-5.779,5.894-11.641,11.709-17.495,17.53
		c-2.15,2.139-5.099,2.146-7.24,0.018c-5.806-5.77-11.663-11.495-17.344-17.387c-7.124-7.387-4.304-19.557,5.221-22.681
		c5.208-1.708,9.919-0.606,13.947,3.162C48.986,33.458,49.475,34.095,49.902,34.572z M71.886,42.372
		c-0.216-3.932-2.058-7.265-6.075-9.021c-4.116-1.799-8.003-1.139-11.423,1.81c-0.969,0.835-1.808,1.819-2.715,2.728
		c-1.064,1.068-1.86,1.079-2.938,0.033c-1.045-1.014-2.033-2.092-3.125-3.052c-4.913-4.32-12.74-2.921-15.8,2.797
		c-2.207,4.124-1.355,9.29,2.227,12.904c5.541,5.592,11.125,11.141,16.698,16.703c1.065,1.064,1.883,1.075,2.941,0.019
		c5.692-5.686,11.38-11.377,17.059-17.076C70.785,48.157,71.828,45.659,71.886,42.372z"/>
</g>
</svg>
