<?xml version="1.0" encoding="utf-8"?>
<!-- Generator: Adobe Illustrator 16.0.3, SVG Export Plug-In . SVG Version: 6.00 Build 0)  -->
<!DOCTYPE svg PUBLIC "-//W3C//DTD SVG 1.1//EN" "http://www.w3.org/Graphics/SVG/1.1/DTD/svg11.dtd">
<svg version="1.1" id="Capa_1" xmlns="http://www.w3.org/2000/svg" xmlns:xlink="http://www.w3.org/1999/xlink" x="0px" y="0px"
	 width="100px" height="100px" viewBox="0 0 100 100" enable-background="new 0 0 100 100" xml:space="preserve">
<g>
	<title></title>
	<g id="about">
		<path fill="#FFFFFF" d="M49.5,49.75c12.081,0,21.875-9.794,21.875-21.875S61.581,6,49.5,6s-21.875,9.794-21.875,21.875
			S37.419,49.75,49.5,49.75z M49.5,12.25c8.629,0,15.625,6.996,15.625,15.625S58.129,43.5,49.5,43.5
			c-8.629,0-15.625-6.996-15.625-15.625S40.871,12.25,49.5,12.25z"/>
		<path fill="#FFFFFF" d="M52.625,56h-6.25C27.39,56,12,71.391,12,90.375c0,1.727,1.399,3.125,3.125,3.125h68.75
			c1.727,0,3.125-1.398,3.125-3.125C87,71.391,71.609,56,52.625,56z M18.438,87.25c1.591-14.23,13.619-24.993,27.938-25h6.25
			c14.318,0.007,26.347,10.77,27.938,25H18.438z"/>
	</g>
</g>
</svg>
