<?xml version="1.0" encoding="utf-8"?>
<!-- Generator: Adobe Illustrator 16.0.3, SVG Export Plug-In . SVG Version: 6.00 Build 0)  -->
<!DOCTYPE svg PUBLIC "-//W3C//DTD SVG 1.1//EN" "http://www.w3.org/Graphics/SVG/1.1/DTD/svg11.dtd">
<svg version="1.1" id="Capa_1" xmlns="http://www.w3.org/2000/svg" xmlns:xlink="http://www.w3.org/1999/xlink" x="0px" y="0px"
	 width="200px" height="200px" viewBox="0 0 200 200" enable-background="new 0 0 200 200" xml:space="preserve">
<g>
	<path fill-rule="evenodd" clip-rule="evenodd" fill="#FFFFFF" d="M119.779,154.578c1.342,0,2.449,0,3.557,0
		c6.268,0,12.537,0.001,18.807-0.001c2.451,0,2.455-0.002,2.455-2.387c0-15.616,0-31.232,0.002-46.848
		c0-0.56-0.049-1.131,0.045-1.677c0.258-1.505,1.174-2.407,2.705-2.523c1.521-0.115,2.607,0.591,3.063,2.063
		c0.178,0.572,0.189,1.211,0.189,1.819c0.01,15.84,0.01,31.68,0.006,47.52c0,5.354-2.684,8.026-8.064,8.029
		c-8.229,0.005-16.457,0.006-24.684,0.002c-3.156-0.001-4.094-0.945-4.096-4.107c-0.004-7.276-0.037-14.553,0.029-21.829
		c0.012-1.451-0.369-1.923-1.879-1.9c-5.932,0.088-11.865,0.037-17.798,0.038c-0.547,0-1.094,0-1.886,0c0,0.825,0,1.475,0,2.125
		c0,7.276,0.005,14.553-0.001,21.829c-0.002,2.826-1.011,3.837-3.851,3.839c-8.62,0.006-17.239,0.011-25.858-0.006
		c-4.179-0.008-7.109-2.957-7.121-7.273c-0.031-11.53-0.004-23.061-0.002-34.591c0-4.365-0.007-8.731-0.009-13.097
		c0-0.504-0.024-1.012,0.026-1.511c0.178-1.779,1.423-2.916,3.105-2.87c1.698,0.047,2.899,1.206,2.927,3.029
		c0.054,3.582,0.018,7.164,0.018,10.746c0,12.37-0.002,24.739-0.001,37.109c0,2.484,0.004,2.483,2.543,2.483
		c6.716,0,13.433,0,20.149,0c0.607,0,1.215,0,2.004,0c0.041-0.709,0.104-1.297,0.105-1.885c0.007-5.989,0.003-11.979,0.006-17.968
		c0-0.671-0.006-1.346,0.057-2.013c0.41-4.36,1.487-6.176,6.503-6.029c7.27,0.213,14.55,0.052,21.827,0.058
		c2.732,0.003,4.156,1.087,4.742,3.751c0.25,1.137,0.355,2.326,0.361,3.492c0.035,6.156,0.016,12.313,0.018,18.47
		C119.779,153.078,119.779,153.69,119.779,154.578z"/>
	<path fill-rule="evenodd" clip-rule="evenodd" fill="#FFFFFF" d="M102.639,40.579c2.574-0.01,4.313,1.054,5.887,2.633
		c14.863,14.906,29.752,29.786,44.633,44.674c3.957,3.959,7.914,7.92,11.867,11.883c1.668,1.672,1.852,3.336,0.533,4.703
		c-1.305,1.354-3.15,1.161-4.83-0.519c-18.686-18.685-37.369-37.37-56.055-56.055c-1.729-1.728-1.729-1.728-3.506,0.048
		c-18.566,18.565-37.132,37.13-55.701,55.693c-0.395,0.396-0.772,0.832-1.234,1.131c-1.284,0.829-2.585,0.749-3.696-0.291
		c-1.106-1.035-1.31-2.325-0.556-3.665c0.269-0.477,0.69-0.877,1.083-1.271c18.839-18.847,37.686-37.686,56.518-56.54
		C99.079,41.507,100.794,40.606,102.639,40.579z"/>
	<path fill-rule="evenodd" clip-rule="evenodd" fill="#FFFFFF" d="M150.748,70.664c0,1.565,0.035,3.132-0.008,4.697
		c-0.053,1.918-1.242,3.155-2.955,3.155c-1.717,0-2.941-1.218-2.988-3.147c-0.063-2.571-0.02-5.145-0.025-7.718
		c-0.006-2.831-0.176-2.994-3.082-2.995c-2.404-0.001-4.811,0.016-7.215-0.006c-2.135-0.02-3.457-1.216-3.428-3.049
		c0.029-1.765,1.324-2.958,3.35-2.981c2.963-0.032,5.93-0.06,8.893,0.006c4.191,0.093,7.373,3.317,7.475,7.507
		c0.035,1.509,0.006,3.02,0.006,4.53C150.762,70.664,150.756,70.664,150.748,70.664z"/>
</g>
</svg>
