<?xml version="1.0" encoding="utf-8"?>
<!-- Generator: Adobe Illustrator 16.0.3, SVG Export Plug-In . SVG Version: 6.00 Build 0)  -->
<!DOCTYPE svg PUBLIC "-//W3C//DTD SVG 1.1//EN" "http://www.w3.org/Graphics/SVG/1.1/DTD/svg11.dtd">
<svg version="1.1" id="Capa_1" xmlns="http://www.w3.org/2000/svg" xmlns:xlink="http://www.w3.org/1999/xlink" x="0px" y="0px"
	 width="200px" height="200px" viewBox="0 0 200 200" enable-background="new 0 0 200 200" xml:space="preserve">
<g>
	<path fill-rule="evenodd" clip-rule="evenodd" fill="#FFFFFF" d="M99.055,170.871c-17.028,0-34.063-0.142-51.088,0.091
		c-4.593,0.06-5.773-1.56-5.733-5.912c0.179-21.054,0.014-42.112,0.156-63.167c0.019-3.205-0.72-5.273-3.423-7.291
		c-7.58-5.657-9.233-13.417-5.233-21.958c2.033-4.334,3.857-8.776,6.133-12.978c3.236-5.973,4.932-12.09,4.55-19.016
		c-0.387-7.089,3.32-10.613,10.397-10.628c29.727-0.067,59.458-0.064,89.184-0.001c6.714,0.011,10.871,3.394,10.39,9.643
		c-0.633,8.361,2.32,15.379,5.933,22.433c1.755,3.433,3.271,6.987,4.913,10.479c4.01,8.546,2.415,16.136-5.182,21.973
		c-2.643,2.031-3.472,4.058-3.446,7.289c0.156,20.744,0.087,41.498,0.084,62.242c-0.001,6.795-0.007,6.799-7.007,6.8
		C132.81,170.873,115.938,170.871,99.055,170.871z M150.569,164.929c0-22.134,0-43.856,0-63.952
		c-7.155-2.727-13.444-5.124-20.41-7.776c-10.384,8.569-19.148,8.525-30.638-1.073c-11.387,9.629-20.308,9.643-31.445,0.292
		c-3.096,1.894-5.915,4.228-9.154,5.436c-3.222,1.196-6.867,1.265-10.481,1.854c0,21.661,0,43.385,0,65.134
		c20.099,0,39.855,0,60.041,0c0-9.505-0.061-18.75,0.021-28.004c0.042-5.884,2.313-8.049,8.216-8.097
		c4.33-0.043,8.671-0.018,13.001-0.007c7.454,0.016,9.351,1.876,9.354,9.243c0.008,8.932,0.001,17.855,0.001,26.948
		C143.19,164.929,146.71,164.929,150.569,164.929z M148.704,47.382c0-1.815,0.002-3.33,0-4.844
		c-0.006-6.097-0.537-6.641-6.542-6.647c-9.737-0.01-19.475-0.003-29.222-0.003c-19.011,0-38.028,0.015-57.044-0.017
		c-2.605-0.004-5.23-0.018-5.521,3.384c-0.234,2.691-0.05,5.417-0.05,8.126C83.412,47.382,115.805,47.382,148.704,47.382z
		 M131.93,75.645c9.551,0,18.497,0,28.222,0c-3.411-7.207-6.605-13.997-9.874-20.75c-0.274-0.566-1.076-1.238-1.642-1.246
		c-7.164-0.085-14.329-0.054-21.803-0.054C128.626,61.346,130.259,68.377,131.93,75.645z M38.833,75.515c9.992,0,19.075,0,28.247,0
		c1.686-7.366,3.319-14.474,5.034-21.962c-7.277,0-13.923-0.063-20.565,0.069c-0.994,0.018-2.474,0.688-2.875,1.485
		C45.358,61.688,42.246,68.372,38.833,75.515z M133.086,134.754c-6.401,0-12.216,0-18.303,0c0,10.17,0,20.084,0,30.063
		c6.285,0,12.228,0,18.303,0C133.086,154.703,133.086,144.886,133.086,134.754z M96.082,75.633c0-7.538,0-14.669,0-21.837
		c-6.146,0-11.946,0-17.941,0c-1.674,7.323-3.31,14.454-4.998,21.837C80.91,75.633,88.276,75.633,96.082,75.633z M102.929,53.684
		c0,7.527,0,14.664,0,21.789c7.785,0,15.22,0,22.929,0c-1.749-7.506-3.406-14.633-5.069-21.789
		C114.699,53.684,109.019,53.684,102.929,53.684z M161.177,81.819c-9.323,0-18.375,0-27.452,0
		c0.922,6.725,6.252,11.362,13.065,11.607C153.711,93.68,159.363,89.24,161.177,81.819z M65.38,81.535c-4.779,0-9.254,0-13.729,0
		c-4.574,0-9.145,0-13.804,0c1.393,7.227,6.932,11.84,13.724,11.894C58.503,93.482,64.065,88.932,65.38,81.535z M102.841,81.566
		c-0.337,6.126,4.175,10.793,10.626,11.773c5.4,0.825,13.607-3.189,14.322-7.3c0.358-2.025,0.45-4.528-2.979-4.495
		C117.558,81.611,110.301,81.566,102.841,81.566z M96.022,81.926c-0.418-0.112-0.856-0.333-1.299-0.336
		c-6.496-0.033-12.999-0.126-19.494,0.017c-1.307,0.029-3.424,0.708-3.695,1.553c-0.434,1.359-0.09,3.417,0.732,4.634
		c3.157,4.696,10.122,6.673,15.744,4.811C93.753,90.704,96.557,86.997,96.022,81.926z"/>
	<path fill-rule="evenodd" clip-rule="evenodd" fill="#FFFFFF" d="M75.576,107.416c4.954,0,9.909,0.121,14.854-0.04
		c3.161-0.1,4.607,1.202,4.603,4.307c-0.013,8.041-0.006,16.09-0.012,24.129c-0.002,2.913-1.547,4.154-4.372,4.146
		c-10.21-0.026-20.423-0.006-30.632-0.017c-2.607-0.003-3.967-1.15-3.943-3.939c0.067-8.352,0.044-16.712,0.015-25.063
		c-0.01-2.56,1.192-3.578,3.71-3.538C65.055,107.474,70.318,107.416,75.576,107.416z M62.014,133.606c3.732,0,6.995,0,10.291,0
		c0-2.455,0-4.528,0-6.868c-3.573,0-6.85,0-10.291,0C62.014,129.128,62.014,131.233,62.014,133.606z M78.842,126.716
		c0,2.478,0,4.688,0,6.931c3.488,0,6.646,0,9.899,0c0-2.453,0-4.566,0-6.931C85.317,126.716,82.134,126.716,78.842,126.716z
		 M62.059,120.258c3.624,0,6.781,0,10.009,0c0-2.396,0-4.56,0-6.793c-3.537,0-6.673,0-10.009,0
		C62.059,115.803,62.059,117.879,62.059,120.258z M78.758,120.204c3.604,0,6.767,0,9.957,0c0-2.375,0-4.461,0-6.756
		c-3.423,0-6.568,0-9.957,0C78.758,115.781,78.758,117.866,78.758,120.204z"/>
</g>
</svg>
