<?xml version="1.0" encoding="UTF-8"?>
<svg width="57px" height="44px" viewBox="0 0 57 44" version="1.1" xmlns="http://www.w3.org/2000/svg" xmlns:xlink="http://www.w3.org/1999/xlink">
    <!-- Generator: sketchtool 64 (101010) - https://sketch.com -->
    <title>B3FCF987-027C-48F5-A21A-C04FE7F56F14</title>
    <desc>Created with sketchtool.</desc>
    <g id="diseño-alta-Home---responsive" stroke="none" stroke-width="1" fill="none" fill-rule="evenodd">
        <g id="01.-Home-|-Nav-medium-+-Top-notification" transform="translate(-296.000000, -699.000000)" fill="#6F1DF9" fill-rule="nonzero">
            <g id="icon_cerocosto" transform="translate(275.000000, 666.000000)">
                <g id="Group" transform="translate(21.000000, 33.000000)">
                    <path d="M41.692,44.002 C46.5891193,44.002 50.3133992,42.1305252 52.8648395,38.3875756 C55.4162798,34.644626 56.692,29.1725964 56.692,21.9714868 C56.692,14.7703773 55.4162798,9.30851872 52.8648395,5.58591123 C50.3133992,1.86330374 46.5891193,0.002 41.692,0.002 C36.7948807,0.002 33.0706008,1.86330374 30.5191605,5.58591123 C27.9677202,9.30851872 26.692,14.7907194 26.692,22.0325132 C26.692,29.2336227 27.9677202,34.6954813 30.5191605,38.4180888 C33.0706008,42.1406963 36.7948807,44.002 41.692,44.002 Z M41.692,40.6455506 C37.947144,40.6455506 35.1693663,39.1198918 33.3586667,36.0685742 C31.5479671,33.0172566 30.6426173,28.3182275 30.6426173,21.9714868 C30.6426173,15.584062 31.537679,10.8850328 33.3278025,7.87439945 C35.1179259,4.86376607 37.9059918,3.35844938 41.692,3.35844938 C45.4780082,3.35844938 48.2660741,4.86376607 50.0561975,7.87439945 C51.846321,10.8850328 52.7413827,15.584062 52.7413827,21.9714868 C52.7413827,28.3589117 51.846321,33.0681119 50.0561975,36.0990874 C48.2660741,39.1300629 45.4780082,40.6455506 41.692,40.6455506 Z" id="0"></path>
                    <path d="M9.10285271,35.002 L9.10285271,32.0608235 C10.8031111,31.8469198 12.1597003,31.2586845 13.1726202,30.2961176 C14.1855401,29.3335508 14.692,28.1392549 14.692,26.7132299 C14.692,25.5902353 14.4025943,24.690057 13.8237829,24.0126952 C13.2449716,23.3353333 12.5485891,22.8362246 11.7346357,22.515369 C10.9206822,22.1945134 9.85349871,21.8736578 8.53308527,21.5528021 C7.46590181,21.3032478 6.62481654,21.0670624 6.00982946,20.844246 C5.39484238,20.6214296 4.8793385,20.300574 4.46331783,19.8816791 C4.04729716,19.4627843 3.83928682,18.9235686 3.83928682,18.2640321 C3.83928682,17.2836399 4.21008786,16.5126952 4.95168992,15.9511979 C5.69329199,15.3897005 6.68812403,15.1089519 7.93618605,15.1089519 C9.96202584,15.1089519 11.7888992,15.804139 13.4168062,17.1945134 L13.4168062,17.1945134 L14.4206822,15.1624278 C13.7695194,14.5563672 12.9781757,14.0572585 12.0466512,13.6651016 C11.1151266,13.2729447 10.1248165,13.0233904 9.07572093,12.9164385 L9.07572093,12.9164385 L9.07572093,10.002 L6.79665116,10.002 L6.79665116,12.9164385 C5.06021705,13.1125169 3.66293023,13.7141212 2.6047907,14.7212513 C1.54665116,15.7283815 1.0175814,16.9538717 1.0175814,18.3977219 C1.0175814,19.5741925 1.32055297,20.518934 1.92649612,21.2319465 C2.53243928,21.944959 3.26047545,22.4708057 4.11060465,22.8094866 C4.96073385,23.1481676 6.06409302,23.4868485 7.42068217,23.8255294 C8.45168992,24.0929091 9.25659948,24.3246381 9.83541085,24.5207166 C10.4142222,24.716795 10.8980724,24.9975437 11.2869612,25.3629626 C11.6758501,25.7283815 11.8702946,26.2052086 11.8702946,26.7934439 C11.8702946,27.7916613 11.5040155,28.5581497 10.7714574,29.0929091 C10.0388992,29.6276684 9.00336951,29.8950481 7.66486822,29.8950481 C6.52533333,29.8950481 5.47623773,29.7257077 4.5175814,29.3870267 C3.55892506,29.0483458 2.61835659,28.5046738 1.69587597,27.7560107 L1.69587597,27.7560107 L0.692,29.8148342 C1.46977778,30.4921961 2.38321447,31.0224991 3.43231008,31.4057433 C4.48140568,31.7889875 5.61189664,32.0251729 6.82378295,32.1142995 L6.82378295,32.1142995 L6.82378295,35.002 L9.10285271,35.002 Z" id="$"></path>
                </g>
            </g>
        </g>
    </g>
</svg>