<?xml version="1.0" encoding="utf-8"?>
<!-- Generator: Adobe Illustrator 16.0.3, SVG Export Plug-In . SVG Version: 6.00 Build 0)  -->
<!DOCTYPE svg PUBLIC "-//W3C//DTD SVG 1.1//EN" "http://www.w3.org/Graphics/SVG/1.1/DTD/svg11.dtd">
<svg version="1.1" id="Capa_1" xmlns="http://www.w3.org/2000/svg" xmlns:xlink="http://www.w3.org/1999/xlink" x="0px" y="0px"
	 width="100px" height="100px" viewBox="0 0 100 100" enable-background="new 0 0 100 100" xml:space="preserve">
<circle fill="#891182" cx="50" cy="50" r="49"/>
<g>
	<path fill-rule="evenodd" clip-rule="evenodd" fill="#FFFFFF" d="M35.415,43.836c0.108,0,0.189,0,0.27,0
		c10.991,0,21.982,0,32.972-0.001c1.125,0,2.188,0.246,3.161,0.812c1.676,0.975,2.701,2.422,3.077,4.324
		c0.083,0.416,0.104,0.838,0.104,1.263c-0.002,7.334,0,14.668-0.002,22.003c0,0.407,0.002,0.814-0.023,1.22
		c-0.079,1.224-0.494,2.328-1.235,3.303c-1.002,1.319-2.329,2.121-3.96,2.408c-0.271,0.048-0.549,0.056-0.825,0.078
		c-0.098,0.009-0.195,0.004-0.293,0.004c-12.444,0-24.89-0.001-37.334,0.002c-0.909,0-1.785-0.151-2.607-0.535
		c-1.973-0.92-3.184-2.451-3.618-4.59C25.022,73.742,25,73.353,25,72.962c0.002-1.199,0-2.398,0-3.597
		c0-6.396,0.002-12.793-0.002-19.189c0-0.896,0.143-1.763,0.518-2.578c0.935-2.032,2.505-3.264,4.709-3.671
		c0.281-0.052,0.571-0.061,0.856-0.089c0.048-0.005,0.097-0.005,0.168-0.009c0-0.074,0-0.143,0-0.212c0-2.658,0-5.316,0-7.974
		c0-0.738,0-1.476,0-2.213c0-2.932,0.714-5.678,2.163-8.225c1.526-2.684,3.643-4.785,6.328-6.31
		c1.569-0.892,3.243-1.499,5.014-1.842c0.987-0.191,1.985-0.293,2.99-0.298c1.503-0.007,3.006-0.02,4.509,0.002
		c3.661,0.052,6.972,1.167,9.888,3.385c2.949,2.243,4.936,5.158,5.97,8.718c0.274,0.944,0.463,1.907,0.545,2.887
		c0.047,0.562,0.092,1.126,0.083,1.688c-0.013,0.862-0.424,1.511-1.21,1.873c-1.403,0.646-2.924-0.385-2.943-1.835
		c-0.017-1.1-0.137-2.185-0.42-3.25c-1.135-4.275-4.432-7.627-8.688-8.835c-0.758-0.215-1.529-0.364-2.315-0.417
		c-0.433-0.029-0.866-0.051-1.301-0.053c-1.372-0.006-2.745-0.017-4.117,0.003c-4.43,0.067-8.425,2.411-10.654,6.24
		c-0.769,1.321-1.273,2.738-1.516,4.248c-0.105,0.661-0.16,1.324-0.16,1.992c0.001,3.418,0,6.836,0,10.253
		C35.415,43.71,35.415,43.763,35.415,43.836z M50.001,75.085c6.174,0,12.348,0,18.522,0c0.081,0,0.162,0.001,0.243,0
		c0.899-0.009,1.687-0.587,1.963-1.442c0.079-0.244,0.104-0.496,0.104-0.753c0-7.563,0-15.126,0-22.688
		c0-0.043,0.001-0.087-0.001-0.13c-0.028-0.727-0.332-1.305-0.933-1.718c-0.39-0.268-0.83-0.354-1.296-0.354
		C56.201,48,43.8,48,31.397,48c-0.054,0-0.108-0.001-0.163,0c-0.981,0.023-1.794,0.667-2.012,1.612
		c-0.045,0.193-0.055,0.398-0.055,0.597c-0.002,7.558-0.002,15.115-0.002,22.672c0,0.05,0,0.098,0,0.147
		c0.009,0.839,0.516,1.585,1.293,1.903c0.286,0.117,0.583,0.155,0.891,0.155C37.566,75.085,43.784,75.085,50.001,75.085z"/>
	<path fill-rule="evenodd" clip-rule="evenodd" fill="#FFFFFF" d="M52.082,68.827c-1.396,0-2.767,0-4.16,0
		c-0.001-0.072-0.005-0.141-0.005-0.209c0-2.099,0-4.198,0-6.297c0-0.021-0.002-0.044,0.001-0.064
		c0.022-0.156-0.036-0.248-0.175-0.34c-1.068-0.706-1.707-1.692-1.875-2.967c-0.29-2.192,1.21-4.242,3.382-4.631
		c2.265-0.404,4.433,1.094,4.845,3.348c0.305,1.664-0.426,3.345-1.853,4.261c-0.027,0.018-0.053,0.039-0.083,0.052
		c-0.062,0.029-0.085,0.076-0.079,0.144c0.004,0.044,0.001,0.087,0.001,0.131c0,2.12,0,4.241,0,6.362
		C52.082,68.681,52.082,68.744,52.082,68.827z"/>
</g>
</svg>
