<?xml version="1.0" encoding="utf-8"?>
<!-- Generator: Adobe Illustrator 16.0.3, SVG Export Plug-In . SVG Version: 6.00 Build 0)  -->
<!DOCTYPE svg PUBLIC "-//W3C//DTD SVG 1.1//EN" "http://www.w3.org/Graphics/SVG/1.1/DTD/svg11.dtd">
<svg version="1.1" id="Capa_1" xmlns="http://www.w3.org/2000/svg" xmlns:xlink="http://www.w3.org/1999/xlink" x="0px" y="0px"
	 width="32px" height="32px" viewBox="0 0 32 32" enable-background="new 0 0 32 32" xml:space="preserve">
<g id="home">
	<path fill="#FFFFFF" d="M29.71,15l-3-3l0,0l-10-10c-0.389-0.392-1.022-0.395-1.414-0.006C15.294,1.996,15.292,1.998,15.29,2l-10,10
		l0,0l-3,3c-0.392,0.389-0.395,1.022-0.006,1.414c0.002,0.002,0.004,0.004,0.006,0.006c0.389,0.392,1.022,0.395,1.414,0.006
		c0.002-0.002,0.004-0.004,0.006-0.006L5,15.12v13.59c0,0.553,0.448,1,1,1h20c0.553,0,1-0.447,1-1V15.12l1.29,1.3
		c0.389,0.392,1.022,0.395,1.414,0.006c0.002-0.002,0.004-0.004,0.006-0.006c0.392-0.389,0.395-1.022,0.006-1.414
		C29.714,15.004,29.712,15.002,29.71,15z"/>
</g>
</svg>
