<?xml version="1.0" encoding="utf-8"?>
<!-- Generator: Adobe Illustrator 16.0.3, SVG Export Plug-In . SVG Version: 6.00 Build 0)  -->
<!DOCTYPE svg PUBLIC "-//W3C//DTD SVG 1.1//EN" "http://www.w3.org/Graphics/SVG/1.1/DTD/svg11.dtd">
<svg version="1.1" id="Capa_1" xmlns="http://www.w3.org/2000/svg" xmlns:xlink="http://www.w3.org/1999/xlink" x="0px" y="0px"
	 width="384.667px" height="127.333px" viewBox="0 0 384.667 127.333" enable-background="new 0 0 384.667 127.333"
	 xml:space="preserve">
<g>
	<g>
		<defs>
			<circle id="SVGID_1_" cx="69.922" cy="63.028" r="56.693"/>
		</defs>
		<use xlink:href="#SVGID_1_"  overflow="visible" fill="#FFFFFF"/>
		<clipPath id="SVGID_2_">
			<use xlink:href="#SVGID_1_"  overflow="visible"/>
		</clipPath>
		<circle clip-path="url(#SVGID_2_)" fill="#FFFFFF" cx="125.532" cy="119.721" r="56.693"/>
	</g>
	<g>
		<defs>
			<circle id="SVGID_3_" cx="69.922" cy="63.028" r="56.693"/>
		</defs>
		<use xlink:href="#SVGID_3_"  overflow="visible" fill="#FFFFFF"/>
		<clipPath id="SVGID_4_">
			<use xlink:href="#SVGID_3_"  overflow="visible"/>
		</clipPath>
		<circle clip-path="url(#SVGID_4_)" fill="#FFFFFF" cx="125.531" cy="6.335" r="56.693"/>
	</g>
	<g>
		<defs>
			<circle id="SVGID_5_" cx="69.922" cy="63.028" r="56.693"/>
		</defs>
		<use xlink:href="#SVGID_5_"  overflow="visible" fill="#FFFFFF"/>
		<clipPath id="SVGID_6_">
			<use xlink:href="#SVGID_5_"  overflow="visible"/>
		</clipPath>
		<circle clip-path="url(#SVGID_6_)" fill="#FFFFFF" cx="12.146" cy="119.721" r="56.693"/>
	</g>
	<g>
		<defs>
			<circle id="SVGID_7_" cx="69.922" cy="63.028" r="56.693"/>
		</defs>
		<use xlink:href="#SVGID_7_"  overflow="visible" fill="#FFFFFF"/>
		<clipPath id="SVGID_8_">
			<use xlink:href="#SVGID_7_"  overflow="visible"/>
		</clipPath>
		<circle clip-path="url(#SVGID_8_)" fill="#FFFFFF" cx="12.146" cy="6.335" r="56.693"/>
	</g>
</g>
<g>
	<path fill="#FFFFFF" d="M160.863,51.184c-0.461,1.372-1.105,2.495-1.936,3.371c-0.83,0.876-1.814,1.521-2.955,1.936
		c-1.141,0.415-2.392,0.623-3.752,0.623c-1.359,0-2.609-0.208-3.75-0.623c-1.141-0.415-2.126-1.06-2.955-1.936
		c-0.83-0.875-1.481-1.999-1.953-3.371c-0.473-1.371-0.709-3.013-0.709-4.926v-4.459c0-1.913,0.236-3.555,0.709-4.926
		c0.472-1.371,1.123-2.495,1.953-3.371c0.829-0.875,1.814-1.521,2.955-1.936c1.141-0.415,2.391-0.622,3.75-0.622
		c1.36,0,2.611,0.208,3.752,0.622c1.141,0.415,2.125,1.061,2.955,1.936c0.83,0.876,1.475,2,1.936,3.371
		c0.461,1.371,0.691,3.013,0.691,4.926v4.459C161.554,48.171,161.324,49.813,160.863,51.184z M158.339,41.798
		c0-1.452-0.144-2.685-0.43-3.699c-0.287-1.014-0.693-1.844-1.221-2.489s-1.168-1.112-1.925-1.4
		c-0.756-0.288-1.604-0.432-2.544-0.432c-0.94,0-1.787,0.145-2.543,0.432c-0.756,0.289-1.404,0.755-1.943,1.4
		c-0.537,0.645-0.951,1.475-1.236,2.489c-0.287,1.014-0.43,2.247-0.43,3.699v4.459c0,1.452,0.143,2.685,0.43,3.699
		c0.285,1.014,0.699,1.844,1.236,2.489c0.539,0.646,1.188,1.112,1.943,1.4c0.756,0.289,1.604,0.432,2.543,0.432
		c0.939,0,1.788-0.144,2.544-0.432c0.757-0.288,1.397-0.754,1.925-1.4c0.527-0.645,0.934-1.475,1.221-2.489
		c0.286-1.014,0.43-2.247,0.43-3.699V41.798z"/>
	<path fill="#FFFFFF" d="M183.885,56.421c0,0.3-0.149,0.449-0.449,0.449h-2.212c-0.208,0-0.375-0.017-0.502-0.052
		c-0.127-0.035-0.259-0.167-0.397-0.397l-6.188-10.302h-0.312h-0.588c-0.576,0-1.123-0.005-1.642-0.017
		c-0.519-0.011-1.239-0.04-2.16-0.086v10.163c0,0.185-0.058,0.346-0.173,0.484c-0.115,0.138-0.266,0.208-0.449,0.208h-1.867
		c-0.185,0-0.334-0.069-0.449-0.208c-0.115-0.139-0.173-0.299-0.173-0.484V31.981c0-0.253,0.058-0.432,0.173-0.536
		c0.115-0.104,0.334-0.178,0.656-0.225c0.369-0.046,0.801-0.086,1.297-0.121c0.495-0.035,1.014-0.063,1.556-0.086
		c0.541-0.023,1.089-0.04,1.642-0.052c0.553-0.012,1.084-0.018,1.59-0.018c1.36,0,2.633,0.127,3.82,0.381
		c1.187,0.254,2.213,0.668,3.076,1.245c0.865,0.576,1.544,1.337,2.04,2.282c0.495,0.945,0.743,2.121,0.743,3.528v0.242
		c0,0.969-0.133,1.839-0.397,2.611s-0.64,1.447-1.124,2.023c-0.483,0.577-1.06,1.061-1.729,1.453
		c-0.668,0.392-1.395,0.691-2.178,0.899l6.292,10.503C183.851,56.203,183.885,56.306,183.885,56.421z M179.806,38.393
		c0-1.735-0.553-2.938-1.659-3.608c-1.106-0.67-2.743-1.006-4.909-1.006c-0.275,0-0.587,0-0.933,0c-0.346,0-0.697,0.006-1.055,0.018
		c-0.357,0.012-0.697,0.023-1.02,0.035c-0.323,0.012-0.588,0.029-0.795,0.052v9.506c0.761,0.023,1.486,0.041,2.178,0.052
		c0.691,0.012,1.232,0.017,1.624,0.017c1.061,0,2-0.075,2.818-0.225c0.817-0.15,1.504-0.411,2.057-0.78
		c0.553-0.37,0.973-0.868,1.262-1.492c0.287-0.625,0.432-1.399,0.432-2.325V38.393z"/>
	<path fill="#FFFFFF" d="M203.071,56.587c-0.853,0.14-1.804,0.263-2.852,0.368c-1.05,0.104-2.392,0.157-4.027,0.157
		c-1.084,0-2.16-0.19-3.231-0.571c-1.071-0.38-2.028-0.99-2.87-1.832c-0.842-0.841-1.526-1.947-2.057-3.318
		c-0.531-1.371-0.795-3.047-0.795-5.03v-4.632c0-2.097,0.276-3.837,0.829-5.22c0.554-1.383,1.268-2.489,2.144-3.318
		s1.867-1.412,2.973-1.746c1.105-0.334,2.213-0.501,3.318-0.501c1.613,0,2.943,0.052,3.992,0.156s1.906,0.213,2.575,0.328
		c0.161,0.023,0.3,0.069,0.415,0.138c0.115,0.069,0.174,0.196,0.174,0.38v1.729c0,0.23-0.15,0.346-0.449,0.346h-0.14
		c-0.507-0.046-0.997-0.086-1.469-0.121c-0.474-0.035-0.963-0.057-1.47-0.069c-0.508-0.012-1.055-0.023-1.643-0.035
		c-0.588-0.011-1.251-0.018-1.988-0.018c-0.807,0-1.578,0.121-2.314,0.363c-0.738,0.242-1.389,0.667-1.953,1.277
		c-0.565,0.61-1.015,1.421-1.349,2.433c-0.334,1.012-0.501,2.3-0.501,3.865v4.625c0,1.426,0.149,2.64,0.449,3.641
		c0.3,1,0.714,1.823,1.245,2.467c0.529,0.644,1.146,1.11,1.849,1.398c0.703,0.287,1.457,0.431,2.265,0.431
		c1.06,0,1.947-0.022,2.662-0.069c0.714-0.046,1.278-0.092,1.692-0.138v-9.887c0-0.184,0.059-0.346,0.174-0.484
		c0.115-0.138,0.265-0.208,0.449-0.208h1.867c0.184,0,0.34,0.069,0.467,0.208c0.125,0.138,0.188,0.3,0.188,0.484v11.635
		C203.693,56.261,203.486,56.518,203.071,56.587z"/>
	<path fill="#FFFFFF" d="M227.269,56.317c0,0.369-0.196,0.553-0.588,0.553h-2.04c-0.161,0-0.288-0.052-0.38-0.156
		c-0.094-0.104-0.161-0.225-0.207-0.363l-2.247-7.951h-8.953l-2.213,7.951c-0.046,0.138-0.127,0.259-0.242,0.363
		c-0.114,0.104-0.241,0.156-0.38,0.156h-2.039c-0.393,0-0.588-0.184-0.588-0.553c0-0.115,0.011-0.195,0.033-0.242l6.396-22.504
		c0.139-0.53,0.34-0.962,0.604-1.296c0.266-0.334,0.56-0.599,0.883-0.795c0.322-0.195,0.662-0.333,1.02-0.415
		c0.357-0.081,0.697-0.121,1.021-0.121s0.657,0.035,1.003,0.104c0.346,0.069,0.68,0.202,1.002,0.397
		c0.323,0.196,0.617,0.461,0.882,0.795c0.265,0.334,0.468,0.767,0.604,1.296l6.396,22.539
		C227.255,56.122,227.269,56.202,227.269,56.317z M218.003,34.297c-0.114-0.415-0.334-0.622-0.656-0.622
		c-0.346,0-0.576,0.208-0.691,0.622L213.51,45.67h7.64L218.003,34.297z"/>
	<path fill="#FFFFFF" d="M248.791,56.576c-0.193,0.196-0.428,0.294-0.701,0.294h-2.119c-0.555,0-0.924-0.184-1.109-0.553
		l-10.713-20.292c-0.021-0.069-0.059-0.104-0.104-0.104c-0.023,0-0.034,0.035-0.034,0.104v20.188c0,0.185-0.058,0.34-0.173,0.467
		c-0.116,0.127-0.267,0.19-0.449,0.19h-1.799c-0.185,0-0.334-0.022-0.448-0.069c-0.116-0.046-0.173-0.161-0.173-0.346V32.154
		c0-0.276,0.098-0.507,0.294-0.691c0.194-0.184,0.432-0.276,0.708-0.276h1.9c0.485,0,0.81,0.052,0.971,0.155
		c0.162,0.104,0.313,0.283,0.451,0.536l10.644,20.188l0.069,0.104c0.021,0,0.033-0.035,0.033-0.104V31.843
		c0-0.184,0.058-0.34,0.172-0.467c0.113-0.126,0.262-0.19,0.443-0.19h1.813c0.183,0,0.33,0.063,0.443,0.19
		c0.114,0.127,0.172,0.283,0.172,0.467v24.025C249.082,56.144,248.984,56.381,248.791,56.576z"/>
	<path fill="#FFFFFF" d="M257.792,56.663c-0.115,0.138-0.266,0.208-0.449,0.208h-1.901c-0.185,0-0.334-0.069-0.448-0.208
		c-0.115-0.139-0.174-0.299-0.174-0.484V31.843c0-0.184,0.059-0.34,0.174-0.467c0.114-0.126,0.264-0.19,0.448-0.19h1.901
		c0.185,0,0.334,0.063,0.449,0.19c0.114,0.127,0.172,0.283,0.172,0.467v24.336C257.964,56.363,257.908,56.524,257.792,56.663z"/>
	<path fill="#FFFFFF" d="M279.604,56.697c-0.138,0.116-0.3,0.173-0.483,0.173h-13.309c-1.105,0-1.861-0.161-2.266-0.483
		c-0.403-0.322-0.604-0.943-0.604-1.864c0-0.299,0.039-0.645,0.12-1.036c0.081-0.391,0.213-0.713,0.397-0.967l12.375-17.982
		c0.069-0.115,0.104-0.208,0.104-0.277c0-0.161-0.114-0.241-0.346-0.241h-11.478c-0.185,0-0.346-0.052-0.484-0.157
		c-0.137-0.105-0.207-0.25-0.207-0.438V31.78c0-0.187,0.07-0.333,0.207-0.437c0.14-0.105,0.301-0.158,0.484-0.158h12.307
		c0.969,0,1.699,0.144,2.195,0.432c0.495,0.288,0.743,0.905,0.743,1.849c0,0.323-0.047,0.68-0.139,1.072
		c-0.093,0.392-0.229,0.714-0.415,0.968l-12.342,18.01c-0.068,0.092-0.104,0.196-0.104,0.311c0,0.138,0.115,0.208,0.346,0.208h12.41
		c0.185,0,0.346,0.052,0.483,0.155c0.14,0.104,0.208,0.248,0.208,0.432v1.625C279.812,56.433,279.744,56.582,279.604,56.697z"/>
	<path fill="#FFFFFF" d="M302.523,56.317c0,0.369-0.195,0.553-0.588,0.553h-2.04c-0.161,0-0.288-0.052-0.38-0.156
		c-0.094-0.104-0.161-0.225-0.207-0.363l-2.247-7.951h-8.953l-2.213,7.951c-0.046,0.138-0.127,0.259-0.242,0.363
		c-0.114,0.104-0.241,0.156-0.38,0.156h-2.039c-0.393,0-0.588-0.184-0.588-0.553c0-0.115,0.011-0.195,0.034-0.242l6.396-22.504
		c0.139-0.53,0.34-0.962,0.604-1.296s0.559-0.599,0.882-0.795c0.322-0.195,0.662-0.333,1.02-0.415
		c0.357-0.081,0.697-0.121,1.021-0.121s0.657,0.035,1.003,0.104c0.346,0.069,0.68,0.202,1.002,0.397
		c0.322,0.196,0.617,0.461,0.882,0.795c0.265,0.334,0.468,0.767,0.604,1.296l6.396,22.539
		C302.51,56.122,302.523,56.202,302.523,56.317z M293.257,34.297c-0.114-0.415-0.334-0.622-0.656-0.622
		c-0.346,0-0.576,0.208-0.691,0.622l-3.146,11.373h7.64L293.257,34.297z"/>
	<path fill="#FFFFFF" d="M320.948,56.438c-0.139,0.104-0.3,0.179-0.483,0.225c-0.369,0.069-0.737,0.133-1.106,0.19
		c-0.368,0.057-0.771,0.104-1.209,0.138c-0.438,0.035-0.935,0.063-1.487,0.086c-0.553,0.022-1.197,0.035-1.936,0.035
		c-1.061,0-2.132-0.162-3.215-0.484c-1.083-0.322-2.063-0.893-2.938-1.711c-0.876-0.818-1.59-1.913-2.143-3.284
		c-0.554-1.371-0.83-3.105-0.83-5.202v-4.805c0-2.12,0.276-3.866,0.83-5.237c0.553-1.371,1.267-2.459,2.143-3.267
		c0.876-0.806,1.855-1.371,2.938-1.694c1.083-0.322,2.154-0.484,3.215-0.484c1.105,0,2.161,0.064,3.163,0.19
		c1.003,0.126,1.884,0.248,2.646,0.363c0.367,0.046,0.553,0.196,0.553,0.449v1.763c0,0.116-0.022,0.208-0.068,0.276
		c-0.047,0.069-0.162,0.104-0.346,0.104h-0.104c-0.3-0.023-0.68-0.052-1.141-0.086c-0.462-0.035-0.95-0.069-1.47-0.104
		c-0.519-0.035-1.055-0.063-1.606-0.086c-0.554-0.022-1.084-0.035-1.59-0.035c-0.854,0-1.644,0.133-2.368,0.398
		c-0.727,0.265-1.359,0.703-1.9,1.313c-0.543,0.611-0.969,1.417-1.279,2.419c-0.312,1.003-0.467,2.242-0.467,3.716v4.805
		c0,1.452,0.155,2.679,0.467,3.681s0.736,1.81,1.279,2.42c0.541,0.611,1.174,1.054,1.9,1.331c0.727,0.276,1.516,0.415,2.368,0.415
		c0.483,0,0.995-0.011,1.538-0.034c0.541-0.023,1.07-0.046,1.59-0.069s1.003-0.052,1.451-0.086c0.449-0.034,0.824-0.063,1.123-0.086
		h0.14c0.368,0,0.553,0.185,0.553,0.553v1.417C321.155,56.179,321.085,56.334,320.948,56.438z"/>
	<path fill="#FFFFFF" d="M328.378,56.663c-0.114,0.138-0.266,0.208-0.448,0.208h-1.901c-0.185,0-0.334-0.069-0.449-0.208
		c-0.115-0.138-0.173-0.299-0.173-0.484V31.843c0-0.184,0.058-0.34,0.173-0.467c0.115-0.126,0.266-0.19,0.449-0.19h1.901
		c0.184,0,0.334,0.063,0.448,0.19c0.115,0.127,0.174,0.283,0.174,0.467v24.336C328.552,56.363,328.496,56.524,328.378,56.663z"/>
	<path fill="#FFFFFF" d="M351.679,51.184c-0.463,1.372-1.106,2.495-1.938,3.371c-0.828,0.876-1.813,1.521-2.955,1.936
		c-1.141,0.415-2.392,0.623-3.75,0.623c-1.359,0-2.609-0.208-3.75-0.623c-1.143-0.415-2.127-1.06-2.957-1.936
		c-0.83-0.875-1.48-1.999-1.953-3.371c-0.473-1.371-0.709-3.013-0.709-4.926v-4.459c0-1.913,0.236-3.555,0.709-4.926
		s1.123-2.495,1.953-3.371c0.83-0.875,1.814-1.521,2.957-1.936c1.141-0.415,2.391-0.622,3.75-0.622c1.358,0,2.609,0.208,3.75,0.622
		c1.142,0.415,2.127,1.061,2.955,1.936c0.83,0.876,1.475,2,1.938,3.371c0.46,1.371,0.691,3.013,0.691,4.926v4.459
		C352.371,48.171,352.139,49.813,351.679,51.184z M349.156,41.798c0-1.452-0.144-2.685-0.431-3.699
		c-0.286-1.014-0.692-1.844-1.22-2.489c-0.528-0.645-1.17-1.112-1.926-1.4s-1.604-0.432-2.543-0.432
		c-0.94,0-1.789,0.145-2.545,0.432c-0.756,0.289-1.402,0.755-1.941,1.4c-0.538,0.645-0.951,1.475-1.237,2.489
		c-0.286,1.014-0.431,2.247-0.431,3.699v4.459c0,1.452,0.145,2.685,0.431,3.699s0.699,1.844,1.237,2.489
		c0.539,0.646,1.187,1.112,1.941,1.4c0.756,0.289,1.604,0.432,2.545,0.432c0.939,0,1.786-0.144,2.543-0.432
		c0.756-0.288,1.397-0.754,1.926-1.4c0.527-0.645,0.934-1.475,1.22-2.489c0.287-1.014,0.431-2.247,0.431-3.699V41.798z
		 M347.392,24.272c0,0.092-0.046,0.185-0.139,0.276l-3.905,4.355c-0.162,0.185-0.289,0.317-0.382,0.397
		c-0.092,0.081-0.229,0.121-0.413,0.121h-1.867c-0.207,0-0.312-0.081-0.312-0.242c0-0.139,0.047-0.253,0.139-0.346l3.388-4.287
		c0.161-0.184,0.288-0.316,0.381-0.397s0.241-0.121,0.449-0.121h2.281C347.265,24.03,347.392,24.111,347.392,24.272z"/>
	<path fill="#FFFFFF" d="M374.962,56.576c-0.193,0.196-0.428,0.294-0.7,0.294h-2.119c-0.556,0-0.925-0.184-1.108-0.553
		l-10.714-20.292c-0.022-0.069-0.059-0.104-0.104-0.104c-0.021,0-0.033,0.035-0.033,0.104v20.188c0,0.185-0.059,0.34-0.173,0.467
		c-0.115,0.127-0.267,0.19-0.449,0.19h-1.798c-0.186,0-0.334-0.022-0.449-0.069c-0.115-0.046-0.173-0.161-0.173-0.346V32.154
		c0-0.276,0.098-0.507,0.294-0.691c0.195-0.184,0.432-0.276,0.709-0.276h1.9c0.484,0,0.809,0.052,0.971,0.155
		c0.162,0.104,0.313,0.283,0.451,0.536l10.643,20.188l0.069,0.104c0.022,0,0.034-0.035,0.034-0.104V31.843
		c0-0.184,0.058-0.34,0.17-0.467c0.115-0.126,0.264-0.19,0.445-0.19h1.813c0.182,0,0.33,0.063,0.443,0.19s0.172,0.283,0.172,0.467
		v24.025C375.253,56.144,375.158,56.381,374.962,56.576z"/>
	<path fill="#FFFFFF" d="M157.095,80.234c-0.138,0.138-0.3,0.205-0.483,0.205h-10.613v11.336c0,0.185-0.068,0.347-0.207,0.485
		s-0.3,0.208-0.484,0.208h-1.763c-0.185,0-0.346-0.069-0.483-0.208c-0.139-0.139-0.208-0.299-0.208-0.484V72.972
		c0-2.304,0.616-3.952,1.85-4.943c1.232-0.989,3.07-1.485,5.514-1.485c0.507,0,1.077,0.006,1.711,0.018
		c0.634,0.012,1.262,0.023,1.884,0.034c0.623,0.012,1.21,0.028,1.764,0.052c0.553,0.023,1.014,0.059,1.383,0.104
		c0.114,0.023,0.201,0.082,0.259,0.174c0.058,0.092,0.087,0.195,0.087,0.311v1.729c0,0.276-0.127,0.416-0.381,0.416h-6.672
		c-0.922,0-1.659,0.063-2.213,0.189c-0.553,0.127-0.979,0.334-1.278,0.622c-0.3,0.289-0.501,0.657-0.604,1.106
		c-0.104,0.449-0.156,1.008-0.156,1.676v4.805h10.613c0.184,0,0.346,0.068,0.483,0.205c0.138,0.137,0.208,0.296,0.208,0.479v1.295
		C157.303,79.939,157.233,80.098,157.095,80.234z"/>
	<path fill="#FFFFFF" d="M176.263,92.365c-0.058,0.093-0.145,0.149-0.259,0.173c-0.324,0.047-0.762,0.074-1.314,0.086
		c-0.553,0.012-1.146,0.028-1.779,0.053c-0.635,0.021-1.274,0.035-1.92,0.035c-0.645,0-1.221,0-1.728,0
		c-2.443,0-4.281-0.496-5.514-1.487c-1.233-0.99-1.85-2.638-1.85-4.943V72.972c0-2.304,0.616-3.952,1.85-4.943
		c1.232-0.989,3.07-1.485,5.514-1.485c0.507,0,1.077,0.006,1.711,0.018c0.634,0.012,1.262,0.023,1.884,0.034
		c0.623,0.012,1.21,0.028,1.764,0.052c0.553,0.023,1.014,0.059,1.383,0.104c0.114,0.023,0.201,0.082,0.259,0.174
		c0.058,0.092,0.087,0.195,0.087,0.311v1.729c0,0.276-0.127,0.416-0.381,0.416h-6.672c-0.922,0-1.659,0.063-2.213,0.189
		c-0.553,0.127-0.979,0.334-1.278,0.622c-0.3,0.289-0.501,0.657-0.604,1.106c-0.104,0.449-0.156,1.008-0.156,1.676v4.805h10.613
		c0.184,0,0.346,0.068,0.483,0.205c0.138,0.137,0.208,0.296,0.208,0.479v1.295c0,0.184-0.07,0.343-0.208,0.479
		c-0.138,0.137-0.3,0.205-0.483,0.205h-10.613v5.829c0,0.647,0.053,1.203,0.156,1.665c0.104,0.463,0.305,0.839,0.604,1.128
		c0.299,0.289,0.726,0.497,1.278,0.625c0.554,0.127,1.291,0.19,2.213,0.19h6.672c0.254,0,0.381,0.138,0.381,0.414v1.764
		C176.35,92.168,176.321,92.273,176.263,92.365z"/>
	<path fill="#FFFFFF" d="M198.507,92.02c0,0.3-0.149,0.449-0.449,0.449h-2.212c-0.208,0-0.375-0.018-0.501-0.053
		c-0.127-0.035-0.26-0.166-0.398-0.396l-6.188-10.301h-0.311h-0.588c-0.576,0-1.124-0.006-1.643-0.018s-1.239-0.041-2.16-0.087
		v10.163c0,0.186-0.058,0.346-0.173,0.484c-0.115,0.138-0.266,0.208-0.449,0.208h-1.867c-0.185,0-0.334-0.069-0.449-0.208
		c-0.115-0.139-0.173-0.299-0.173-0.484V67.581c0-0.254,0.058-0.433,0.173-0.537c0.115-0.104,0.334-0.178,0.656-0.225
		c0.369-0.046,0.801-0.086,1.297-0.121c0.495-0.035,1.014-0.063,1.556-0.086c0.541-0.023,1.089-0.04,1.642-0.052
		c0.554-0.013,1.084-0.019,1.591-0.019c1.359,0,2.633,0.127,3.819,0.381c1.186,0.255,2.213,0.668,3.077,1.246
		c0.863,0.576,1.543,1.336,2.039,2.281c0.494,0.945,0.742,2.121,0.742,3.528v0.242c0,0.969-0.133,1.839-0.396,2.61
		c-0.264,0.772-0.641,1.447-1.123,2.023c-0.484,0.577-1.061,1.061-1.729,1.453c-0.67,0.393-1.396,0.691-2.179,0.898l6.291,10.504
		C198.473,91.801,198.507,91.905,198.507,92.02z M194.428,73.993c0-1.736-0.554-2.938-1.659-3.609
		c-1.105-0.67-2.742-1.006-4.908-1.006c-0.276,0-0.588,0-0.934,0c-0.346,0-0.697,0.006-1.055,0.019
		c-0.357,0.013-0.697,0.022-1.02,0.035c-0.323,0.012-0.588,0.028-0.795,0.052v9.506c0.761,0.023,1.486,0.041,2.178,0.053
		c0.691,0.012,1.232,0.017,1.625,0.017c1.06,0,1.999-0.075,2.817-0.226c0.817-0.149,1.504-0.41,2.057-0.779
		c0.553-0.37,0.975-0.868,1.262-1.492c0.289-0.624,0.433-1.398,0.433-2.325V73.993z"/>
	<path fill="#FFFFFF" d="M220.375,92.174c-0.192,0.197-0.428,0.295-0.701,0.295h-2.118c-0.556,0-0.925-0.184-1.109-0.553
		l-10.713-20.293c-0.022-0.068-0.058-0.104-0.104-0.104c-0.022,0-0.034,0.035-0.034,0.104v20.188c0,0.185-0.058,0.34-0.173,0.467
		s-0.266,0.19-0.449,0.19h-1.799c-0.185,0-0.334-0.022-0.448-0.069c-0.115-0.046-0.173-0.161-0.173-0.346V67.752
		c0-0.276,0.098-0.508,0.294-0.691c0.194-0.184,0.433-0.275,0.709-0.275h1.901c0.483,0,0.809,0.051,0.971,0.154
		c0.16,0.104,0.312,0.283,0.449,0.536l10.645,20.188l0.068,0.104c0.022,0,0.035-0.035,0.035-0.104V67.441
		c0-0.185,0.057-0.34,0.17-0.467c0.113-0.126,0.263-0.19,0.444-0.19h1.812c0.183,0,0.33,0.063,0.443,0.19
		c0.114,0.127,0.172,0.282,0.172,0.467v24.024C220.667,91.743,220.569,91.979,220.375,92.174z"/>
	<path fill="#FFFFFF" d="M244.242,91.917c0,0.369-0.195,0.553-0.588,0.553h-2.04c-0.161,0-0.288-0.053-0.38-0.156
		c-0.093-0.104-0.161-0.225-0.207-0.363L238.78,84h-8.952l-2.214,7.951c-0.046,0.137-0.127,0.258-0.241,0.362
		c-0.115,0.104-0.242,0.156-0.381,0.156h-2.039c-0.393,0-0.588-0.185-0.588-0.554c0-0.114,0.012-0.194,0.034-0.242l6.396-22.504
		c0.139-0.529,0.34-0.961,0.604-1.295s0.56-0.6,0.882-0.795s0.662-0.334,1.02-0.416c0.357-0.08,0.697-0.121,1.021-0.121
		s0.657,0.035,1.003,0.104s0.68,0.202,1.002,0.397c0.323,0.195,0.617,0.461,0.883,0.795c0.265,0.334,0.467,0.767,0.604,1.296
		l6.396,22.538C244.229,91.72,244.242,91.801,244.242,91.917z M234.977,69.896c-0.115-0.415-0.334-0.622-0.657-0.622
		c-0.346,0-0.576,0.208-0.691,0.622l-3.146,11.373h7.64L234.977,69.896z M239.576,59.871c0,0.092-0.048,0.185-0.14,0.276
		l-3.906,4.355c-0.161,0.185-0.288,0.316-0.38,0.396c-0.093,0.081-0.23,0.121-0.415,0.121h-1.866c-0.207,0-0.312-0.081-0.312-0.242
		c0-0.139,0.046-0.253,0.139-0.346l3.388-4.287c0.162-0.184,0.287-0.316,0.381-0.397c0.092-0.081,0.242-0.121,0.449-0.121h2.28
		C239.448,59.629,239.576,59.71,239.576,59.871z"/>
	<path fill="#FFFFFF" d="M265.763,92.174c-0.193,0.197-0.428,0.295-0.701,0.295h-2.119c-0.556,0-0.925-0.184-1.109-0.553
		l-10.713-20.293c-0.022-0.068-0.058-0.104-0.104-0.104c-0.023,0-0.035,0.035-0.035,0.104v20.188c0,0.185-0.059,0.34-0.173,0.467
		c-0.115,0.127-0.265,0.19-0.449,0.19h-1.798c-0.186,0-0.334-0.022-0.449-0.069c-0.115-0.046-0.173-0.161-0.173-0.346V67.752
		c0-0.276,0.099-0.508,0.294-0.691s0.434-0.275,0.709-0.275h1.901c0.483,0,0.809,0.051,0.971,0.154
		c0.161,0.104,0.312,0.283,0.45,0.536l10.645,20.188l0.067,0.104c0.022,0,0.035-0.035,0.035-0.104V67.441
		c0-0.185,0.057-0.34,0.171-0.467c0.113-0.126,0.262-0.19,0.443-0.19h1.813c0.182,0,0.33,0.063,0.443,0.19s0.172,0.282,0.172,0.467
		v24.024C266.054,91.743,265.957,91.979,265.763,92.174z"/>
	<path fill="#FFFFFF" d="M288.195,86.749c-0.496,1.348-1.199,2.465-2.109,3.353s-2.01,1.544-3.301,1.971s-2.73,0.64-4.32,0.64
		c-0.646,0-1.291-0.012-1.937-0.034c-0.646-0.023-1.251-0.052-1.815-0.087c-0.563-0.033-1.064-0.068-1.502-0.104
		c-0.438-0.033-0.785-0.074-1.037-0.121c-0.484-0.068-0.728-0.357-0.728-0.863v-23.75c0-0.508,0.242-0.795,0.728-0.864
		c0.252-0.046,0.599-0.086,1.037-0.121c0.438-0.034,0.938-0.069,1.502-0.104c0.565-0.035,1.17-0.063,1.815-0.086
		c0.646-0.022,1.29-0.035,1.937-0.035c1.59,0,3.029,0.209,4.32,0.623s2.391,1.065,3.301,1.953c0.91,0.887,1.613,2.004,2.109,3.354
		c0.495,1.348,0.743,2.956,0.743,4.822v4.666C288.938,83.804,288.69,85.399,288.195,86.749z M285.792,77.272
		c0-1.568-0.185-2.873-0.551-3.913c-0.369-1.039-0.88-1.864-1.535-2.476c-0.653-0.612-1.43-1.045-2.326-1.299
		c-0.896-0.254-1.859-0.381-2.895-0.381c-0.804,0-1.499,0.006-2.085,0.018s-1.166,0.041-1.739,0.086v20.637
		c0.551,0.046,1.125,0.069,1.724,0.069c0.597,0,1.298,0,2.102,0c1.034,0,1.999-0.126,2.896-0.38
		c0.896-0.254,1.672-0.692,2.326-1.316s1.166-1.454,1.533-2.492c0.367-1.039,0.551-2.332,0.551-3.879V77.272L285.792,77.272z"/>
	<path fill="#FFFFFF" d="M307.966,92.365c-0.057,0.093-0.145,0.149-0.258,0.173c-0.323,0.047-0.762,0.074-1.313,0.086
		c-0.554,0.012-1.147,0.028-1.78,0.053c-0.635,0.021-1.273,0.035-1.919,0.035s-1.222,0-1.729,0c-2.442,0-4.28-0.496-5.514-1.487
		c-1.232-0.99-1.85-2.638-1.85-4.943V72.972c0-2.304,0.616-3.952,1.85-4.943c1.232-0.989,3.07-1.485,5.514-1.485
		c0.508,0,1.078,0.006,1.712,0.018s1.262,0.023,1.884,0.034c0.623,0.012,1.21,0.028,1.764,0.052
		c0.553,0.023,1.014,0.059,1.383,0.104c0.115,0.023,0.201,0.082,0.26,0.174c0.058,0.092,0.087,0.195,0.087,0.311v1.729
		c0,0.276-0.127,0.416-0.382,0.416h-6.672c-0.922,0-1.658,0.063-2.211,0.189c-0.554,0.127-0.979,0.334-1.279,0.622
		c-0.301,0.289-0.501,0.657-0.604,1.106c-0.104,0.449-0.156,1.008-0.156,1.676v4.805h10.612c0.185,0,0.347,0.068,0.483,0.205
		c0.139,0.137,0.208,0.296,0.208,0.479v1.295c0,0.184-0.069,0.343-0.208,0.479c-0.139,0.137-0.301,0.205-0.483,0.205H296.75v5.829
		c0,0.647,0.054,1.203,0.156,1.665c0.104,0.463,0.305,0.839,0.604,1.128c0.299,0.289,0.727,0.497,1.278,0.625
		c0.553,0.128,1.291,0.19,2.213,0.19h6.672c0.254,0,0.381,0.138,0.381,0.414v1.764C308.054,92.168,308.025,92.273,307.966,92.365z"
		/>
	<path fill="#FFFFFF" d="M328.552,92.295c-0.139,0.117-0.301,0.174-0.483,0.174H314.76c-1.106,0-1.861-0.161-2.265-0.483
		c-0.404-0.321-0.604-0.942-0.604-1.864c0-0.299,0.039-0.645,0.12-1.035c0.08-0.392,0.213-0.713,0.398-0.967l12.375-17.982
		c0.068-0.115,0.104-0.208,0.104-0.277c0-0.161-0.115-0.24-0.346-0.24h-11.478c-0.185,0-0.346-0.053-0.483-0.158
		c-0.139-0.104-0.207-0.25-0.207-0.438v-1.645c0-0.188,0.068-0.334,0.207-0.438c0.139-0.105,0.299-0.158,0.483-0.158h12.308
		c0.967,0,1.698,0.145,2.193,0.432c0.496,0.289,0.744,0.906,0.744,1.85c0,0.323-0.047,0.68-0.139,1.072
		c-0.094,0.392-0.23,0.714-0.416,0.968l-12.34,18.01c-0.069,0.093-0.104,0.196-0.104,0.312c0,0.138,0.114,0.207,0.346,0.207h12.41
		c0.185,0,0.347,0.053,0.483,0.156c0.139,0.104,0.207,0.248,0.207,0.432v1.625C328.76,92.031,328.691,92.181,328.552,92.295z"/>
</g>
<g>
	<path fill="#FFFFFF" d="M148.369,110.817c0,0.114-0.061,0.171-0.181,0.171h-0.63c-0.051,0-0.089-0.016-0.118-0.048
		c-0.028-0.031-0.05-0.068-0.063-0.111l-0.694-2.457h-2.766l-0.684,2.457c-0.014,0.041-0.039,0.08-0.074,0.111
		c-0.036,0.032-0.075,0.048-0.117,0.048h-0.63c-0.122,0-0.183-0.057-0.183-0.171c0-0.035,0.004-0.061,0.012-0.074l1.975-6.951
		c0.043-0.164,0.104-0.297,0.187-0.4c0.082-0.104,0.173-0.186,0.273-0.246c0.099-0.061,0.204-0.104,0.314-0.128
		c0.11-0.024,0.216-0.038,0.314-0.038c0.1,0,0.203,0.011,0.311,0.032c0.106,0.021,0.209,0.063,0.31,0.122
		c0.1,0.062,0.19,0.144,0.272,0.246c0.081,0.104,0.144,0.238,0.187,0.4l1.976,6.963
		C148.366,110.756,148.369,110.782,148.369,110.817z M145.507,104.016c-0.035-0.128-0.104-0.191-0.203-0.191
		c-0.105,0-0.178,0.063-0.213,0.191l-0.972,3.513h2.36L145.507,104.016z"/>
	<path fill="#FFFFFF" d="M157.221,108.928c0,0.256-0.039,0.511-0.117,0.764s-0.216,0.48-0.411,0.684
		c-0.195,0.203-0.464,0.369-0.806,0.496c-0.343,0.129-0.776,0.192-1.304,0.192c-0.377,0-0.708-0.017-0.992-0.048
		c-0.285-0.032-0.545-0.064-0.78-0.102c-0.092-0.015-0.149-0.035-0.17-0.063c-0.021-0.029-0.033-0.071-0.033-0.128v-0.428
		c0-0.057,0.019-0.1,0.054-0.127c0.035-0.028,0.079-0.043,0.129-0.043h0.032c0.12,0.008,0.258,0.017,0.41,0.026
		c0.153,0.011,0.31,0.019,0.471,0.021c0.159,0.004,0.315,0.008,0.47,0.012c0.152,0.003,0.29,0.005,0.41,0.005
		c0.321,0,0.586-0.03,0.796-0.091s0.375-0.146,0.497-0.256c0.121-0.11,0.206-0.244,0.256-0.4c0.05-0.156,0.075-0.328,0.075-0.513
		c0-0.136-0.021-0.259-0.064-0.369s-0.114-0.22-0.214-0.326c-0.1-0.106-0.23-0.219-0.395-0.336
		c-0.164-0.118-0.367-0.251-0.608-0.399l-1.036-0.631c-0.491-0.299-0.86-0.6-1.105-0.902c-0.245-0.301-0.368-0.666-0.368-1.094
		c0-0.647,0.223-1.125,0.667-1.431c0.445-0.306,1.077-0.459,1.896-0.459c0.157,0,0.322,0.004,0.497,0.011
		c0.174,0.008,0.345,0.016,0.512,0.027c0.167,0.01,0.326,0.025,0.476,0.042c0.149,0.019,0.274,0.034,0.374,0.048
		c0.121,0.021,0.181,0.082,0.181,0.182v0.459c0,0.114-0.06,0.17-0.181,0.17h-0.021c-0.235-0.014-0.521-0.027-0.859-0.041
		c-0.339-0.015-0.664-0.021-0.978-0.021c-0.555,0-0.955,0.071-1.201,0.214c-0.246,0.142-0.369,0.409-0.369,0.802
		c0,0.127,0.024,0.244,0.07,0.347s0.115,0.204,0.207,0.304s0.213,0.201,0.362,0.305c0.149,0.104,0.323,0.215,0.521,0.336
		l0.979,0.586c0.313,0.186,0.574,0.363,0.783,0.535c0.209,0.17,0.382,0.342,0.517,0.512c0.135,0.172,0.23,0.35,0.287,0.535
		C157.193,108.515,157.221,108.713,157.221,108.928z"/>
	<path fill="#FFFFFF" d="M166.228,110.958c-0.018,0.028-0.044,0.045-0.08,0.053c-0.1,0.014-0.234,0.023-0.405,0.027
		c-0.171,0.004-0.354,0.008-0.55,0.016c-0.196,0.007-0.394,0.011-0.593,0.011c-0.199,0-0.377,0-0.534,0
		c-0.755,0-1.322-0.153-1.703-0.459c-0.381-0.306-0.571-0.815-0.571-1.526v-4.111c0-0.713,0.19-1.221,0.571-1.527
		c0.381-0.307,0.948-0.459,1.703-0.459c0.157,0,0.333,0.002,0.528,0.005c0.196,0.004,0.391,0.007,0.582,0.011
		c0.192,0.004,0.374,0.01,0.545,0.017c0.171,0.007,0.313,0.018,0.427,0.032c0.036,0.007,0.063,0.024,0.08,0.054
		c0.019,0.028,0.027,0.062,0.027,0.096v0.534c0,0.085-0.04,0.128-0.117,0.128h-2.062c-0.285,0-0.513,0.021-0.684,0.06
		s-0.302,0.103-0.395,0.191c-0.093,0.089-0.155,0.203-0.188,0.342c-0.031,0.139-0.048,0.313-0.048,0.518v1.484h3.278
		c0.057,0,0.106,0.021,0.149,0.063s0.064,0.091,0.064,0.147v0.4c0,0.057-0.021,0.105-0.064,0.146
		c-0.043,0.043-0.093,0.063-0.149,0.063h-3.278v1.802c0,0.199,0.017,0.371,0.048,0.514c0.032,0.143,0.095,0.259,0.188,0.349
		c0.093,0.089,0.224,0.153,0.395,0.192c0.171,0.041,0.398,0.06,0.684,0.06h2.062c0.077,0,0.117,0.042,0.117,0.128v0.544
		C166.255,110.896,166.247,110.928,166.228,110.958z"/>
	<path fill="#FFFFFF" d="M175.384,108.928c0,0.256-0.039,0.511-0.117,0.764s-0.216,0.48-0.411,0.684s-0.464,0.369-0.806,0.496
		c-0.343,0.129-0.776,0.192-1.304,0.192c-0.377,0-0.708-0.017-0.992-0.048c-0.285-0.032-0.545-0.064-0.78-0.102
		c-0.092-0.015-0.149-0.035-0.17-0.063c-0.021-0.029-0.033-0.071-0.033-0.128v-0.428c0-0.057,0.019-0.1,0.054-0.127
		c0.035-0.028,0.079-0.043,0.129-0.043h0.032c0.12,0.008,0.258,0.017,0.41,0.026c0.153,0.011,0.31,0.019,0.471,0.021
		c0.159,0.004,0.315,0.008,0.47,0.012c0.152,0.003,0.29,0.005,0.41,0.005c0.321,0,0.586-0.03,0.796-0.091s0.375-0.146,0.497-0.256
		c0.121-0.11,0.206-0.244,0.256-0.4c0.05-0.156,0.075-0.328,0.075-0.513c0-0.136-0.021-0.259-0.064-0.369s-0.114-0.22-0.214-0.326
		c-0.1-0.106-0.23-0.219-0.395-0.336c-0.164-0.118-0.367-0.251-0.608-0.399l-1.036-0.631c-0.491-0.299-0.86-0.6-1.105-0.902
		c-0.245-0.301-0.368-0.666-0.368-1.094c0-0.647,0.223-1.125,0.667-1.431c0.445-0.306,1.077-0.459,1.896-0.459
		c0.157,0,0.322,0.004,0.497,0.011c0.174,0.008,0.345,0.016,0.512,0.027c0.167,0.01,0.326,0.025,0.476,0.042
		c0.149,0.019,0.274,0.034,0.374,0.048c0.121,0.021,0.181,0.082,0.181,0.182v0.459c0,0.114-0.06,0.17-0.181,0.17h-0.021
		c-0.235-0.014-0.521-0.027-0.859-0.041c-0.339-0.015-0.664-0.021-0.978-0.021c-0.555,0-0.955,0.071-1.201,0.214
		c-0.246,0.142-0.369,0.409-0.369,0.802c0,0.127,0.024,0.244,0.07,0.347s0.115,0.204,0.207,0.304c0.092,0.1,0.213,0.201,0.362,0.305
		s0.323,0.215,0.521,0.336l0.979,0.586c0.313,0.186,0.574,0.363,0.783,0.535c0.209,0.17,0.382,0.342,0.517,0.512
		c0.135,0.172,0.23,0.35,0.287,0.535C175.356,108.515,175.384,108.713,175.384,108.928z"/>
	<path fill="#FFFFFF" d="M185.326,109.232c-0.143,0.423-0.342,0.771-0.598,1.041c-0.257,0.271-0.561,0.47-0.913,0.599
		s-0.739,0.191-1.159,0.191c-0.42,0-0.806-0.064-1.158-0.191c-0.352-0.129-0.656-0.328-0.913-0.599
		c-0.256-0.271-0.457-0.618-0.604-1.041c-0.146-0.424-0.218-0.931-0.218-1.522v-1.377c0-0.59,0.072-1.098,0.218-1.521
		c0.146-0.423,0.348-0.77,0.604-1.041c0.257-0.271,0.562-0.469,0.913-0.598c0.353-0.129,0.738-0.192,1.158-0.192
		c0.42,0,0.807,0.063,1.159,0.192c0.352,0.127,0.656,0.326,0.913,0.598c0.256,0.271,0.455,0.618,0.598,1.041
		c0.143,0.424,0.214,0.932,0.214,1.521v1.377C185.54,108.301,185.468,108.809,185.326,109.232z M184.546,106.333
		c0-0.447-0.045-0.83-0.133-1.143s-0.214-0.568-0.377-0.77c-0.163-0.198-0.361-0.342-0.595-0.432
		c-0.234-0.089-0.495-0.134-0.786-0.134c-0.289,0-0.552,0.045-0.785,0.134c-0.233,0.09-0.434,0.233-0.6,0.432
		c-0.167,0.201-0.294,0.457-0.383,0.77c-0.088,0.313-0.133,0.693-0.133,1.143v1.377c0,0.449,0.045,0.83,0.133,1.144
		c0.089,0.313,0.216,0.569,0.383,0.769c0.166,0.199,0.366,0.344,0.6,0.433s0.496,0.134,0.785,0.134c0.291,0,0.553-0.045,0.786-0.134
		s0.432-0.233,0.595-0.433s0.289-0.455,0.377-0.769s0.133-0.694,0.133-1.144V106.333z"/>
	<path fill="#FFFFFF" d="M195.641,110.85c0,0.092-0.047,0.139-0.14,0.139h-0.684c-0.064,0-0.115-0.005-0.154-0.016
		c-0.039-0.012-0.08-0.051-0.123-0.123l-1.912-3.184h-0.096h-0.182c-0.178,0-0.347,0-0.508-0.004
		c-0.16-0.004-0.382-0.014-0.667-0.027v3.14c0,0.058-0.018,0.106-0.053,0.149c-0.036,0.041-0.082,0.063-0.14,0.063h-0.576
		c-0.058,0-0.104-0.021-0.139-0.063s-0.054-0.094-0.054-0.149v-7.476c0-0.078,0.019-0.133,0.054-0.166
		c0.035-0.031,0.103-0.055,0.203-0.068c0.113-0.014,0.246-0.025,0.4-0.038c0.152-0.01,0.313-0.019,0.48-0.026
		c0.166-0.006,0.336-0.012,0.507-0.016c0.171-0.003,0.335-0.005,0.491-0.005c0.42,0,0.813,0.04,1.18,0.118
		c0.367,0.079,0.684,0.207,0.95,0.385s0.478,0.413,0.631,0.705c0.152,0.292,0.229,0.655,0.229,1.089v0.075
		c0,0.299-0.041,0.568-0.123,0.807c-0.082,0.239-0.198,0.447-0.348,0.625c-0.15,0.178-0.328,0.328-0.533,0.449
		c-0.207,0.121-0.433,0.214-0.674,0.278l1.943,3.243C195.63,110.784,195.641,110.814,195.641,110.85z M194.38,105.281
		c0-0.536-0.17-0.907-0.514-1.114c-0.341-0.207-0.847-0.312-1.516-0.312c-0.086,0-0.182,0-0.289,0c-0.105,0-0.215,0.002-0.325,0.005
		c-0.11,0.004-0.215,0.008-0.314,0.012c-0.101,0.004-0.182,0.008-0.246,0.016v2.938c0.234,0.006,0.459,0.012,0.673,0.016
		c0.213,0.002,0.381,0.005,0.502,0.005c0.327,0,0.617-0.023,0.87-0.07s0.465-0.126,0.636-0.241s0.3-0.268,0.39-0.461
		s0.133-0.433,0.133-0.718V105.281L194.38,105.281z"/>
	<path fill="#FFFFFF" d="M204.53,110.958c-0.018,0.028-0.044,0.045-0.079,0.053c-0.101,0.014-0.234,0.023-0.406,0.027
		c-0.17,0.004-0.354,0.008-0.549,0.016c-0.197,0.007-0.395,0.011-0.594,0.011s-0.377,0-0.533,0c-0.756,0-1.322-0.153-1.703-0.459
		s-0.571-0.815-0.571-1.526v-4.111c0-0.713,0.19-1.221,0.571-1.527s0.947-0.459,1.703-0.459c0.156,0,0.332,0.002,0.527,0.005
		c0.195,0.004,0.391,0.007,0.582,0.011c0.193,0.004,0.374,0.01,0.545,0.017s0.313,0.018,0.428,0.032
		c0.035,0.007,0.063,0.024,0.079,0.054c0.019,0.028,0.027,0.062,0.027,0.096v0.534c0,0.085-0.039,0.128-0.117,0.128h-2.062
		c-0.285,0-0.513,0.021-0.685,0.06c-0.171,0.039-0.302,0.103-0.396,0.191c-0.092,0.089-0.154,0.203-0.187,0.342
		s-0.049,0.313-0.049,0.518v1.484h3.278c0.057,0,0.106,0.021,0.148,0.063c0.043,0.042,0.064,0.091,0.064,0.147v0.4
		c0,0.057-0.021,0.105-0.064,0.146c-0.042,0.043-0.093,0.063-0.148,0.063h-3.278v1.802c0,0.199,0.017,0.371,0.049,0.514
		c0.031,0.143,0.095,0.259,0.187,0.349c0.094,0.089,0.225,0.153,0.396,0.192c0.172,0.041,0.397,0.06,0.685,0.06h2.062
		c0.078,0,0.117,0.042,0.117,0.128v0.544C204.557,110.896,204.548,110.928,204.53,110.958z"/>
	<path fill="#FFFFFF" d="M213.686,108.928c0,0.256-0.038,0.511-0.117,0.764c-0.077,0.253-0.216,0.48-0.411,0.684
		s-0.464,0.369-0.806,0.496c-0.343,0.129-0.776,0.192-1.304,0.192c-0.377,0-0.709-0.017-0.992-0.048
		c-0.285-0.032-0.545-0.064-0.78-0.102c-0.092-0.015-0.149-0.035-0.17-0.063c-0.021-0.029-0.033-0.071-0.033-0.128v-0.428
		c0-0.057,0.019-0.1,0.054-0.127c0.037-0.028,0.08-0.043,0.129-0.043h0.033c0.121,0.008,0.258,0.017,0.409,0.026
		c0.153,0.011,0.31,0.019,0.472,0.021c0.158,0.004,0.315,0.008,0.47,0.012c0.151,0.003,0.29,0.005,0.411,0.005
		c0.32,0,0.585-0.03,0.795-0.091s0.375-0.146,0.496-0.256c0.121-0.11,0.207-0.244,0.257-0.4s0.075-0.328,0.075-0.513
		c0-0.136-0.021-0.259-0.064-0.369s-0.113-0.22-0.214-0.326s-0.229-0.219-0.396-0.336c-0.164-0.118-0.365-0.251-0.607-0.399
		l-1.036-0.631c-0.491-0.299-0.858-0.6-1.104-0.902c-0.246-0.301-0.369-0.666-0.369-1.094c0-0.647,0.224-1.125,0.668-1.431
		c0.445-0.306,1.076-0.459,1.896-0.459c0.157,0,0.322,0.004,0.497,0.011c0.174,0.008,0.346,0.016,0.514,0.027
		c0.166,0.01,0.324,0.025,0.475,0.042c0.148,0.019,0.273,0.034,0.374,0.048c0.12,0.021,0.182,0.082,0.182,0.182v0.459
		c0,0.114-0.062,0.17-0.182,0.17h-0.021c-0.236-0.014-0.521-0.027-0.859-0.041c-0.34-0.015-0.664-0.021-0.979-0.021
		c-0.555,0-0.955,0.071-1.201,0.214c-0.244,0.142-0.367,0.409-0.367,0.802c0,0.127,0.022,0.244,0.068,0.347
		c0.047,0.103,0.115,0.204,0.208,0.304s0.212,0.201,0.361,0.305s0.323,0.215,0.521,0.336l0.979,0.586
		c0.313,0.186,0.573,0.363,0.782,0.535c0.209,0.17,0.383,0.342,0.518,0.512c0.135,0.172,0.23,0.35,0.287,0.535
		C213.658,108.515,213.686,108.713,213.686,108.928z"/>
	<path fill="#FFFFFF" d="M228.535,110.958c-0.019,0.028-0.045,0.045-0.08,0.053c-0.101,0.014-0.234,0.023-0.406,0.027
		c-0.17,0.004-0.354,0.008-0.549,0.016c-0.196,0.007-0.395,0.011-0.594,0.011s-0.377,0-0.533,0c-0.756,0-1.322-0.153-1.703-0.459
		s-0.571-0.815-0.571-1.526v-4.111c0-0.713,0.19-1.221,0.571-1.527s0.947-0.459,1.703-0.459c0.156,0,0.332,0.002,0.528,0.005
		c0.195,0.004,0.39,0.007,0.581,0.011c0.193,0.004,0.374,0.01,0.545,0.017s0.313,0.018,0.428,0.032
		c0.035,0.007,0.063,0.024,0.08,0.054c0.019,0.028,0.026,0.062,0.026,0.096v0.534c0,0.085-0.039,0.128-0.117,0.128h-2.062
		c-0.285,0-0.512,0.021-0.685,0.06c-0.171,0.039-0.302,0.103-0.396,0.191c-0.092,0.089-0.154,0.203-0.187,0.342
		s-0.048,0.313-0.048,0.518v1.484h3.277c0.057,0,0.107,0.021,0.148,0.063c0.043,0.042,0.064,0.091,0.064,0.147v0.4
		c0,0.057-0.021,0.105-0.064,0.146c-0.041,0.043-0.093,0.063-0.148,0.063h-3.277v1.802c0,0.199,0.016,0.371,0.048,0.514
		c0.031,0.143,0.095,0.259,0.187,0.349c0.094,0.089,0.225,0.153,0.396,0.192c0.173,0.041,0.398,0.06,0.685,0.06h2.062
		c0.078,0,0.117,0.042,0.117,0.128v0.544C228.561,110.896,228.552,110.928,228.535,110.958z"/>
	<path fill="#FFFFFF" d="M238.69,110.898c-0.062,0.062-0.132,0.091-0.217,0.091h-0.655c-0.171,0-0.285-0.057-0.342-0.171
		l-3.311-6.269c-0.006-0.021-0.018-0.031-0.031-0.031c-0.008,0-0.01,0.01-0.01,0.031v6.236c0,0.058-0.02,0.105-0.055,0.145
		c-0.035,0.04-0.082,0.059-0.14,0.059h-0.556c-0.058,0-0.104-0.007-0.139-0.021c-0.035-0.015-0.054-0.05-0.054-0.107v-7.506
		c0-0.086,0.03-0.157,0.091-0.214s0.135-0.085,0.221-0.085h0.586c0.149,0,0.25,0.016,0.301,0.048
		c0.05,0.032,0.096,0.087,0.139,0.165l3.288,6.235l0.021,0.033c0.008,0,0.012-0.012,0.012-0.033v-6.246
		c0-0.057,0.017-0.105,0.053-0.145c0.035-0.039,0.08-0.059,0.137-0.059h0.561c0.057,0,0.103,0.02,0.138,0.059
		c0.034,0.039,0.053,0.088,0.053,0.145v7.421C238.78,110.765,238.75,110.836,238.69,110.898z"/>
	<path fill="#FFFFFF" d="M253.996,108.928c0,0.256-0.039,0.511-0.117,0.764s-0.215,0.48-0.41,0.684
		c-0.196,0.203-0.465,0.369-0.807,0.496c-0.343,0.129-0.776,0.192-1.304,0.192c-0.378,0-0.709-0.017-0.993-0.048
		c-0.285-0.032-0.545-0.064-0.779-0.102c-0.092-0.015-0.149-0.035-0.17-0.063c-0.021-0.029-0.033-0.071-0.033-0.128v-0.428
		c0-0.057,0.019-0.1,0.054-0.127c0.036-0.028,0.079-0.043,0.129-0.043h0.032c0.121,0.008,0.258,0.017,0.41,0.026
		c0.152,0.011,0.31,0.019,0.471,0.021c0.16,0.004,0.316,0.008,0.47,0.012c0.154,0.004,0.29,0.005,0.411,0.005
		c0.32,0,0.585-0.03,0.795-0.091s0.376-0.146,0.497-0.256c0.121-0.11,0.207-0.244,0.256-0.4c0.05-0.156,0.075-0.328,0.075-0.513
		c0-0.136-0.021-0.259-0.063-0.369c-0.045-0.11-0.114-0.22-0.215-0.326s-0.23-0.219-0.396-0.336
		c-0.164-0.118-0.366-0.251-0.608-0.399l-1.035-0.631c-0.492-0.299-0.859-0.6-1.105-0.902c-0.245-0.301-0.368-0.666-0.368-1.094
		c0-0.647,0.224-1.125,0.668-1.431s1.076-0.459,1.896-0.459c0.156,0,0.322,0.004,0.496,0.011c0.174,0.008,0.346,0.016,0.514,0.027
		c0.167,0.01,0.324,0.025,0.475,0.042c0.149,0.019,0.274,0.034,0.374,0.048c0.121,0.021,0.183,0.082,0.183,0.182v0.459
		c0,0.114-0.062,0.17-0.183,0.17h-0.021c-0.235-0.014-0.521-0.027-0.859-0.041c-0.339-0.015-0.664-0.021-0.979-0.021
		c-0.555,0-0.955,0.071-1.2,0.214c-0.245,0.142-0.368,0.409-0.368,0.802c0,0.127,0.023,0.244,0.068,0.347
		c0.047,0.103,0.115,0.204,0.209,0.304c0.092,0.1,0.213,0.201,0.36,0.305c0.149,0.104,0.323,0.215,0.522,0.336l0.979,0.586
		c0.313,0.186,0.573,0.363,0.782,0.535c0.209,0.17,0.382,0.342,0.517,0.512c0.135,0.172,0.23,0.35,0.287,0.535
		C253.966,108.515,253.996,108.713,253.996,108.928z"/>
	<path fill="#FFFFFF" d="M263.001,110.958c-0.019,0.028-0.045,0.045-0.08,0.053c-0.101,0.014-0.234,0.023-0.405,0.027
		c-0.17,0.002-0.354,0.008-0.55,0.016c-0.196,0.007-0.395,0.011-0.594,0.011c-0.198,0-0.377,0-0.533,0
		c-0.754,0-1.321-0.153-1.702-0.459c-0.382-0.306-0.572-0.815-0.572-1.526v-4.111c0-0.713,0.19-1.221,0.572-1.527
		c0.381-0.307,0.948-0.459,1.702-0.459c0.156,0,0.332,0.002,0.529,0.005c0.194,0.004,0.39,0.007,0.582,0.011
		c0.191,0.004,0.373,0.01,0.545,0.017c0.17,0.007,0.313,0.018,0.426,0.032c0.035,0.007,0.063,0.024,0.08,0.054
		c0.019,0.028,0.026,0.062,0.026,0.096v0.534c0,0.085-0.038,0.128-0.116,0.128h-2.063c-0.285,0-0.512,0.021-0.684,0.06
		s-0.303,0.103-0.396,0.191c-0.092,0.089-0.155,0.203-0.187,0.342c-0.032,0.139-0.049,0.313-0.049,0.518v1.484h3.277
		c0.057,0,0.107,0.021,0.148,0.063c0.043,0.042,0.064,0.091,0.064,0.147v0.4c0,0.057-0.021,0.105-0.064,0.146
		c-0.041,0.043-0.092,0.063-0.148,0.063h-3.277v1.802c0,0.199,0.017,0.371,0.049,0.514c0.031,0.143,0.095,0.259,0.187,0.349
		c0.093,0.089,0.224,0.153,0.396,0.192c0.172,0.041,0.397,0.06,0.684,0.06h2.063c0.078,0,0.116,0.042,0.116,0.128v0.544
		C263.029,110.896,263.02,110.928,263.001,110.958z"/>
	<path fill="#FFFFFF" d="M272.33,110.901c-0.264,0.043-0.558,0.081-0.881,0.113c-0.324,0.031-0.738,0.049-1.244,0.049
		c-0.334,0-0.668-0.059-0.998-0.176c-0.332-0.118-0.627-0.307-0.887-0.566c-0.261-0.26-0.472-0.602-0.636-1.025
		c-0.164-0.422-0.245-0.94-0.245-1.553v-1.432c0-0.648,0.085-1.186,0.256-1.613c0.172-0.427,0.393-0.769,0.662-1.025
		c0.271-0.256,0.576-0.436,0.918-0.539s0.684-0.155,1.025-0.155c0.498,0,0.908,0.017,1.232,0.048
		c0.323,0.032,0.59,0.066,0.797,0.102c0.049,0.008,0.092,0.021,0.127,0.043s0.055,0.062,0.055,0.119v0.533
		c0,0.071-0.047,0.106-0.141,0.106h-0.041c-0.158-0.015-0.31-0.026-0.455-0.037s-0.297-0.019-0.453-0.021
		c-0.156-0.004-0.325-0.008-0.508-0.012c-0.182-0.003-0.387-0.005-0.613-0.005c-0.25,0-0.487,0.038-0.717,0.112
		c-0.228,0.074-0.429,0.205-0.604,0.395c-0.174,0.188-0.313,0.439-0.416,0.751c-0.104,0.313-0.154,0.71-0.154,1.194v1.428
		c0,0.441,0.047,0.816,0.139,1.125c0.093,0.309,0.222,0.563,0.385,0.762c0.164,0.199,0.354,0.344,0.57,0.433
		c0.219,0.088,0.451,0.133,0.701,0.133c0.326,0,0.601-0.007,0.821-0.021c0.22-0.015,0.396-0.028,0.522-0.043v-3.054
		c0-0.057,0.019-0.106,0.054-0.149s0.082-0.063,0.14-0.063h0.575c0.058,0,0.104,0.021,0.146,0.063
		c0.039,0.043,0.059,0.093,0.059,0.149v3.595C272.521,110.801,272.458,110.879,272.33,110.901z"/>
	<path fill="#FFFFFF" d="M282.111,110.348c-0.479,0.477-1.15,0.715-2.02,0.715c-0.86,0-1.531-0.238-2.012-0.715
		s-0.722-1.225-0.722-2.243v-4.849c0-0.057,0.021-0.104,0.06-0.144c0.039-0.038,0.088-0.059,0.146-0.059h0.583
		c0.058,0,0.106,0.021,0.146,0.059c0.041,0.039,0.061,0.087,0.061,0.146v4.854c0,0.344,0.027,0.646,0.085,0.915
		s0.153,0.49,0.291,0.668c0.14,0.179,0.317,0.313,0.542,0.406s0.497,0.139,0.822,0.139c0.332,0,0.607-0.046,0.828-0.139
		c0.219-0.093,0.396-0.228,0.535-0.406c0.139-0.178,0.234-0.399,0.293-0.663c0.056-0.264,0.084-0.57,0.084-0.92v-4.854
		c0-0.057,0.021-0.105,0.06-0.146c0.04-0.038,0.089-0.059,0.146-0.059h0.582c0.059,0,0.106,0.021,0.146,0.059
		c0.039,0.039,0.059,0.087,0.059,0.144v4.849C282.826,109.124,282.587,109.872,282.111,110.348z"/>
	<path fill="#FFFFFF" d="M293.087,110.85c0,0.092-0.047,0.139-0.14,0.139h-0.684c-0.063,0-0.115-0.005-0.154-0.016
		c-0.04-0.012-0.081-0.051-0.123-0.123l-1.911-3.184h-0.097h-0.183c-0.178,0-0.346,0-0.506-0.004s-0.383-0.014-0.668-0.027v3.14
		c0,0.058-0.019,0.106-0.054,0.149c-0.036,0.041-0.082,0.063-0.139,0.063h-0.576c-0.058,0-0.104-0.021-0.14-0.063
		s-0.055-0.094-0.055-0.149v-7.476c0-0.078,0.02-0.133,0.055-0.166c0.035-0.031,0.104-0.055,0.203-0.068
		c0.112-0.014,0.246-0.025,0.399-0.038c0.153-0.01,0.313-0.019,0.479-0.026c0.168-0.006,0.338-0.012,0.509-0.016
		c0.17-0.003,0.334-0.005,0.489-0.005c0.42,0,0.813,0.04,1.181,0.118c0.366,0.079,0.685,0.207,0.95,0.385
		c0.268,0.178,0.478,0.413,0.631,0.705c0.152,0.292,0.229,0.655,0.229,1.089v0.075c0,0.299-0.041,0.568-0.123,0.807
		c-0.082,0.239-0.197,0.447-0.347,0.625s-0.328,0.328-0.534,0.449c-0.205,0.121-0.431,0.214-0.673,0.278l1.943,3.243
		C293.078,110.784,293.087,110.814,293.087,110.85z M291.828,105.281c0-0.536-0.171-0.907-0.513-1.114s-0.849-0.312-1.517-0.312
		c-0.086,0-0.182,0-0.288,0s-0.216,0.002-0.325,0.005c-0.111,0.004-0.216,0.008-0.314,0.012c-0.101,0.004-0.183,0.008-0.246,0.016
		v2.938c0.234,0.006,0.459,0.012,0.672,0.016c0.215,0.002,0.382,0.005,0.502,0.005c0.328,0,0.617-0.023,0.871-0.07
		c0.252-0.046,0.465-0.126,0.636-0.241s0.301-0.268,0.39-0.461c0.09-0.193,0.133-0.433,0.133-0.718V105.281L291.828,105.281z"/>
	<path fill="#FFFFFF" d="M302.912,109.232c-0.143,0.423-0.342,0.771-0.599,1.041c-0.256,0.271-0.56,0.47-0.912,0.599
		s-0.739,0.191-1.159,0.191s-0.807-0.064-1.158-0.191c-0.353-0.129-0.656-0.328-0.912-0.599s-0.459-0.618-0.604-1.041
		c-0.146-0.424-0.219-0.931-0.219-1.522v-1.377c0-0.59,0.071-1.098,0.219-1.521c0.146-0.423,0.349-0.77,0.604-1.041
		s0.561-0.469,0.912-0.598c0.353-0.129,0.738-0.192,1.158-0.192s0.807,0.063,1.159,0.192c0.353,0.127,0.656,0.326,0.912,0.598
		c0.257,0.271,0.456,0.618,0.599,1.041c0.143,0.424,0.213,0.932,0.213,1.521v1.377C303.125,108.301,303.053,108.809,302.912,109.232
		z M302.132,106.333c0-0.447-0.045-0.83-0.133-1.143c-0.09-0.313-0.215-0.568-0.377-0.77c-0.164-0.198-0.361-0.342-0.597-0.432
		c-0.233-0.089-0.495-0.134-0.785-0.134s-0.552,0.045-0.784,0.134c-0.234,0.09-0.436,0.233-0.602,0.432
		c-0.167,0.201-0.294,0.457-0.382,0.77c-0.089,0.313-0.134,0.693-0.134,1.143v1.377c0,0.449,0.045,0.83,0.134,1.144
		c0.088,0.313,0.215,0.569,0.382,0.769c0.166,0.199,0.366,0.344,0.602,0.433c0.232,0.089,0.494,0.134,0.784,0.134
		s0.552-0.045,0.785-0.134s0.433-0.233,0.597-0.433c0.162-0.199,0.287-0.455,0.377-0.769c0.088-0.313,0.133-0.694,0.133-1.144
		V106.333z"/>
	<path fill="#FFFFFF" d="M312.308,108.928c0,0.256-0.039,0.511-0.117,0.764c-0.079,0.253-0.216,0.48-0.411,0.684
		c-0.196,0.203-0.465,0.369-0.807,0.496c-0.343,0.129-0.775,0.192-1.304,0.192c-0.377,0-0.707-0.017-0.992-0.048
		c-0.284-0.032-0.545-0.064-0.779-0.102c-0.093-0.015-0.148-0.035-0.171-0.063c-0.021-0.029-0.032-0.071-0.032-0.128v-0.428
		c0-0.057,0.018-0.1,0.055-0.127c0.035-0.028,0.078-0.043,0.127-0.043h0.033c0.12,0.008,0.258,0.017,0.41,0.026
		c0.152,0.011,0.311,0.019,0.471,0.021c0.16,0.004,0.315,0.008,0.469,0.012c0.154,0.004,0.291,0.005,0.412,0.005
		c0.32,0,0.584-0.03,0.795-0.091c0.21-0.061,0.375-0.146,0.496-0.256c0.121-0.11,0.207-0.244,0.257-0.4
		c0.051-0.156,0.075-0.328,0.075-0.513c0-0.136-0.021-0.259-0.063-0.369c-0.043-0.11-0.114-0.22-0.215-0.326
		c-0.099-0.106-0.229-0.219-0.396-0.336c-0.164-0.118-0.365-0.251-0.607-0.399l-1.035-0.631c-0.492-0.299-0.859-0.6-1.105-0.902
		c-0.246-0.301-0.369-0.666-0.369-1.094c0-0.647,0.224-1.125,0.668-1.431c0.445-0.306,1.076-0.459,1.896-0.459
		c0.157,0,0.323,0.004,0.497,0.011c0.174,0.008,0.346,0.016,0.514,0.027c0.166,0.01,0.324,0.025,0.475,0.042
		c0.148,0.019,0.273,0.034,0.374,0.048c0.12,0.021,0.182,0.082,0.182,0.182v0.459c0,0.114-0.062,0.17-0.182,0.17h-0.021
		c-0.236-0.014-0.521-0.027-0.859-0.041c-0.338-0.015-0.664-0.021-0.979-0.021c-0.555,0-0.955,0.071-1.201,0.214
		c-0.244,0.142-0.367,0.409-0.367,0.802c0,0.127,0.022,0.244,0.068,0.347c0.047,0.103,0.115,0.204,0.208,0.304
		s0.214,0.201,0.361,0.305c0.149,0.104,0.323,0.215,0.522,0.336l0.979,0.586c0.313,0.186,0.572,0.363,0.781,0.535
		c0.211,0.17,0.383,0.342,0.518,0.512c0.135,0.172,0.23,0.35,0.287,0.535C312.28,108.515,312.308,108.713,312.308,108.928z"/>
</g>
</svg>
