<?xml version="1.0" encoding="utf-8"?>
<!-- Generator: Adobe Illustrator 16.0.3, SVG Export Plug-In . SVG Version: 6.00 Build 0)  -->
<!DOCTYPE svg PUBLIC "-//W3C//DTD SVG 1.1//EN" "http://www.w3.org/Graphics/SVG/1.1/DTD/svg11.dtd">
<svg version="1.1" id="fondo_magenta" xmlns="http://www.w3.org/2000/svg" xmlns:xlink="http://www.w3.org/1999/xlink" x="0px"
	 y="0px" width="562.5px" height="67px" viewBox="0 75.5 562.5 67" enable-background="new 0 75.5 562.5 67" xml:space="preserve">
<g>
	<g>
		<g>
			<g>
				<path fill="#FFFFFF" d="M120.635,107.993L120.635,107.993c-0.139-0.466-0.229-0.885-0.375-1.348
					c-0.555-1.909-1.582-3.583-2.784-5.068c-1.209-1.484-2.883-2.647-4.786-3.53c-1.953-0.882-4.322-1.301-7.158-1.301
					c-2.138,0-4.278,0.371-6.271,1.067c-2.041,0.692-3.858,1.811-5.484,3.296c-1.628,1.485-2.931,3.394-3.905,5.623
					c-0.974,2.274-1.437,4.973-1.437,8.132c0,3.856,0.555,7.016,1.626,9.528c1.119,2.506,2.512,4.509,4.324,5.994
					c1.763,1.485,3.763,2.554,6.039,3.156c2.275,0.608,4.556,0.888,6.925,0.888c2.602,0,4.831-0.279,6.786-0.836
					c1.906-0.554,3.392-1.25,4.458-2.048c0.7-0.457,2.001-1.804,2.001-1.804l-3.902-6.049c-0.14,0.139-0.374,0.285-0.511,0.418
					c-0.556,0.47-1.211,0.938-2.001,1.307c-0.745,0.418-1.627,0.741-2.556,1.016c-0.93,0.279-2.046,0.419-3.301,0.419
					c-3.251,0-5.624-0.932-7.153-2.741c-1.491-1.809-2.37-4.365-2.557-6.826h22.071l0,0h0.283c0.044-0.23,0.092-0.608,0.092-1.026
					c0-0.415,0.044-0.877,0.091-1.296c0-0.469,0.046-0.888,0.046-1.257v-1.064C121.143,111.013,120.962,109.479,120.635,107.993
					 M98.463,111.431c0-2.511,0.608-4.414,1.858-5.856c1.208-1.394,2.883-2.093,4.924-2.093c2.419,0,4.09,0.647,5.021,2.138
					c0.929,1.489,1.392,3.256,1.392,5.767H98.463V111.431z"/>
				<path fill="#FFFFFF" d="M60.823,97.816c0,3.251-0.556,5.996-1.674,8.227c-1.111,2.229-2.602,4.04-4.46,5.434
					c-1.855,1.345-4.041,2.511-6.504,3.113s-5.068,1.021-7.857,1.021h-3.853v17.474h-9.991V83.408
					c2.512-0.234,4.557-0.419,6.879-0.556c2.322-0.137,4.459-0.189,6.368-0.189c7.295,0,12.59,1.303,15.984,3.859
					S60.823,92.844,60.823,97.816 M50.322,98.328c0-3.021-0.881-5.203-2.692-6.504c-1.811-1.303-4.23-1.956-7.015-1.956
					c-1.582,0-2.513,0.093-4.139,0.23v17.983h2.693c3.675,0,6.461-0.741,8.364-2.137C49.396,104.553,50.322,101.996,50.322,98.328"
					/>
				<path fill="#FFFFFF" d="M273.142,99.629c-0.835-0.603-4.968-3.347-9.99-2.046v34.438c1.675,0.93,4.975,3.29,9.99,2.035V99.629z"
					/>
				<path fill="#FFFFFF" d="M157.111,98.091c-6.179-2.554-10.41,0.325-10.41,0.325l-1.439,4.646l0,0l0,0l-2.09,7.717l-3.394,12.173
					l0,0l-0.326,0.837l-0.093-0.279l-2.185-7.993l0,0l-3.575-12.688l-1.44-4.558c0,0-4.368-2.973-10.735-0.183l0.137,0.372
					l12.318,35.313h5.204h0.556h5.389l12.409-35.641C157.437,98.237,157.34,98.185,157.111,98.091"/>
				<path fill="#FFFFFF" d="M257.765,123.276c0-0.041-0.047-0.041-0.047-0.096c-0.23,0.285-0.606,0.652-1.116,1.072
					c-0.512,0.419-1.115,0.832-1.811,1.21c-0.702,0.363-1.491,0.692-2.37,0.932c-0.882,0.279-1.907,0.363-2.973,0.363
					c-1.723,0-3.114-0.277-4.278-0.877c-1.162-0.606-2.089-1.444-2.784-2.466c-0.745-1.065-1.256-2.272-1.534-3.673
					c-0.282-1.399-0.466-2.874-0.466-4.46c0-3.109,0.694-5.715,2.093-7.713c1.392-2.001,3.718-3.021,7.014-3.021
					c1.909,0,3.623,0.418,5.158,1.256c1.532,0.837,2.696,1.718,3.533,2.556l0,0c1.908-4.602,0.974-7.762,0.745-8.408
					c-0.281-0.236-0.56-0.419-0.885-0.654c-1.163-0.743-2.602-1.347-4.32-1.811c-1.767-0.466-3.623-0.648-5.671-0.648
					c-1.627,0-3.482,0.279-5.574,0.791c-2.047,0.51-3.997,1.488-5.854,2.877c-1.857,1.394-3.394,3.302-4.649,5.668
					c-1.255,2.419-1.861,5.485-1.861,9.293c0,3.996,0.606,7.206,1.813,9.673c1.202,2.461,2.693,4.41,4.465,5.81
					c1.811,1.396,3.72,2.371,5.852,2.828c2.091,0.519,4.041,0.749,5.805,0.749c2.696,0,4.925-0.285,6.645-0.888
					c1.675-0.554,3.02-1.204,3.949-1.852C258.876,130.81,259.621,127.7,257.765,123.276"/>
				<path fill="#FFFFFF" d="M87.217,100.093c-0.181-0.326-0.463-0.653-0.744-0.976c-0.138-0.137-0.648-0.606-0.928-0.789
					c-0.281-0.189-0.647-0.327-1.118-0.512c-0.647-0.233-1.256-0.372-1.855-0.515c-0.374-0.092-0.793-0.137-1.304-0.185
					c-0.187,0-0.371,0-0.508,0h-0.048c-2.42-0.044-4.323,0.048-5.716,0.374c-3.295,0.79-4.553,1.672-6.177,2.883
					c-3.486,2.602-3.766,7.206-3.766,8.316v0.234v0.047l0,0v21.33l0,0v2.739h9.99v-22.958c0-1.253,0.515-2.327,1.534-3.204
					c1.021-0.881,2.328-1.347,3.859-1.347c1.161,0,2.138,0.184,2.976,0.558c0.835,0.371,1.672,0.927,2.556,1.622
					c0.09-0.138,0.229-0.464,0.372-0.79C87.454,103.899,87.454,101.485,87.217,100.093"/>
				<path fill="#FFFFFF" d="M347.176,104.6c-0.049-0.419-0.189-1.026-0.239-1.163c-0.464-1.349-1.205-2.512-2.093-3.395
					c-0.229-0.229-0.693-0.646-1.111-0.974c-1.07-0.884-3.572-2.185-6.692-2.649c-0.557-0.091-5.111-0.091-6.179-0.047
					c-13.483,1.066-15.757,8.555-15.757,8.555v28.114h4.884h5.9v-25.509c0,0,1.621-2.09,4.875-2.509
					c0.791-0.14,1.389-0.14,1.907-0.097c1.161,0.044,2.042,0.186,2.69,0.555c0.742,0.374,1.201,0.882,1.535,1.582
					c0.323,0.648,0.473,1.49,0.554,2.42c0.09,0.927,0.049,1.953,0.049,3.063v20.504h9.991c0,0,0.05-9.761,0.05-24.911
					C347.494,107.201,347.266,105.526,347.176,104.6"/>
				<path fill="#FFFFFF" d="M225.838,104.6c-0.046-0.419-0.183-1.026-0.23-1.163c-0.418-1.349-1.208-2.512-2.09-3.395
					c-0.232-0.229-0.7-0.646-1.119-0.974c-1.066-0.884-3.576-2.185-6.692-2.649c-0.556-0.091-5.107-0.091-6.179-0.047
					c-13.481,1.066-15.751,8.555-15.751,8.555v28.114h4.877h5.902v-25.509c0,0,1.63-2.09,4.878-2.509
					c0.793-0.14,1.394-0.14,1.909-0.097c1.164,0.044,2.045,0.186,2.693,0.555c0.745,0.374,1.211,0.882,1.532,1.582
					c0.326,0.7,0.464,1.49,0.556,2.42c0.097,0.927,0.045,1.953,0.045,3.063v20.504h9.99c0,0,0.048-9.761,0.048-24.911
					C226.163,107.201,225.977,105.526,225.838,104.6"/>
				<path fill="#FFFFFF" d="M189.083,107.993L189.083,107.993c-0.098-0.466-0.237-0.885-0.375-1.348
					c-0.555-1.909-1.529-3.583-2.785-5.068c-1.208-1.484-2.877-2.647-4.834-3.53c-1.952-0.882-4.366-1.301-7.157-1.301
					c-2.136,0-4.229,0.371-6.271,1.067c-2.045,0.692-3.904,1.811-5.483,3.296c-1.63,1.489-2.93,3.394-3.904,5.623
					c-0.974,2.274-1.44,4.973-1.44,8.132c0,3.856,0.557,7.016,1.631,9.528c1.116,2.506,2.508,4.509,4.274,5.994
					c1.765,1.485,3.765,2.554,6.042,3.156c2.275,0.608,4.554,0.888,6.923,0.888c2.602,0,4.83-0.279,6.787-0.836
					c1.908-0.554,3.394-1.25,4.465-2.048c0.647-0.457,1.998-1.804,1.998-1.804l-3.902-6.049c-0.14,0.139-0.373,0.285-0.51,0.418
					c-0.556,0.47-1.209,0.938-2.002,1.307c-0.745,0.418-1.626,0.741-2.556,1.016c-0.93,0.279-2.046,0.419-3.296,0.419
					c-3.257,0-5.623-0.932-7.157-2.741c-1.49-1.809-2.369-4.365-2.557-6.826h22.071l0,0h0.281c0.045-0.23,0.093-0.608,0.093-1.026
					c0-0.415,0.044-0.877,0.097-1.296c0.045-0.469,0.045-0.888,0.045-1.257v-1.064C189.546,111.013,189.409,109.479,189.083,107.993
					 M166.917,111.431c0-2.511,0.603-4.414,1.857-5.856c1.209-1.394,2.879-2.093,4.923-2.093c2.419,0,4.086,0.647,5.016,2.138
					c0.93,1.489,1.392,3.256,1.392,5.767h-13.193v0.045H166.917z"/>
				<path fill="#FFFFFF" d="M310.83,108.319c-0.598-2.229-1.619-4.186-2.97-5.905c-0.189-0.229-0.42-0.463-0.659-0.699
					c-0.692,2.185-1.242,3.767-2.079,4.833c-1.023,1.627-2.468,2.786-4.142,3.529c0.139,0.466,0.234,0.887,0.323,1.395
					c0.19,1.31,0.28,2.656,0.28,3.995c0,1.391-0.09,2.74-0.28,4.091c-0.185,1.355-0.557,2.557-1.116,3.623
					c-0.557,1.072-1.295,1.959-2.271,2.566c-0.978,0.647-2.238,0.967-3.724,0.967c-1.439,0-2.65-0.319-3.626-0.967
					c-0.972-0.662-1.719-1.494-2.278-2.566c-0.554-1.066-0.932-2.268-1.16-3.623c-0.235-1.351-0.325-2.689-0.325-4.041
					c0-1.351,0.136-2.654,0.369-3.95c0.239-1.299,0.657-2.463,1.255-3.484c0.56-1.023,1.355-1.855,2.322-2.508
					c0.046-0.048,0.101-0.048,0.185-0.093c0.47-0.837,1.072-2.045,1.307-2.647c0.418-1.164,0.932-2.977,1.39-4.649
					c0.14-0.465,0.229-0.927,0.369-1.347c-2.791,0.046-5.203,0.557-7.34,1.49c-2.228,0.974-4.089,2.368-5.527,4.041
					c-1.483,1.72-2.55,3.721-3.296,5.95c-0.745,2.275-1.117,4.641-1.117,7.202c0,2.507,0.325,4.878,0.974,7.105
					c0.646,2.284,1.673,4.236,3.067,5.95c1.392,1.725,3.204,3.075,5.396,4.095c2.232,1.016,4.924,1.529,8.082,1.529
					c3.208,0,5.899-0.514,8.132-1.579s4.045-2.42,5.479-4.18c1.396-1.769,2.422-3.762,3.068-6.044
					c0.608-2.273,0.938-4.693,0.938-7.151C311.756,112.922,311.479,110.549,310.83,108.319z"/>
				<path fill="#FFFFFF" d="M293.083,106.548c0,0.045,0,0.098,0.046,0.137c0.044,0.048,0.093,0.098,0.139,0.14
					c0,0.045,1.301,0.745,1.809,0.835c0.185,0.047,0.369,0.047,0.554,0.092c2.141,0.282,5.166-0.045,6.921-2.974
					c1.624-1.949,2.84-10.128,5.204-13.43c0.234-0.281,0.514-0.607,0.514-0.607c0.049-0.044,0.049-0.092,0.101-0.182
					c0-0.139,0.089-0.374-0.236-0.559c0,0-5.661-2.927-9.24,2.369c-1.635,2.417-2.845,10.035-4.375,12.733
					c-0.229,0.419-0.927,0.977-1.017,1.021c-0.139,0.045-0.279,0.138-0.279,0.138C293.173,106.318,293.083,106.411,293.083,106.548"
					/>
			</g>
			<g>
				<path fill="#FFFFFF" d="M473.517,99.629c-0.837-0.603-4.973-3.347-9.984-2.046v34.438c1.663,0.93,4.973,3.29,9.984,2.035V99.629
					z"/>
				<path fill="#FFFFFF" d="M501.083,100.093c-0.19-0.326-0.468-0.653-0.747-0.976c-0.139-0.137-0.652-0.606-0.938-0.789
					c-0.277-0.189-0.646-0.327-1.11-0.512c-0.652-0.233-1.25-0.372-1.858-0.515c-0.369-0.092-0.787-0.137-1.306-0.185
					c-0.18,0-0.369,0-0.514,0h-0.035c-2.42-0.044-4.324,0.048-5.72,0.374c-3.298,0.79-4.555,1.672-6.179,2.883
					c-3.487,2.602-3.767,7.206-3.767,8.316v0.234v0.047l0,0v21.33l0,0v2.739h9.996v-22.958c0-1.253,0.508-2.327,1.535-3.204
					c1.016-0.881,2.321-1.347,3.856-1.347c1.16,0,2.132,0.184,2.969,0.558c0.837,0.371,1.675,0.927,2.562,1.622
					c0.095-0.138,0.229-0.464,0.369-0.79C501.312,103.899,501.262,101.485,501.083,100.093"/>
				<path fill="#FFFFFF" d="M431.514,107.993L431.514,107.993c-0.1-0.466-0.233-0.885-0.369-1.348
					c-0.552-1.909-1.534-3.583-2.789-5.068c-1.206-1.484-2.878-2.647-4.836-3.53c-1.953-0.882-4.365-1.301-7.149-1.301
					c-2.143,0-4.23,0.371-6.273,1.067c-2.043,0.692-3.907,1.811-5.48,3.296c-1.623,1.489-2.929,3.394-3.91,5.623
					c-0.972,2.274-1.431,4.973-1.431,8.132c0,3.856,0.554,7.016,1.619,9.528c1.121,2.506,2.51,4.509,4.273,5.994
					c1.77,1.485,3.767,2.554,6.045,3.156c2.281,0.608,4.555,0.888,6.921,0.888c2.606,0,4.834-0.279,6.786-0.836
					c1.906-0.554,3.39-1.25,4.462-2.048c0.652-0.457,2.002-1.804,2.002-1.804l-3.911-6.049c-0.134,0.139-0.364,0.285-0.514,0.418
					c-0.552,0.47-1.2,0.938-1.995,1.307c-0.747,0.418-1.633,0.741-2.561,1.016c-0.927,0.279-2.043,0.419-3.293,0.419
					c-3.253,0-5.626-0.932-7.155-2.741c-1.489-1.809-2.372-4.365-2.562-6.826h22.076l0,0h0.283c0.051-0.23,0.09-0.608,0.09-1.026
					c0-0.415,0.051-0.877,0.1-1.296c0.05-0.469,0.05-0.888,0.05-1.257v-1.064C431.983,111.013,431.834,109.479,431.514,107.993
					 M409.35,111.431c0-2.511,0.598-4.414,1.853-5.856c1.206-1.394,2.876-2.093,4.929-2.093c2.416,0,4.091,0.647,5.018,2.138
					c0.917,1.489,1.39,3.256,1.39,5.767h-13.193v0.045H409.35z"/>
				<path fill="#FFFFFF" d="M397.122,96.931c0,2.046-0.277,3.9-0.785,5.531c-0.5,1.627-1.252,3.02-2.135,4.229
					c-0.886,1.21-1.912,2.185-3.068,3.021c-1.166,0.789-2.322,1.435-3.537,1.854l12.371,20.684c-0.932,0.418-1.958,0.695-3.024,0.93
					c-1.076,0.23-2.043,0.323-3.019,0.323c-1.865,0-3.399-0.413-4.654-1.204c-1.256-0.782-2.412-2.087-3.438-3.9l-8.501-14.551
					h-4.138v18.915h-10.364V82.808c2.232-0.231,4.555-0.418,6.877-0.558c2.373-0.138,4.466-0.183,6.37-0.183
					c7.244,0,12.547,1.209,15.935,3.667C395.449,88.193,397.122,91.914,397.122,96.931z M386.34,97.857
					c0-3.157-0.837-5.341-2.461-6.642c-1.624-1.255-3.896-1.908-6.736-1.908c-0.882,0-1.675,0.045-2.321,0.098
					c-0.649,0.044-1.202,0.092-1.677,0.138v17.331h3.534c2.925,0,5.297-0.744,7.062-2.229
					C385.463,103.207,386.34,100.925,386.34,97.857z"/>
				<path fill="#FFFFFF" d="M536.721,114.823c0,2.513-0.329,4.88-0.927,7.201c-0.608,2.278-1.675,4.32-3.074,6.086
					c-1.441,1.773-3.255,3.158-5.533,4.18c-2.238,1.063-4.973,1.587-8.176,1.587c-3.21,0-5.906-0.523-8.143-1.532
					c-2.227-1.026-4.035-2.426-5.426-4.142c-1.391-1.723-2.428-3.722-3.074-6.003c-0.649-2.269-0.973-4.64-0.973-7.151
					c0-2.551,0.375-4.972,1.116-7.245c0.742-2.277,1.858-4.275,3.349-5.994c1.485-1.722,3.344-3.068,5.57-4.095
					c2.238-1.021,4.884-1.489,7.853-1.489c3.164,0,5.855,0.516,8.044,1.489c2.235,1.026,4.046,2.373,5.393,4.042
					c1.391,1.72,2.377,3.675,3.023,5.902C536.392,109.945,536.721,112.313,536.721,114.823z M526.545,114.913
					c0-1.345-0.101-2.684-0.279-3.995c-0.19-1.298-0.56-2.457-1.116-3.483c-0.56-1.023-1.307-1.812-2.278-2.416
					c-0.971-0.608-2.138-0.93-3.621-0.93c-1.445,0-2.702,0.321-3.678,0.975c-0.972,0.647-1.77,1.489-2.322,2.511
					c-0.559,1.019-0.977,2.184-1.257,3.482c-0.229,1.306-0.367,2.602-0.367,3.997c0,1.345,0.09,2.689,0.318,4.047
					c0.239,1.345,0.608,2.551,1.165,3.622c0.56,1.072,1.307,1.952,2.284,2.606c0.967,0.646,2.181,0.972,3.666,0.972
					s2.741-0.325,3.718-0.972c0.976-0.648,1.764-1.534,2.276-2.606c0.554-1.071,0.932-2.277,1.122-3.622
					C526.404,117.653,526.545,116.309,526.545,114.913z"/>
				<path fill="#FFFFFF" d="M457.911,122.444c0-0.046-0.05-0.046-0.05-0.095c-0.233,0.323-0.653,0.698-1.167,1.116
					c-0.513,0.418-1.116,0.837-1.853,1.206c-0.698,0.372-1.584,0.747-2.459,1.021c-0.608,0.188-1.257,0.229-1.955,0.229
					c-2.6-0.134-3.905-1.904-3.905-5.208v-11.141v-4.884h10.503v-7.616h-10.503v-5.249v-3.583
					c-0.837-0.647-5.112-3.438-10.175-2.093v21.373v13.427c0,1.116,0.044,2.188,0.139,3.3c0.09,1.111,0.32,2.138,0.698,3.159
					c0.698,1.947,1.903,3.533,3.623,4.738c1.719,1.169,4.09,1.767,7.11,1.811l0,0c0.049,0,0.049,0,0.09,0h0.054l0,0
					c2.697,0,4.922-0.328,6.69-0.926c1.725-0.606,3.069-1.254,4.047-1.911C459.067,130.112,459.814,126.953,457.911,122.444z"/>
			</g>
		</g>
	</g>
</g>
</svg>
