<?xml version="1.0" encoding="utf-8"?>
<!-- Generator: Adobe Illustrator 16.0.3, SVG Export Plug-In . SVG Version: 6.00 Build 0)  -->
<!DOCTYPE svg PUBLIC "-//W3C//DTD SVG 1.1//EN" "http://www.w3.org/Graphics/SVG/1.1/DTD/svg11.dtd">
<svg version="1.1" id="Capa_1" xmlns="http://www.w3.org/2000/svg" xmlns:xlink="http://www.w3.org/1999/xlink" x="0px" y="0px"
	 width="841.89px" height="107px" viewBox="0 243.14 841.89 107" enable-background="new 0 243.14 841.89 107" xml:space="preserve"
	>
<title>Prevencion-1</title>
<g id="Layer_2">
	<g id="Layer_1-2">
		<g id="Capa_2">
			<g id="Layer_1-3">
				<path fill="#FFFFFF" d="M157.648,299.078L157.648,299.078c-0.166-0.797-0.396-1.579-0.688-2.338
					c-1.995-6.581-6.77-11.959-13.068-14.72c-3.879-1.593-8.052-2.343-12.243-2.201c-3.653-0.034-7.285,0.572-10.73,1.788
					c-3.479,1.204-6.666,3.125-9.354,5.64c-2.839,2.722-5.087,6-6.603,9.629c-1.75,4.418-2.593,9.143-2.476,13.895
					c-0.177,5.598,0.807,11.17,2.889,16.369c1.642,3.971,4.185,7.502,7.429,10.318c2.964,2.582,6.501,4.42,10.317,5.365
					c3.867,0.984,7.84,1.492,11.831,1.512c3.908,0.115,7.809-0.396,11.555-1.512c2.721-0.717,5.286-1.93,7.566-3.578
					c1.101-0.824,3.439-3.025,3.439-3.025l-6.741-10.318l-0.963,0.689c-1.051,0.873-2.206,1.611-3.439,2.199
					c-1.411,0.727-2.884,1.326-4.402,1.789c-1.845,0.457-3.739,0.689-5.64,0.688c-5.502,0-9.629-1.514-12.243-4.676
					c-2.58-3.383-4.111-7.449-4.402-11.693h38.105c0.132-0.586,0.179-1.189,0.137-1.789c0-0.688,0.138-1.514,0.138-2.201v-3.988
					C158.413,304.302,158.273,301.642,157.648,299.078 M119.68,304.994c-0.181-3.619,0.941-7.182,3.164-10.043
					c2.09-2.431,5.19-3.753,8.392-3.577c4.127,0,7.016,1.101,8.529,3.714c1.737,3,2.551,6.444,2.339,9.905H119.68z M58.877,281.607
					c0.142,4.838-0.847,9.643-2.889,14.032c-1.748,3.673-4.398,6.845-7.704,9.216c-3.311,2.498-7.105,4.277-11.143,5.229
					c-4.412,1.102-8.934,1.701-13.481,1.787h-6.603v29.852H0v-85.014l11.831-0.963c3.989-0.275,7.704-0.275,10.868-0.275
					c12.518,0,21.597,2.201,27.375,6.603C55.851,266.475,58.877,273.078,58.877,281.607 M40.994,282.57
					c0-5.227-1.513-8.941-4.677-11.143c-3.544-2.328-7.731-3.483-11.968-3.301c-2.39,0.004-4.778,0.142-7.153,0.413v30.814h4.54
					c6.19,0,11.005-1.238,14.307-3.714C39.343,293.163,40.994,288.76,40.994,282.57 M418.606,284.633
					c-4.895-3.618-11.123-4.924-17.058-3.577v58.878c2.889,1.512,8.529,5.639,17.058,3.576V284.633z M220.102,282.157
					c-10.593-4.402-17.883,0.55-17.883,0.55l-2.476,7.979l0,0l-3.577,13.206l-5.778,20.91l0,0l-0.55,1.514v-0.414l-3.714-13.617l0,0
					l-6.19-21.736l-2.476-7.841c0,0-7.428-5.09-18.434-0.275l0.275,0.688l21.047,60.391h19.121l21.185-61.079
					C220.652,282.295,220.377,282.295,220.102,282.157 M392.332,325.214L392.332,325.214l-1.926,1.926l-3.026,1.926
					c-1.304,0.715-2.69,1.27-4.127,1.652c-1.66,0.447-3.371,0.68-5.09,0.688c-2.514,0.063-5.009-0.457-7.291-1.514
					c-1.935-0.998-3.59-2.465-4.814-4.264c-1.28-1.918-2.168-4.068-2.614-6.328c-0.568-2.529-0.845-5.113-0.826-7.705
					c-0.177-4.662,1.071-9.27,3.577-13.205c2.339-3.439,6.466-5.228,11.968-5.228c3.08-0.075,6.122,0.686,8.804,2.201
					c2.252,1.114,4.299,2.602,6.053,4.402l0,0c3.301-7.841,1.651-13.343,1.238-14.444l-1.513-1.101
					c-2.282-1.432-4.795-2.456-7.428-3.026c-3.191-0.804-6.477-1.174-9.767-1.101c-3.211,0.032-6.404,0.495-9.492,1.376
					c-3.653,0.941-7.072,2.627-10.042,4.952c-3.356,2.618-6.083,5.956-7.979,9.767c-2.201,4.127-3.164,9.354-3.164,15.82
					c0,6.465,0.963,12.381,3.026,16.645c3.28,7.418,9.85,12.867,17.746,14.719c3.29,0.795,6.659,1.209,10.042,1.238
					c3.861,0.086,7.712-0.424,11.417-1.514c2.377-0.752,4.644-1.814,6.741-3.162C394.988,334.996,394.456,329.818,392.332,325.214
					 M100.421,285.459c-0.368-0.583-0.782-1.134-1.238-1.651c-0.476-0.489-0.981-0.949-1.513-1.375l-1.926-0.826l-3.164-0.825
					l-2.201-0.275h-1.101c-3.271-0.114-6.544,0.116-9.767,0.688c-3.879,0.771-7.513,2.47-10.592,4.952
					c-5.915,4.54-6.465,12.38-6.465,14.306v0.414l0,0v36.592l0,0v4.676h17.058v-39.342c-0.012-2.137,0.95-4.162,2.614-5.503
					c1.843-1.558,4.191-2.39,6.603-2.339c1.748-0.068,3.488,0.261,5.09,0.963c1.567,0.747,3.044,1.67,4.402,2.752l0.688-1.376
					C100.348,293.522,100.867,289.467,100.421,285.459 M545.302,293.163c-0.098-0.695-0.234-1.384-0.412-2.063
					c-0.744-2.17-1.967-4.145-3.576-5.778c-0.588-0.612-1.232-1.165-1.928-1.651c-3.385-2.408-7.301-3.965-11.416-4.54h-10.594
					c-23.109,1.926-26.963,14.582-26.963,14.582v48.148h18.572v-43.746c2.162-2.425,5.158-3.948,8.391-4.265
					c1.084-0.244,2.203-0.291,3.303-0.137c1.609-0.017,3.203,0.312,4.676,0.963c1.164,0.587,2.088,1.56,2.615,2.751
					c0.574,1.303,0.902,2.704,0.963,4.127c0.137,1.65,0.137,3.301,0.137,5.227v35.08h17.059v-42.646
					C545.853,297.702,545.578,294.813,545.302,293.163 M337.719,293.163c-0.078-0.653-0.216-1.298-0.413-1.926
					c-0.69-2.194-1.92-4.181-3.577-5.777c-0.586-0.612-1.231-1.165-1.926-1.651c-3.401-2.381-7.311-3.935-11.418-4.54
					c-0.963-0.138-8.804-0.138-10.592,0c-23.111,1.926-26.962,14.582-26.962,14.582v48.147h18.571v-43.746
					c2.162-2.424,5.158-3.947,8.392-4.264c1.083-0.244,2.202-0.291,3.301-0.138c1.616-0.083,3.226,0.249,4.677,0.963
					c1.163,0.588,2.086,1.56,2.614,2.751c0.576,1.304,0.902,2.703,0.963,4.126c0.138,1.65,0.138,3.303,0.138,5.229v35.078h17.058
					v-42.645C338.269,297.702,337.856,294.813,337.719,293.163 M274.715,299.078L274.715,299.078
					c-0.166-0.797-0.396-1.579-0.688-2.338c-1.996-6.581-6.771-11.959-13.069-14.72c-3.878-1.593-8.052-2.343-12.243-2.201
					c-3.653-0.034-7.285,0.572-10.729,1.788c-3.479,1.204-6.666,3.125-9.354,5.64c-2.839,2.722-5.087,6-6.603,9.629
					c-1.751,4.418-2.593,9.143-2.476,13.895c-0.15,5.582,0.784,11.143,2.751,16.369c1.644,3.934,4.133,7.455,7.291,10.318
					c2.964,2.582,6.501,4.42,10.317,5.365c3.867,0.984,7.84,1.492,11.831,1.512c3.908,0.115,7.809-0.396,11.555-1.512
					c2.721-0.717,5.286-1.93,7.566-3.578c1.101-0.824,3.439-3.025,3.439-3.025l-6.74-10.318l-0.826,0.689
					c-1.051,0.873-2.206,1.611-3.439,2.199c-1.411,0.727-2.884,1.326-4.402,1.789c-1.845,0.457-3.739,0.689-5.64,0.688
					c-5.64,0-9.63-1.514-12.243-4.676c-2.581-3.383-4.111-7.449-4.402-11.693h38.243c0.132-0.586,0.179-1.189,0.138-1.789
					c0-0.688,0.138-1.514,0.138-2.201v-3.988C275.479,304.302,275.34,301.642,274.715,299.078 M236.747,304.994
					c-0.182-3.619,0.941-7.182,3.164-10.043c2.089-2.431,5.19-3.753,8.391-3.577c4.127,0,7.016,1.101,8.529,3.714
					c1.737,3,2.551,6.444,2.338,9.905H236.747z M483.125,299.628c-0.994-3.66-2.727-7.078-5.09-10.042l-1.102-1.238
					c-0.707,2.938-1.916,5.73-3.576,8.254c-1.676,2.677-4.121,4.789-7.016,6.052c0.248,0.764,0.432,1.545,0.549,2.34
					c0.395,2.27,0.578,4.572,0.551,6.877c0.023,2.352-0.162,4.699-0.551,7.016c-0.309,2.152-0.959,4.242-1.926,6.191
					c-0.898,1.764-2.223,3.275-3.852,4.402c-1.902,1.154-4.102,1.729-6.328,1.65c-4.27,0.227-8.246-2.172-10.041-6.053
					c-1.029-1.924-1.682-4.023-1.926-6.191c-0.389-2.271-0.572-4.572-0.551-6.877c0.018-2.264,0.248-4.521,0.688-6.742
					c0.375-2.066,1.07-4.063,2.064-5.914c0.951-1.733,2.324-3.199,3.988-4.265h0.275c0.82-1.47,1.555-2.986,2.201-4.54
					c0.688-1.926,1.65-5.09,2.338-7.979l0.689-2.338c-4.291,0.05-8.533,0.889-12.52,2.476c-3.688,1.53-6.947,3.938-9.492,7.016
					c-2.537,2.984-4.455,6.445-5.639,10.181c-1.283,4-1.934,8.178-1.926,12.381c-0.021,4.137,0.533,8.258,1.65,12.242
					c1.039,3.711,2.816,7.174,5.227,10.18c2.516,2.992,5.664,5.389,9.217,7.016c4.391,1.848,9.137,2.693,13.895,2.477
					c4.762,0.088,9.49-0.801,13.895-2.613c3.65-1.594,6.859-4.049,9.354-7.154c2.436-3.041,4.217-6.553,5.227-10.316
					c1.117-3.984,1.672-8.105,1.652-12.244C484.855,307.732,484.208,303.626,483.125,299.628L483.125,299.628z M452.859,296.602
					c0,0.138,0,0.138,0.139,0.275l0.275,0.275c0.967,0.638,2.037,1.104,3.164,1.375h0.963c3.713,0.414,8.803-0.137,11.83-5.089
					c3.025-4.952,4.814-17.333,8.941-22.973l0.826-1.101v-0.275c0-0.275,0.137-0.688-0.414-0.963
					c-0.549-0.275-9.766-5.09-15.818,3.989c-2.752,4.127-4.816,17.195-7.43,21.735c-0.439,0.699-1.057,1.268-1.787,1.651
					l-0.414,0.275c-0.275,0.275-0.412,0.413-0.412,0.688 M708.728,252.443c-2.283-1.086-4.764-1.694-7.291-1.788h-4.539
					l-2.064,0.275v83.089c1.789,3.439,7.43,9.217,17.471,9.354V254.92c-1.068-0.889-2.219-1.672-3.439-2.339L708.728,252.443z
					 M838.314,252.443c-2.283-1.086-4.766-1.694-7.291-1.788h-4.541l-2.063,0.275v33.979c-1.617-1.57-3.475-2.871-5.504-3.852
					c-2.949-1.434-6.215-2.097-9.49-1.926c-3.303,0.028-6.57,0.681-9.631,1.926c-3.111,1.28-5.887,3.257-8.115,5.778
					c-2.551,2.976-4.471,6.439-5.641,10.18c-1.484,4.903-2.18,10.011-2.063,15.132c-0.129,5.031,0.568,10.051,2.063,14.857
					c1.121,3.568,2.998,6.852,5.502,9.629c2.184,2.281,4.869,4.025,7.842,5.09c2.973,0.992,6.084,1.502,9.217,1.514
					c3.803,0.117,7.578-0.686,11.006-2.338c2.047-1.076,3.943-2.416,5.639-3.99c2.34,3.164,7.842,6.328,16.646,6.465V254.92
					c-1.068-0.889-2.221-1.672-3.439-2.339L838.314,252.443z M824.556,325.078c0.047,1.848-0.969,3.557-2.613,4.402
					c-1.947,1.029-4.125,1.549-6.328,1.512c-2.281,0.098-4.551-0.375-6.604-1.375c-1.691-0.957-3.113-2.33-4.127-3.988
					c-1.082-1.924-1.826-4.018-2.199-6.191c-0.459-2.682-0.688-5.396-0.689-8.115c0-6.055,1.102-10.73,3.164-14.032
					c2.064-3.302,5.504-4.815,9.904-4.815c2.016-0.066,4.01,0.409,5.779,1.375c1.281,0.687,2.482,1.518,3.576,2.476v28.751H824.556z
					 M777.373,291.374v-6.328c-1.088-0.892-2.291-1.633-3.576-2.201c-2.316-1.152-4.846-1.808-7.43-1.926h-4.539l-2.064,0.275v41.27
					c0,1.926-1.1,3.576-3.438,4.951c-2.473,1.391-5.285,2.057-8.117,1.926c-1.795,0.105-3.588-0.225-5.227-0.963
					c-1.201-0.58-2.172-1.551-2.752-2.75c-0.623-1.287-0.953-2.697-0.963-4.127c-0.137-1.652-0.137-3.439-0.137-5.229v-25.312l0,0
					v-5.915c-1.088-0.892-2.291-1.633-3.578-2.201c-2.314-1.152-4.844-1.808-7.428-1.926h-4.539l-2.064,0.275l0,0v35.766
					c0,2.201,0,4.541,0.139,6.74c0.121,2.172,0.396,4.334,0.824,6.467c0.691,3.734,2.691,7.1,5.641,9.492
					c2.889,2.338,7.428,3.576,13.48,3.576c4.18,0.193,8.34-0.658,12.105-2.477c2.27-1.203,4.316-2.785,6.053-4.678l0.689,0.963
					c2.184,2.479,5.057,4.25,8.254,5.09c2.639,0.752,5.371,1.121,8.115,1.102v-1.102l0,0L777.373,291.374z M684.242,292.337
					c-0.809-2.781-2.271-5.328-4.264-7.428c-2.242-2.049-4.926-3.555-7.842-4.402l-3.027-0.688
					c-2.865-0.457-5.764-0.687-8.666-0.688c-3.182-0.011-6.359,0.266-9.492,0.826c-2.729,0.451-5.404,1.188-7.979,2.201
					l-0.688,0.275h-0.275l-1.1,0.413c-1.277,0.588-2.477,1.327-3.578,2.201l-0.824,0.825v0.275c-0.283,3.912,0.68,7.813,2.75,11.143
					c2.752-1.513,5.504-2.889,8.393-4.127c3.102-1.25,6.424-1.858,9.768-1.789c3.988,0,6.74,0.688,8.527,2.063
					c1.789,1.375,2.615,3.714,2.615,7.015v2.477h-5.779c-3.025,0.139-6.465,0.551-10.18,1.102c-3.6,0.512-7.088,1.627-10.316,3.301
					c-3.104,1.482-5.795,3.701-7.842,6.465c-2.182,3.092-3.293,6.811-3.164,10.594c-0.102,3.078,0.51,6.139,1.789,8.941
					c1.059,2.281,2.666,4.266,4.678,5.777c1.883,1.457,4.033,2.531,6.328,3.164c2.234,0.648,4.551,0.973,6.877,0.963
					c3.863,0.111,7.707-0.592,11.281-2.064c2.566-1.051,4.902-2.592,6.877-4.539l0.963,1.238c2.064,2.201,5.916,4.402,11.557,5.09
					l3.439,0.275v-40.443C685.46,299.287,685.181,295.737,684.242,292.337z M669.109,324.939c-0.045,0.826-0.387,1.607-0.963,2.201
					c-0.746,0.871-1.629,1.613-2.613,2.201c-1.195,0.738-2.492,1.295-3.852,1.65c-1.521,0.441-3.094,0.672-4.678,0.689
					c-3.301,0-5.502-0.826-6.877-2.477c-1.389-1.707-2.121-3.854-2.064-6.053c-0.07-1.859,0.461-3.693,1.514-5.229
					c1.031-1.418,2.404-2.553,3.99-3.301c1.76-0.924,3.668-1.527,5.639-1.789l6.328-0.824h3.576V324.939L669.109,324.939z
					 M625.365,305.957c-1.412-2.68-3.326-5.063-5.641-7.016c-2.299-1.93-4.902-3.464-7.703-4.541l-8.393-3.301l-5.914-2.339
					c-1.766-0.731-3.467-1.605-5.09-2.614c-1.375-0.893-2.547-2.064-3.439-3.439c-0.842-1.413-1.27-3.033-1.238-4.677
					c-0.066-1.691,0.365-3.365,1.238-4.814c0.824-1.239,1.965-2.236,3.301-2.889c1.381-0.728,2.867-1.239,4.402-1.513
					c1.592-0.273,3.201-0.412,4.814-0.413c3.701,0.019,7.357,0.816,10.73,2.339c2.973,1.279,5.787,2.895,8.393,4.814
					c2.545-3.778,3.889-8.238,3.852-12.793v-0.275h-0.275c-0.609-0.734-1.357-1.342-2.201-1.789
					c-0.947-0.696-1.961-1.295-3.027-1.788l0,0c-1.564-0.737-3.172-1.38-4.814-1.926c-2.17-0.63-4.375-1.135-6.604-1.513
					c-2.59-0.446-5.213-0.676-7.84-0.688c-3.943-0.11-7.883,0.353-11.693,1.375c-3.527,0.984-6.84,2.617-9.768,4.815
					c-2.84,2.037-5.152,4.726-6.74,7.841c-1.705,3.365-2.555,7.097-2.477,10.868c-0.131,3.642,0.574,7.266,2.064,10.592
					c1.281,2.685,3.164,5.038,5.502,6.878c2.27,1.863,4.824,3.35,7.566,4.402c2.752,1.1,5.502,2.201,8.254,3.025l6.328,2.34
					c1.895,0.691,3.697,1.615,5.365,2.75c1.471,1.037,2.73,2.344,3.713,3.852c0.982,1.713,1.459,3.668,1.377,5.641
					c0.16,3.57-1.563,6.965-4.541,8.941c-1.379,0.92-2.92,1.572-4.539,1.926c-1.707,0.441-3.463,0.672-5.227,0.689
					c-2.273,0.014-4.539-0.264-6.74-0.826c-1.959-0.539-3.889-1.182-5.779-1.926c-1.693-0.752-3.307-1.674-4.814-2.752l-3.988-2.889
					c-2.779,4.248-4.217,9.232-4.127,14.307v0.275l0.549,0.688l1.652,1.375l3.713,1.789l4.678,1.65
					c4.824,1.396,9.836,2.047,14.857,1.926c4.42,0.063,8.826-0.541,13.068-1.787c3.719-1.084,7.182-2.91,10.18-5.365
					c2.873-2.363,5.139-5.383,6.604-8.805c1.605-3.781,2.402-7.859,2.338-11.967C627.599,312.816,626.933,309.205,625.365,305.957z"
					/>
			</g>
		</g>
	</g>
</g>
</svg>
