<?xml version="1.0" encoding="utf-8"?>
<!-- Generator: Adobe Illustrator 16.0.3, SVG Export Plug-In . SVG Version: 6.00 Build 0)  -->
<!DOCTYPE svg PUBLIC "-//W3C//DTD SVG 1.1//EN" "http://www.w3.org/Graphics/SVG/1.1/DTD/svg11.dtd">
<svg version="1.1" id="Capa_1" xmlns="http://www.w3.org/2000/svg" xmlns:xlink="http://www.w3.org/1999/xlink" x="0px" y="0px"
	 width="384.667px" height="127.333px" viewBox="0 0 384.667 127.333" enable-background="new 0 0 384.667 127.333"
	 xml:space="preserve">
<g>
	<defs>
		<circle id="SVGID_1_" cx="69.922" cy="63.028" r="56.693"/>
	</defs>
	<clipPath id="SVGID_2_">
		<use xlink:href="#SVGID_1_"  overflow="visible"/>
	</clipPath>
	
		<circle clip-path="url(#SVGID_2_)" fill-rule="evenodd" clip-rule="evenodd" fill="#4FA0CA" cx="125.532" cy="119.721" r="56.693"/>
	<circle clip-path="url(#SVGID_2_)" fill-rule="evenodd" clip-rule="evenodd" fill="#168B39" cx="125.531" cy="6.335" r="56.693"/>
	<circle clip-path="url(#SVGID_2_)" fill-rule="evenodd" clip-rule="evenodd" fill="#2E58A6" cx="12.146" cy="119.721" r="56.693"/>
	<circle clip-path="url(#SVGID_2_)" fill-rule="evenodd" clip-rule="evenodd" fill="#1FA181" cx="12.146" cy="6.335" r="56.693"/>
</g>
<g>
	<path fill="#1A1A1A" d="M160.863,51.184c-0.461,1.372-1.105,2.495-1.936,3.371c-0.83,0.876-1.814,1.521-2.955,1.936
		c-1.141,0.415-2.392,0.623-3.752,0.623c-1.359,0-2.609-0.208-3.75-0.623c-1.141-0.415-2.126-1.06-2.955-1.936
		c-0.83-0.875-1.481-1.999-1.953-3.371c-0.473-1.371-0.709-3.013-0.709-4.926v-4.459c0-1.913,0.236-3.555,0.709-4.926
		c0.472-1.371,1.123-2.495,1.953-3.371c0.829-0.875,1.814-1.521,2.955-1.936c1.141-0.415,2.391-0.622,3.75-0.622
		c1.36,0,2.611,0.208,3.752,0.622c1.141,0.415,2.125,1.061,2.955,1.936c0.83,0.876,1.475,2,1.936,3.371s0.691,3.013,0.691,4.926
		v4.459C161.554,48.171,161.324,49.813,160.863,51.184z M158.339,41.798c0-1.452-0.144-2.685-0.43-3.699
		c-0.287-1.014-0.693-1.844-1.221-2.489s-1.168-1.112-1.925-1.4c-0.756-0.288-1.604-0.432-2.544-0.432s-1.787,0.145-2.543,0.432
		c-0.756,0.289-1.404,0.755-1.943,1.4c-0.537,0.645-0.951,1.475-1.236,2.489c-0.287,1.014-0.43,2.247-0.43,3.699v4.459
		c0,1.452,0.143,2.685,0.43,3.699c0.285,1.014,0.699,1.844,1.236,2.489c0.539,0.646,1.188,1.112,1.943,1.4
		c0.756,0.289,1.604,0.432,2.543,0.432s1.788-0.144,2.544-0.432c0.757-0.288,1.397-0.754,1.925-1.4
		c0.527-0.645,0.934-1.475,1.221-2.489c0.286-1.014,0.43-2.247,0.43-3.699V41.798z"/>
	<path fill="#1A1A1A" d="M183.885,56.421c0,0.3-0.149,0.449-0.449,0.449h-2.212c-0.208,0-0.375-0.017-0.502-0.052
		s-0.259-0.167-0.397-0.397l-6.188-10.302h-0.312h-0.588c-0.576,0-1.123-0.005-1.642-0.017c-0.519-0.011-1.239-0.04-2.16-0.086
		v10.163c0,0.185-0.058,0.346-0.173,0.484s-0.266,0.208-0.449,0.208h-1.867c-0.185,0-0.334-0.069-0.449-0.208
		s-0.173-0.299-0.173-0.484V31.981c0-0.253,0.058-0.432,0.173-0.536c0.115-0.104,0.334-0.178,0.656-0.225
		c0.369-0.046,0.801-0.086,1.297-0.121c0.495-0.035,1.014-0.063,1.556-0.086c0.541-0.023,1.089-0.04,1.642-0.052
		s1.084-0.018,1.59-0.018c1.36,0,2.633,0.127,3.82,0.381c1.187,0.254,2.213,0.668,3.076,1.245c0.865,0.576,1.544,1.337,2.04,2.282
		c0.495,0.945,0.743,2.121,0.743,3.528v0.242c0,0.969-0.133,1.839-0.397,2.611s-0.64,1.447-1.124,2.023
		c-0.483,0.577-1.06,1.061-1.729,1.453c-0.668,0.392-1.395,0.691-2.178,0.899l6.292,10.503
		C183.851,56.203,183.885,56.306,183.885,56.421z M179.806,38.393c0-1.735-0.553-2.938-1.659-3.608s-2.743-1.006-4.909-1.006
		c-0.275,0-0.587,0-0.933,0s-0.697,0.006-1.055,0.018c-0.357,0.012-0.697,0.023-1.02,0.035c-0.323,0.012-0.588,0.029-0.795,0.052
		v9.506c0.761,0.023,1.486,0.041,2.178,0.052c0.691,0.012,1.232,0.017,1.624,0.017c1.061,0,2-0.075,2.818-0.225
		c0.817-0.15,1.504-0.411,2.057-0.78c0.553-0.37,0.973-0.868,1.262-1.492c0.287-0.625,0.432-1.399,0.432-2.325V38.393z"/>
	<path fill="#1A1A1A" d="M203.071,56.587c-0.853,0.14-1.804,0.263-2.852,0.368c-1.049,0.104-2.392,0.157-4.027,0.157
		c-1.084,0-2.16-0.19-3.232-0.571c-1.071-0.38-2.028-0.99-2.869-1.832c-0.842-0.841-1.526-1.947-2.057-3.318
		s-0.795-3.047-0.795-5.03v-4.632c0-2.097,0.276-3.837,0.829-5.22c0.554-1.383,1.268-2.489,2.144-3.318s1.867-1.412,2.973-1.746
		c1.106-0.334,2.213-0.501,3.318-0.501c1.613,0,2.944,0.052,3.993,0.156c1.048,0.104,1.906,0.213,2.575,0.328
		c0.161,0.023,0.299,0.069,0.415,0.138c0.115,0.069,0.173,0.196,0.173,0.38v1.729c0,0.23-0.15,0.346-0.449,0.346h-0.139
		c-0.507-0.046-0.997-0.086-1.469-0.121c-0.473-0.035-0.963-0.057-1.47-0.069s-1.054-0.023-1.642-0.035
		c-0.588-0.011-1.251-0.018-1.988-0.018c-0.807,0-1.578,0.121-2.315,0.363c-0.738,0.242-1.389,0.667-1.953,1.277
		c-0.565,0.61-1.015,1.421-1.349,2.433s-0.501,2.3-0.501,3.865v4.625c0,1.426,0.149,2.64,0.449,3.641c0.3,1,0.714,1.823,1.245,2.467
		c0.529,0.644,1.146,1.11,1.849,1.398c0.703,0.287,1.458,0.431,2.265,0.431c1.06,0,1.947-0.022,2.662-0.069
		c0.714-0.046,1.278-0.092,1.693-0.138v-9.887c0-0.184,0.058-0.346,0.173-0.484s0.265-0.208,0.449-0.208h1.867
		c0.184,0,0.34,0.069,0.467,0.208c0.126,0.138,0.189,0.3,0.189,0.484v11.635C203.693,56.261,203.486,56.518,203.071,56.587z"/>
	<path fill="#1A1A1A" d="M227.269,56.317c0,0.369-0.196,0.553-0.588,0.553h-2.04c-0.161,0-0.288-0.052-0.38-0.156
		c-0.093-0.104-0.161-0.225-0.207-0.363l-2.247-7.951h-8.953l-2.213,7.951c-0.046,0.138-0.127,0.259-0.242,0.363
		c-0.115,0.104-0.241,0.156-0.38,0.156h-2.039c-0.393,0-0.588-0.184-0.588-0.553c0-0.115,0.011-0.195,0.034-0.242l6.396-22.504
		c0.138-0.53,0.34-0.962,0.604-1.296c0.265-0.334,0.559-0.599,0.882-0.795c0.322-0.195,0.662-0.333,1.02-0.415
		c0.357-0.081,0.697-0.121,1.02-0.121c0.323,0,0.657,0.035,1.003,0.104c0.346,0.069,0.68,0.202,1.002,0.397
		c0.323,0.196,0.617,0.461,0.882,0.795c0.265,0.334,0.467,0.767,0.605,1.296l6.395,22.539
		C227.256,56.122,227.269,56.202,227.269,56.317z M218.004,34.297c-0.115-0.415-0.334-0.622-0.657-0.622
		c-0.346,0-0.576,0.208-0.691,0.622L213.51,45.67h7.64L218.004,34.297z"/>
	<path fill="#1A1A1A" d="M248.791,56.576c-0.194,0.196-0.428,0.294-0.701,0.294h-2.12c-0.555,0-0.924-0.184-1.109-0.553
		l-10.713-20.292c-0.022-0.069-0.058-0.104-0.104-0.104c-0.023,0-0.034,0.035-0.034,0.104v20.188c0,0.185-0.058,0.34-0.173,0.467
		c-0.116,0.127-0.266,0.19-0.449,0.19h-1.798c-0.185,0-0.334-0.022-0.449-0.069c-0.116-0.046-0.173-0.161-0.173-0.346V32.154
		c0-0.276,0.098-0.507,0.294-0.691c0.195-0.184,0.432-0.276,0.708-0.276h1.901c0.485,0,0.809,0.052,0.971,0.155
		c0.161,0.104,0.312,0.283,0.451,0.536l10.643,20.188l0.069,0.104c0.022,0,0.034-0.035,0.034-0.104V31.843
		c0-0.184,0.057-0.34,0.171-0.467c0.114-0.126,0.262-0.19,0.444-0.19h1.812c0.183,0,0.33,0.063,0.444,0.19
		c0.114,0.127,0.171,0.283,0.171,0.467v24.025C249.081,56.144,248.984,56.381,248.791,56.576z"/>
	<path fill="#1A1A1A" d="M257.792,56.663c-0.115,0.138-0.265,0.208-0.449,0.208h-1.901c-0.185,0-0.334-0.069-0.449-0.208
		s-0.173-0.299-0.173-0.484V31.843c0-0.184,0.058-0.34,0.173-0.467c0.115-0.126,0.265-0.19,0.449-0.19h1.901
		c0.185,0,0.334,0.063,0.449,0.19c0.115,0.127,0.173,0.283,0.173,0.467v24.336C257.964,56.363,257.907,56.524,257.792,56.663z"/>
	<path fill="#1A1A1A" d="M279.604,56.697c-0.138,0.116-0.3,0.173-0.483,0.173h-13.309c-1.106,0-1.861-0.161-2.265-0.483
		s-0.604-0.943-0.604-1.864c0-0.299,0.039-0.645,0.12-1.036s0.213-0.713,0.398-0.967l12.375-17.982
		c0.069-0.115,0.104-0.208,0.104-0.277c0-0.161-0.115-0.241-0.346-0.241h-11.477c-0.185,0-0.346-0.052-0.484-0.157
		c-0.138-0.105-0.207-0.25-0.207-0.438v-1.645c0-0.187,0.069-0.333,0.207-0.437c0.139-0.105,0.3-0.158,0.484-0.158h12.307
		c0.968,0,1.699,0.144,2.194,0.432c0.496,0.288,0.744,0.905,0.744,1.849c0,0.323-0.047,0.68-0.139,1.072
		c-0.093,0.392-0.23,0.714-0.415,0.968l-12.341,18.01c-0.069,0.092-0.104,0.196-0.104,0.311c0,0.138,0.115,0.208,0.346,0.208h12.41
		c0.184,0,0.346,0.052,0.483,0.155c0.139,0.104,0.208,0.248,0.208,0.432v1.625C279.812,56.433,279.743,56.582,279.604,56.697z"/>
	<path fill="#1A1A1A" d="M302.523,56.317c0,0.369-0.196,0.553-0.588,0.553h-2.04c-0.161,0-0.288-0.052-0.38-0.156
		c-0.093-0.104-0.161-0.225-0.207-0.363l-2.247-7.951h-8.953l-2.213,7.951c-0.046,0.138-0.127,0.259-0.242,0.363
		c-0.115,0.104-0.241,0.156-0.38,0.156h-2.039c-0.393,0-0.588-0.184-0.588-0.553c0-0.115,0.011-0.195,0.034-0.242l6.396-22.504
		c0.138-0.53,0.34-0.962,0.604-1.296c0.265-0.334,0.559-0.599,0.882-0.795c0.322-0.195,0.662-0.333,1.02-0.415
		c0.357-0.081,0.697-0.121,1.02-0.121c0.323,0,0.657,0.035,1.003,0.104c0.346,0.069,0.68,0.202,1.002,0.397
		c0.323,0.196,0.617,0.461,0.882,0.795c0.265,0.334,0.467,0.767,0.605,1.296l6.395,22.539
		C302.51,56.122,302.523,56.202,302.523,56.317z M293.258,34.297c-0.115-0.415-0.334-0.622-0.657-0.622
		c-0.346,0-0.576,0.208-0.691,0.622l-3.146,11.373h7.64L293.258,34.297z"/>
	<path fill="#1A1A1A" d="M320.948,56.438c-0.139,0.104-0.3,0.179-0.484,0.225c-0.369,0.069-0.737,0.133-1.106,0.19
		c-0.368,0.057-0.771,0.104-1.209,0.138c-0.438,0.035-0.934,0.063-1.487,0.086c-0.553,0.022-1.198,0.035-1.936,0.035
		c-1.061,0-2.132-0.162-3.215-0.484c-1.083-0.322-2.063-0.893-2.938-1.711c-0.876-0.818-1.59-1.913-2.143-3.284
		c-0.554-1.371-0.83-3.105-0.83-5.202v-4.805c0-2.12,0.276-3.866,0.83-5.237c0.553-1.371,1.267-2.459,2.143-3.267
		c0.876-0.806,1.855-1.371,2.938-1.694c1.083-0.322,2.154-0.484,3.215-0.484c1.106,0,2.161,0.064,3.163,0.19
		c1.003,0.126,1.884,0.248,2.645,0.363c0.368,0.046,0.553,0.196,0.553,0.449v1.763c0,0.116-0.022,0.208-0.068,0.276
		c-0.047,0.069-0.162,0.104-0.346,0.104h-0.104c-0.3-0.023-0.68-0.052-1.141-0.086c-0.461-0.035-0.95-0.069-1.469-0.104
		s-1.055-0.063-1.607-0.086c-0.553-0.022-1.084-0.035-1.59-0.035c-0.854,0-1.643,0.133-2.368,0.398
		c-0.727,0.265-1.36,0.703-1.901,1.313c-0.542,0.611-0.968,1.417-1.279,2.419c-0.311,1.003-0.467,2.242-0.467,3.716v4.805
		c0,1.452,0.156,2.679,0.467,3.681c0.312,1.002,0.737,1.81,1.279,2.42c0.541,0.611,1.175,1.054,1.901,1.331
		c0.726,0.276,1.515,0.415,2.368,0.415c0.483,0,0.996-0.011,1.538-0.034c0.541-0.023,1.071-0.046,1.59-0.069
		s1.003-0.052,1.452-0.086s0.823-0.063,1.123-0.086h0.139c0.368,0,0.553,0.185,0.553,0.553v1.417
		C321.155,56.179,321.085,56.334,320.948,56.438z"/>
	<path fill="#1A1A1A" d="M328.379,56.663c-0.115,0.138-0.266,0.208-0.449,0.208h-1.901c-0.185,0-0.334-0.069-0.449-0.208
		c-0.116-0.138-0.173-0.299-0.173-0.484V31.843c0-0.184,0.057-0.34,0.173-0.467c0.115-0.126,0.265-0.19,0.449-0.19h1.901
		c0.184,0,0.334,0.063,0.449,0.19c0.115,0.127,0.173,0.283,0.173,0.467v24.336C328.552,56.363,328.495,56.524,328.379,56.663z"/>
	<path fill="#1A1A1A" d="M351.679,51.184c-0.462,1.372-1.106,2.495-1.937,3.371c-0.829,0.876-1.814,1.521-2.955,1.936
		c-1.141,0.415-2.392,0.623-3.751,0.623s-2.609-0.208-3.75-0.623c-1.142-0.415-2.127-1.06-2.956-1.936
		c-0.83-0.875-1.481-1.999-1.953-3.371c-0.473-1.371-0.709-3.013-0.709-4.926v-4.459c0-1.913,0.236-3.555,0.709-4.926
		c0.472-1.371,1.123-2.495,1.953-3.371c0.829-0.875,1.814-1.521,2.956-1.936c1.141-0.415,2.391-0.622,3.75-0.622
		s2.61,0.208,3.751,0.622c1.141,0.415,2.126,1.061,2.955,1.936c0.83,0.876,1.475,2,1.937,3.371c0.46,1.371,0.691,3.013,0.691,4.926
		v4.459C352.371,48.171,352.139,49.813,351.679,51.184z M349.156,41.798c0-1.452-0.144-2.685-0.431-3.699
		c-0.286-1.014-0.692-1.844-1.22-2.489s-1.169-1.112-1.925-1.4c-0.757-0.288-1.604-0.432-2.544-0.432s-1.788,0.145-2.544,0.432
		c-0.756,0.289-1.403,0.755-1.942,1.4c-0.538,0.645-0.951,1.475-1.237,2.489c-0.286,1.014-0.43,2.247-0.43,3.699v4.459
		c0,1.452,0.144,2.685,0.43,3.699c0.286,1.014,0.699,1.844,1.237,2.489c0.539,0.646,1.187,1.112,1.942,1.4
		c0.756,0.289,1.604,0.432,2.544,0.432s1.787-0.144,2.544-0.432c0.756-0.288,1.397-0.754,1.925-1.4
		c0.527-0.645,0.934-1.475,1.22-2.489c0.287-1.014,0.431-2.247,0.431-3.699V41.798z M347.392,24.272
		c0,0.092-0.046,0.185-0.138,0.276l-3.906,4.355c-0.162,0.185-0.289,0.317-0.381,0.397c-0.092,0.081-0.23,0.121-0.414,0.121h-1.867
		c-0.207,0-0.311-0.081-0.311-0.242c0-0.139,0.046-0.253,0.138-0.346l3.388-4.287c0.161-0.184,0.288-0.316,0.381-0.397
		c0.092-0.081,0.241-0.121,0.449-0.121h2.281C347.265,24.03,347.392,24.111,347.392,24.272z"/>
	<path fill="#1A1A1A" d="M374.963,56.576c-0.194,0.196-0.428,0.294-0.701,0.294h-2.119c-0.556,0-0.925-0.184-1.109-0.553
		l-10.713-20.292c-0.023-0.069-0.059-0.104-0.104-0.104c-0.022,0-0.034,0.035-0.034,0.104v20.188c0,0.185-0.058,0.34-0.173,0.467
		c-0.115,0.127-0.266,0.19-0.449,0.19h-1.798c-0.185,0-0.334-0.022-0.449-0.069c-0.115-0.046-0.173-0.161-0.173-0.346V32.154
		c0-0.276,0.098-0.507,0.294-0.691c0.195-0.184,0.432-0.276,0.709-0.276h1.9c0.485,0,0.809,0.052,0.971,0.155
		c0.162,0.104,0.313,0.283,0.451,0.536l10.643,20.188l0.069,0.104c0.022,0,0.035-0.035,0.035-0.104V31.843
		c0-0.184,0.057-0.34,0.17-0.467c0.114-0.126,0.263-0.19,0.444-0.19h1.813c0.182,0,0.33,0.063,0.443,0.19
		c0.114,0.127,0.172,0.283,0.172,0.467v24.025C375.254,56.144,375.157,56.381,374.963,56.576z"/>
	<path fill="#1A1A1A" d="M157.095,80.234c-0.138,0.137-0.3,0.205-0.483,0.205h-10.613v11.336c0,0.185-0.068,0.347-0.207,0.485
		c-0.139,0.139-0.3,0.208-0.484,0.208h-1.763c-0.185,0-0.346-0.069-0.483-0.208c-0.139-0.138-0.208-0.299-0.208-0.484V72.972
		c0-2.304,0.616-3.952,1.85-4.943c1.232-0.99,3.07-1.486,5.514-1.486c0.507,0,1.077,0.006,1.711,0.018s1.262,0.023,1.884,0.034
		c0.623,0.012,1.21,0.029,1.764,0.052c0.553,0.023,1.014,0.058,1.383,0.104c0.114,0.023,0.201,0.081,0.259,0.173
		c0.058,0.092,0.087,0.196,0.087,0.311v1.729c0,0.276-0.127,0.415-0.381,0.415h-6.672c-0.922,0-1.659,0.064-2.213,0.19
		c-0.553,0.127-0.979,0.334-1.278,0.622c-0.3,0.289-0.501,0.657-0.604,1.106c-0.104,0.449-0.156,1.008-0.156,1.676v4.805h10.613
		c0.184,0,0.346,0.068,0.483,0.205c0.138,0.137,0.208,0.296,0.208,0.478v1.296C157.303,79.939,157.233,80.098,157.095,80.234z"/>
	<path fill="#1A1A1A" d="M176.263,92.365c-0.058,0.092-0.145,0.149-0.259,0.173c-0.324,0.046-0.762,0.074-1.314,0.086
		c-0.553,0.011-1.146,0.028-1.779,0.052c-0.635,0.022-1.274,0.035-1.92,0.035c-0.645,0-1.221,0-1.728,0
		c-2.443,0-4.281-0.496-5.514-1.487c-1.233-0.99-1.85-2.638-1.85-4.943V72.972c0-2.304,0.616-3.952,1.85-4.943
		c1.232-0.99,3.07-1.486,5.514-1.486c0.507,0,1.077,0.006,1.711,0.018s1.262,0.023,1.884,0.034c0.623,0.012,1.21,0.029,1.764,0.052
		c0.553,0.023,1.014,0.058,1.383,0.104c0.114,0.023,0.201,0.081,0.259,0.173c0.058,0.092,0.087,0.196,0.087,0.311v1.729
		c0,0.276-0.127,0.415-0.381,0.415h-6.672c-0.922,0-1.659,0.064-2.213,0.19c-0.553,0.127-0.979,0.334-1.278,0.622
		c-0.3,0.289-0.501,0.657-0.604,1.106c-0.104,0.449-0.156,1.008-0.156,1.676v4.805h10.613c0.184,0,0.346,0.068,0.483,0.205
		c0.138,0.137,0.208,0.296,0.208,0.478v1.296c0,0.183-0.07,0.342-0.208,0.478c-0.138,0.137-0.3,0.205-0.483,0.205h-10.613v5.829
		c0,0.647,0.053,1.203,0.156,1.665c0.104,0.463,0.305,0.839,0.604,1.128s0.726,0.497,1.278,0.625c0.554,0.127,1.291,0.19,2.213,0.19
		h6.672c0.254,0,0.381,0.138,0.381,0.415v1.763C176.35,92.169,176.321,92.273,176.263,92.365z"/>
	<path fill="#1A1A1A" d="M198.507,92.02c0,0.3-0.149,0.449-0.449,0.449h-2.212c-0.208,0-0.375-0.017-0.501-0.052
		c-0.127-0.035-0.26-0.167-0.398-0.397l-6.188-10.301h-0.311h-0.588c-0.576,0-1.124-0.006-1.643-0.018
		c-0.519-0.011-1.239-0.04-2.16-0.086v10.163c0,0.185-0.058,0.346-0.173,0.484s-0.266,0.208-0.449,0.208h-1.867
		c-0.185,0-0.334-0.069-0.449-0.208s-0.173-0.299-0.173-0.484V67.58c0-0.253,0.058-0.432,0.173-0.536
		c0.115-0.104,0.334-0.178,0.656-0.225c0.369-0.046,0.801-0.086,1.297-0.121c0.495-0.035,1.014-0.063,1.556-0.086
		c0.541-0.023,1.089-0.04,1.642-0.052c0.554-0.012,1.084-0.018,1.591-0.018c1.359,0,2.633,0.127,3.819,0.381
		s2.213,0.668,3.077,1.245c0.864,0.576,1.543,1.337,2.039,2.282c0.495,0.945,0.743,2.121,0.743,3.528v0.242
		c0,0.969-0.133,1.839-0.397,2.611s-0.64,1.447-1.123,2.023c-0.484,0.577-1.061,1.061-1.729,1.453
		c-0.669,0.392-1.395,0.691-2.178,0.899l6.291,10.503C198.473,91.801,198.507,91.905,198.507,92.02z M194.428,73.992
		c0-1.735-0.553-2.938-1.659-3.608c-1.105-0.671-2.742-1.006-4.908-1.006c-0.276,0-0.588,0-0.934,0s-0.697,0.006-1.055,0.018
		c-0.357,0.012-0.697,0.023-1.02,0.035c-0.323,0.012-0.588,0.029-0.795,0.052v9.506c0.761,0.023,1.486,0.041,2.178,0.052
		c0.691,0.012,1.232,0.017,1.625,0.017c1.06,0,1.999-0.075,2.817-0.225c0.817-0.15,1.504-0.411,2.057-0.78
		c0.553-0.37,0.974-0.868,1.262-1.492s0.432-1.399,0.432-2.325V73.992z"/>
	<path fill="#1A1A1A" d="M220.375,92.175c-0.193,0.196-0.428,0.294-0.701,0.294h-2.119c-0.556,0-0.925-0.184-1.109-0.553
		l-10.713-20.292c-0.023-0.069-0.058-0.104-0.104-0.104c-0.023,0-0.035,0.035-0.035,0.104v20.188c0,0.185-0.058,0.34-0.173,0.467
		c-0.115,0.127-0.265,0.19-0.449,0.19h-1.798c-0.185,0-0.334-0.022-0.449-0.069c-0.115-0.046-0.173-0.161-0.173-0.346V67.752
		c0-0.276,0.098-0.507,0.294-0.691c0.195-0.184,0.433-0.276,0.709-0.276h1.901c0.484,0,0.809,0.052,0.971,0.155
		c0.161,0.104,0.312,0.283,0.45,0.536l10.644,20.188l0.068,0.104c0.023,0,0.035-0.035,0.035-0.104V67.441
		c0-0.184,0.057-0.34,0.171-0.467c0.113-0.126,0.262-0.19,0.444-0.19h1.812c0.182,0,0.33,0.063,0.443,0.19
		c0.114,0.127,0.172,0.283,0.172,0.467v24.025C220.667,91.743,220.569,91.979,220.375,92.175z"/>
	<path fill="#1A1A1A" d="M244.242,91.916c0,0.369-0.196,0.553-0.588,0.553h-2.04c-0.161,0-0.288-0.052-0.38-0.156
		c-0.093-0.104-0.161-0.225-0.207-0.363L238.78,84h-8.953l-2.213,7.951c-0.046,0.138-0.127,0.259-0.242,0.363
		c-0.115,0.104-0.241,0.156-0.38,0.156h-2.039c-0.393,0-0.588-0.184-0.588-0.553c0-0.115,0.011-0.195,0.034-0.242l6.396-22.504
		c0.138-0.53,0.34-0.962,0.604-1.296s0.559-0.599,0.882-0.795c0.322-0.195,0.662-0.333,1.02-0.415
		c0.357-0.081,0.697-0.121,1.02-0.121c0.323,0,0.657,0.035,1.003,0.104c0.346,0.069,0.68,0.202,1.002,0.397
		c0.323,0.196,0.617,0.461,0.882,0.795c0.265,0.334,0.467,0.767,0.605,1.296l6.395,22.539
		C244.229,91.72,244.242,91.801,244.242,91.916z M234.977,69.896c-0.115-0.415-0.334-0.622-0.657-0.622
		c-0.346,0-0.576,0.208-0.691,0.622l-3.146,11.373h7.64L234.977,69.896z M239.575,59.871c0,0.092-0.047,0.185-0.139,0.276
		l-3.906,4.355c-0.161,0.185-0.288,0.317-0.38,0.397c-0.093,0.081-0.23,0.121-0.415,0.121h-1.866c-0.208,0-0.312-0.081-0.312-0.242
		c0-0.139,0.046-0.253,0.139-0.346l3.388-4.287c0.161-0.184,0.287-0.316,0.38-0.397c0.092-0.081,0.242-0.121,0.449-0.121h2.281
		C239.448,59.629,239.575,59.71,239.575,59.871z"/>
	<path fill="#1A1A1A" d="M265.763,92.175c-0.193,0.196-0.428,0.294-0.701,0.294h-2.119c-0.556,0-0.925-0.184-1.109-0.553
		l-10.713-20.292c-0.023-0.069-0.058-0.104-0.104-0.104c-0.023,0-0.035,0.035-0.035,0.104v20.188c0,0.185-0.058,0.34-0.173,0.467
		c-0.115,0.127-0.265,0.19-0.449,0.19h-1.798c-0.185,0-0.334-0.022-0.449-0.069c-0.115-0.046-0.173-0.161-0.173-0.346V67.752
		c0-0.276,0.098-0.507,0.294-0.691c0.195-0.184,0.433-0.276,0.709-0.276h1.901c0.484,0,0.809,0.052,0.971,0.155
		c0.161,0.104,0.312,0.283,0.45,0.536l10.644,20.188l0.068,0.104c0.023,0,0.035-0.035,0.035-0.104V67.441
		c0-0.184,0.057-0.34,0.171-0.467c0.113-0.126,0.262-0.19,0.444-0.19h1.812c0.182,0,0.33,0.063,0.443,0.19
		c0.114,0.127,0.172,0.283,0.172,0.467v24.025C266.054,91.743,265.957,91.979,265.763,92.175z"/>
	<path fill="#1A1A1A" d="M288.195,86.748c-0.496,1.348-1.199,2.466-2.109,3.353c-0.91,0.888-2.011,1.544-3.301,1.971
		c-1.291,0.426-2.731,0.64-4.321,0.64c-0.646,0-1.291-0.012-1.936-0.035c-0.646-0.023-1.251-0.052-1.815-0.086
		s-1.065-0.069-1.503-0.104c-0.438-0.034-0.784-0.074-1.037-0.121c-0.484-0.069-0.727-0.357-0.727-0.864V67.752
		c0-0.507,0.242-0.795,0.727-0.864c0.253-0.046,0.599-0.086,1.037-0.121c0.438-0.034,0.938-0.069,1.503-0.104
		s1.17-0.063,1.815-0.086c0.645-0.023,1.29-0.035,1.936-0.035c1.59,0,3.03,0.208,4.321,0.622c1.29,0.415,2.391,1.066,3.301,1.953
		c0.91,0.888,1.613,2.005,2.109,3.354c0.495,1.348,0.743,2.956,0.743,4.822v4.667C288.938,83.804,288.69,85.399,288.195,86.748z
		 M285.792,77.272c0-1.569-0.184-2.873-0.551-3.913c-0.368-1.039-0.879-1.864-1.534-2.476c-0.654-0.612-1.43-1.045-2.326-1.299
		c-0.896-0.254-1.86-0.381-2.895-0.381c-0.804,0-1.499,0.006-2.085,0.018c-0.586,0.012-1.166,0.041-1.74,0.086v20.637
		c0.551,0.046,1.126,0.069,1.724,0.069c0.597,0,1.298,0,2.102,0c1.034,0,1.999-0.126,2.895-0.38
		c0.896-0.254,1.672-0.692,2.326-1.316c0.655-0.624,1.166-1.454,1.534-2.493c0.367-1.039,0.551-2.331,0.551-3.878V77.272z"/>
	<path fill="#1A1A1A" d="M307.967,92.365c-0.058,0.092-0.145,0.149-0.259,0.173c-0.323,0.046-0.761,0.074-1.313,0.086
		c-0.554,0.011-1.147,0.028-1.78,0.052c-0.635,0.022-1.274,0.035-1.919,0.035c-0.646,0-1.222,0-1.729,0
		c-2.443,0-4.281-0.496-5.514-1.487c-1.233-0.99-1.85-2.638-1.85-4.943V72.972c0-2.304,0.616-3.952,1.85-4.943
		c1.232-0.99,3.07-1.486,5.514-1.486c0.507,0,1.077,0.006,1.711,0.018s1.262,0.023,1.884,0.034c0.623,0.012,1.21,0.029,1.764,0.052
		c0.553,0.023,1.014,0.058,1.383,0.104c0.114,0.023,0.201,0.081,0.259,0.173c0.058,0.092,0.087,0.196,0.087,0.311v1.729
		c0,0.276-0.127,0.415-0.381,0.415h-6.672c-0.922,0-1.659,0.064-2.212,0.19c-0.553,0.127-0.979,0.334-1.279,0.622
		c-0.3,0.289-0.501,0.657-0.604,1.106c-0.104,0.449-0.156,1.008-0.156,1.676v4.805h10.613c0.184,0,0.346,0.068,0.483,0.205
		c0.139,0.137,0.208,0.296,0.208,0.478v1.296c0,0.183-0.069,0.342-0.208,0.478c-0.138,0.137-0.3,0.205-0.483,0.205H296.75v5.829
		c0,0.647,0.053,1.203,0.156,1.665c0.104,0.463,0.305,0.839,0.604,1.128s0.727,0.497,1.279,0.625s1.29,0.19,2.212,0.19h6.672
		c0.254,0,0.381,0.138,0.381,0.415v1.763C308.054,92.169,308.025,92.273,307.967,92.365z"/>
	<path fill="#1A1A1A" d="M328.552,92.296c-0.138,0.116-0.3,0.173-0.483,0.173H314.76c-1.106,0-1.861-0.161-2.265-0.483
		s-0.604-0.943-0.604-1.864c0-0.299,0.039-0.645,0.12-1.036s0.213-0.713,0.398-0.967l12.375-17.982
		c0.069-0.115,0.104-0.208,0.104-0.277c0-0.161-0.115-0.241-0.346-0.241h-11.477c-0.185,0-0.346-0.052-0.484-0.157
		c-0.138-0.105-0.207-0.25-0.207-0.438v-1.645c0-0.187,0.069-0.333,0.207-0.437c0.139-0.105,0.3-0.158,0.484-0.158h12.307
		c0.968,0,1.699,0.144,2.194,0.432c0.496,0.288,0.744,0.905,0.744,1.849c0,0.323-0.047,0.68-0.139,1.072
		c-0.093,0.392-0.23,0.714-0.415,0.968l-12.341,18.01c-0.069,0.092-0.104,0.196-0.104,0.311c0,0.138,0.115,0.208,0.346,0.208h12.41
		c0.184,0,0.346,0.052,0.483,0.155c0.139,0.104,0.208,0.248,0.208,0.432v1.625C328.76,92.031,328.691,92.181,328.552,92.296z"/>
</g>
<g>
	<path fill="#666666" d="M148.369,110.817c0,0.114-0.061,0.171-0.181,0.171h-0.63c-0.051,0-0.089-0.016-0.118-0.048
		c-0.028-0.032-0.05-0.069-0.063-0.112l-0.694-2.456h-2.766l-0.684,2.456c-0.014,0.042-0.039,0.08-0.074,0.112
		c-0.036,0.032-0.075,0.048-0.117,0.048h-0.63c-0.122,0-0.183-0.057-0.183-0.171c0-0.035,0.004-0.06,0.012-0.075l1.975-6.951
		c0.043-0.164,0.104-0.297,0.187-0.4c0.082-0.103,0.173-0.185,0.273-0.246c0.099-0.061,0.204-0.103,0.314-0.128
		s0.216-0.038,0.314-0.038c0.1,0,0.203,0.011,0.311,0.032c0.106,0.021,0.209,0.063,0.31,0.123c0.1,0.061,0.19,0.143,0.272,0.246
		c0.081,0.104,0.144,0.237,0.187,0.4l1.976,6.962C148.366,110.757,148.369,110.782,148.369,110.817z M145.507,104.016
		c-0.035-0.128-0.104-0.192-0.203-0.192c-0.105,0-0.178,0.064-0.213,0.192l-0.972,3.513h2.36L145.507,104.016z"/>
	<path fill="#666666" d="M157.221,108.928c0,0.256-0.039,0.511-0.117,0.764s-0.216,0.48-0.411,0.684
		c-0.195,0.203-0.464,0.368-0.806,0.496c-0.343,0.128-0.776,0.192-1.304,0.192c-0.377,0-0.708-0.016-0.992-0.048
		c-0.285-0.032-0.545-0.065-0.78-0.101c-0.092-0.015-0.149-0.036-0.17-0.064c-0.021-0.029-0.033-0.071-0.033-0.128v-0.427
		c0-0.057,0.019-0.1,0.054-0.128s0.079-0.042,0.129-0.042h0.032c0.12,0.007,0.258,0.016,0.41,0.026
		c0.153,0.011,0.31,0.018,0.471,0.021c0.159,0.003,0.315,0.007,0.47,0.011c0.152,0.003,0.29,0.005,0.41,0.005
		c0.321,0,0.586-0.03,0.796-0.091s0.375-0.146,0.497-0.256c0.121-0.11,0.206-0.244,0.256-0.4c0.05-0.157,0.075-0.328,0.075-0.513
		c0-0.135-0.021-0.258-0.064-0.369c-0.043-0.11-0.114-0.219-0.214-0.326c-0.1-0.106-0.23-0.219-0.395-0.336
		c-0.164-0.118-0.367-0.251-0.608-0.4l-1.036-0.63c-0.491-0.299-0.86-0.6-1.105-0.902c-0.245-0.302-0.368-0.667-0.368-1.094
		c0-0.648,0.223-1.125,0.667-1.431c0.445-0.306,1.077-0.459,1.896-0.459c0.157,0,0.322,0.004,0.497,0.011
		c0.174,0.007,0.345,0.016,0.512,0.027c0.167,0.01,0.326,0.025,0.476,0.042c0.149,0.018,0.274,0.034,0.374,0.048
		c0.121,0.021,0.181,0.082,0.181,0.182v0.459c0,0.114-0.06,0.17-0.181,0.17h-0.021c-0.235-0.014-0.521-0.028-0.859-0.042
		c-0.339-0.014-0.664-0.021-0.978-0.021c-0.555,0-0.955,0.071-1.201,0.214c-0.246,0.142-0.369,0.409-0.369,0.801
		c0,0.128,0.024,0.244,0.07,0.347c0.046,0.103,0.115,0.205,0.207,0.304s0.213,0.201,0.362,0.304
		c0.149,0.104,0.323,0.216,0.521,0.336l0.979,0.587c0.313,0.185,0.574,0.363,0.783,0.534c0.209,0.171,0.382,0.342,0.517,0.513
		s0.23,0.349,0.287,0.534C157.193,108.515,157.221,108.714,157.221,108.928z"/>
	<path fill="#666666" d="M166.228,110.957c-0.018,0.029-0.044,0.046-0.08,0.053c-0.1,0.014-0.234,0.023-0.405,0.027
		s-0.354,0.009-0.55,0.016c-0.196,0.007-0.394,0.011-0.593,0.011s-0.377,0-0.534,0c-0.755,0-1.322-0.153-1.703-0.459
		c-0.381-0.306-0.571-0.815-0.571-1.527v-4.111c0-0.712,0.19-1.221,0.571-1.527s0.948-0.459,1.703-0.459
		c0.157,0,0.333,0.002,0.528,0.005c0.196,0.004,0.391,0.007,0.582,0.011c0.192,0.004,0.374,0.009,0.545,0.016
		c0.171,0.007,0.313,0.018,0.427,0.032c0.036,0.007,0.063,0.025,0.08,0.054c0.019,0.028,0.027,0.061,0.027,0.096v0.534
		c0,0.085-0.04,0.128-0.117,0.128h-2.062c-0.285,0-0.513,0.02-0.684,0.059s-0.302,0.103-0.395,0.192
		c-0.093,0.089-0.155,0.203-0.188,0.342c-0.031,0.139-0.048,0.312-0.048,0.518v1.484h3.278c0.057,0,0.106,0.021,0.149,0.063
		s0.064,0.091,0.064,0.148v0.4c0,0.056-0.021,0.105-0.064,0.147s-0.093,0.063-0.149,0.063h-3.278v1.801
		c0,0.2,0.017,0.372,0.048,0.514c0.032,0.143,0.095,0.259,0.188,0.349c0.093,0.089,0.224,0.153,0.395,0.193s0.398,0.059,0.684,0.059
		h2.062c0.077,0,0.117,0.042,0.117,0.128v0.544C166.255,110.896,166.247,110.928,166.228,110.957z"/>
	<path fill="#666666" d="M175.384,108.928c0,0.256-0.039,0.511-0.117,0.764s-0.216,0.48-0.411,0.684
		c-0.195,0.203-0.464,0.368-0.806,0.496c-0.343,0.128-0.776,0.192-1.304,0.192c-0.377,0-0.708-0.016-0.992-0.048
		c-0.285-0.032-0.545-0.065-0.78-0.101c-0.092-0.015-0.149-0.036-0.17-0.064c-0.021-0.029-0.033-0.071-0.033-0.128v-0.427
		c0-0.057,0.019-0.1,0.054-0.128s0.079-0.042,0.129-0.042h0.032c0.12,0.007,0.258,0.016,0.41,0.026
		c0.153,0.011,0.31,0.018,0.471,0.021c0.159,0.003,0.315,0.007,0.47,0.011c0.152,0.003,0.29,0.005,0.41,0.005
		c0.321,0,0.586-0.03,0.796-0.091s0.375-0.146,0.497-0.256c0.121-0.11,0.206-0.244,0.256-0.4c0.05-0.157,0.075-0.328,0.075-0.513
		c0-0.135-0.021-0.258-0.064-0.369c-0.043-0.11-0.114-0.219-0.214-0.326c-0.1-0.106-0.23-0.219-0.395-0.336
		c-0.164-0.118-0.367-0.251-0.608-0.4l-1.036-0.63c-0.491-0.299-0.86-0.6-1.105-0.902c-0.245-0.302-0.368-0.667-0.368-1.094
		c0-0.648,0.223-1.125,0.667-1.431c0.445-0.306,1.077-0.459,1.896-0.459c0.157,0,0.322,0.004,0.497,0.011
		c0.174,0.007,0.345,0.016,0.512,0.027c0.167,0.01,0.326,0.025,0.476,0.042c0.149,0.018,0.274,0.034,0.374,0.048
		c0.121,0.021,0.181,0.082,0.181,0.182v0.459c0,0.114-0.06,0.17-0.181,0.17h-0.021c-0.235-0.014-0.521-0.028-0.859-0.042
		c-0.339-0.014-0.664-0.021-0.978-0.021c-0.555,0-0.955,0.071-1.201,0.214c-0.246,0.142-0.369,0.409-0.369,0.801
		c0,0.128,0.024,0.244,0.07,0.347c0.046,0.103,0.115,0.205,0.207,0.304s0.213,0.201,0.362,0.304
		c0.149,0.104,0.323,0.216,0.521,0.336l0.979,0.587c0.313,0.185,0.574,0.363,0.783,0.534c0.209,0.171,0.382,0.342,0.517,0.513
		s0.23,0.349,0.287,0.534C175.356,108.515,175.384,108.714,175.384,108.928z"/>
	<path fill="#666666" d="M185.326,109.232c-0.143,0.423-0.342,0.771-0.598,1.041c-0.257,0.27-0.561,0.469-0.913,0.598
		s-0.739,0.192-1.159,0.192s-0.806-0.064-1.158-0.192c-0.352-0.128-0.656-0.328-0.913-0.598c-0.256-0.271-0.457-0.618-0.604-1.041
		c-0.146-0.424-0.218-0.931-0.218-1.522v-1.377c0-0.591,0.072-1.098,0.218-1.522c0.146-0.423,0.348-0.77,0.604-1.041
		c0.257-0.271,0.562-0.469,0.913-0.598c0.353-0.128,0.738-0.192,1.158-0.192s0.807,0.064,1.159,0.192s0.656,0.327,0.913,0.598
		c0.256,0.271,0.455,0.618,0.598,1.041c0.143,0.424,0.214,0.931,0.214,1.522v1.377C185.54,108.301,185.468,108.809,185.326,109.232z
		 M184.546,106.333c0-0.448-0.045-0.83-0.133-1.143s-0.214-0.569-0.377-0.769c-0.163-0.199-0.361-0.343-0.595-0.432
		s-0.495-0.134-0.786-0.134c-0.289,0-0.552,0.045-0.785,0.134s-0.434,0.233-0.6,0.432c-0.167,0.2-0.294,0.456-0.383,0.769
		c-0.088,0.313-0.133,0.694-0.133,1.143v1.377c0,0.448,0.045,0.83,0.133,1.143c0.089,0.313,0.216,0.57,0.383,0.769
		c0.166,0.199,0.366,0.343,0.6,0.432s0.496,0.134,0.785,0.134c0.291,0,0.553-0.045,0.786-0.134s0.432-0.233,0.595-0.432
		s0.289-0.456,0.377-0.769s0.133-0.694,0.133-1.143V106.333z"/>
	<path fill="#666666" d="M195.641,110.85c0,0.092-0.047,0.139-0.14,0.139h-0.683c-0.064,0-0.116-0.005-0.154-0.016
		c-0.04-0.011-0.081-0.051-0.123-0.123l-1.912-3.183h-0.096h-0.182c-0.178,0-0.347-0.001-0.508-0.005
		c-0.16-0.003-0.382-0.013-0.667-0.027v3.14c0,0.057-0.018,0.106-0.053,0.149c-0.036,0.042-0.082,0.064-0.14,0.064h-0.576
		c-0.058,0-0.104-0.021-0.139-0.064c-0.035-0.043-0.054-0.093-0.054-0.149v-7.475c0-0.079,0.019-0.134,0.054-0.166
		c0.035-0.032,0.103-0.055,0.203-0.069c0.113-0.014,0.246-0.026,0.4-0.038c0.152-0.01,0.313-0.019,0.48-0.026
		c0.166-0.007,0.336-0.012,0.507-0.016c0.171-0.003,0.335-0.005,0.491-0.005c0.42,0,0.813,0.04,1.18,0.118
		c0.367,0.079,0.684,0.207,0.95,0.385c0.267,0.178,0.477,0.413,0.631,0.705c0.152,0.292,0.229,0.655,0.229,1.089v0.075
		c0,0.299-0.041,0.568-0.123,0.807s-0.198,0.447-0.348,0.625s-0.327,0.328-0.533,0.449c-0.207,0.121-0.432,0.214-0.673,0.278
		l1.943,3.244C195.63,110.783,195.641,110.814,195.641,110.85z M194.38,105.281c0-0.536-0.17-0.908-0.513-1.115
		c-0.341-0.207-0.847-0.311-1.516-0.311c-0.086,0-0.182,0-0.289,0c-0.105,0-0.215,0.002-0.325,0.005
		c-0.11,0.004-0.215,0.007-0.314,0.011c-0.101,0.004-0.182,0.009-0.246,0.016v2.937c0.234,0.007,0.459,0.012,0.673,0.016
		c0.213,0.003,0.381,0.005,0.502,0.005c0.327,0,0.617-0.023,0.87-0.07s0.465-0.126,0.636-0.241c0.171-0.115,0.3-0.268,0.389-0.461
		c0.09-0.193,0.134-0.433,0.134-0.718V105.281z"/>
	<path fill="#666666" d="M204.53,110.957c-0.018,0.029-0.044,0.046-0.079,0.053c-0.101,0.014-0.235,0.023-0.406,0.027
		s-0.354,0.009-0.55,0.016c-0.196,0.007-0.394,0.011-0.593,0.011s-0.377,0-0.534,0c-0.755,0-1.321-0.153-1.703-0.459
		c-0.381-0.306-0.571-0.815-0.571-1.527v-4.111c0-0.712,0.19-1.221,0.571-1.527c0.382-0.306,0.948-0.459,1.703-0.459
		c0.157,0,0.333,0.002,0.528,0.005c0.196,0.004,0.391,0.007,0.582,0.011c0.193,0.004,0.374,0.009,0.545,0.016
		c0.171,0.007,0.313,0.018,0.428,0.032c0.035,0.007,0.062,0.025,0.079,0.054c0.019,0.028,0.027,0.061,0.027,0.096v0.534
		c0,0.085-0.039,0.128-0.117,0.128h-2.062c-0.285,0-0.512,0.02-0.684,0.059c-0.171,0.039-0.302,0.103-0.395,0.192
		c-0.093,0.089-0.155,0.203-0.187,0.342c-0.032,0.139-0.049,0.312-0.049,0.518v1.484h3.278c0.057,0,0.107,0.021,0.149,0.063
		c0.043,0.042,0.064,0.091,0.064,0.148v0.4c0,0.056-0.021,0.105-0.064,0.147c-0.042,0.042-0.093,0.063-0.149,0.063h-3.278v1.801
		c0,0.2,0.017,0.372,0.049,0.514c0.031,0.143,0.094,0.259,0.187,0.349c0.093,0.089,0.224,0.153,0.395,0.193
		c0.172,0.04,0.398,0.059,0.684,0.059h2.062c0.078,0,0.117,0.042,0.117,0.128v0.544C204.557,110.896,204.548,110.928,204.53,110.957
		z"/>
	<path fill="#666666" d="M213.686,108.928c0,0.256-0.038,0.511-0.117,0.764c-0.078,0.253-0.216,0.48-0.411,0.684
		c-0.195,0.203-0.464,0.368-0.806,0.496c-0.343,0.128-0.776,0.192-1.303,0.192c-0.378,0-0.709-0.016-0.993-0.048
		c-0.285-0.032-0.545-0.065-0.78-0.101c-0.092-0.015-0.149-0.036-0.17-0.064c-0.021-0.029-0.033-0.071-0.033-0.128v-0.427
		c0-0.057,0.019-0.1,0.054-0.128c0.036-0.028,0.079-0.042,0.129-0.042h0.032c0.121,0.007,0.258,0.016,0.41,0.026
		c0.153,0.011,0.31,0.018,0.471,0.021c0.159,0.003,0.316,0.007,0.47,0.011c0.152,0.003,0.29,0.005,0.411,0.005
		c0.32,0,0.585-0.03,0.795-0.091s0.375-0.146,0.497-0.256c0.121-0.11,0.206-0.244,0.256-0.4c0.05-0.157,0.075-0.328,0.075-0.513
		c0-0.135-0.021-0.258-0.064-0.369c-0.043-0.11-0.113-0.219-0.214-0.326c-0.1-0.106-0.23-0.219-0.395-0.336
		c-0.164-0.118-0.366-0.251-0.608-0.4l-1.036-0.63c-0.491-0.299-0.859-0.6-1.105-0.902c-0.245-0.302-0.368-0.667-0.368-1.094
		c0-0.648,0.223-1.125,0.667-1.431c0.445-0.306,1.077-0.459,1.896-0.459c0.157,0,0.322,0.004,0.497,0.011
		c0.174,0.007,0.345,0.016,0.513,0.027c0.166,0.01,0.325,0.025,0.475,0.042c0.149,0.018,0.274,0.034,0.374,0.048
		c0.121,0.021,0.182,0.082,0.182,0.182v0.459c0,0.114-0.061,0.17-0.182,0.17h-0.021c-0.235-0.014-0.521-0.028-0.859-0.042
		c-0.339-0.014-0.664-0.021-0.978-0.021c-0.555,0-0.955,0.071-1.201,0.214c-0.245,0.142-0.368,0.409-0.368,0.801
		c0,0.128,0.023,0.244,0.069,0.347c0.046,0.103,0.115,0.205,0.208,0.304c0.092,0.1,0.212,0.201,0.361,0.304
		c0.149,0.104,0.323,0.216,0.521,0.336l0.979,0.587c0.313,0.185,0.574,0.363,0.783,0.534c0.209,0.171,0.382,0.342,0.517,0.513
		s0.23,0.349,0.287,0.534C213.658,108.515,213.686,108.714,213.686,108.928z"/>
	<path fill="#666666" d="M228.534,110.957c-0.018,0.029-0.044,0.046-0.079,0.053c-0.101,0.014-0.235,0.023-0.406,0.027
		s-0.354,0.009-0.55,0.016c-0.196,0.007-0.394,0.011-0.593,0.011s-0.377,0-0.533,0c-0.756,0-1.322-0.153-1.704-0.459
		c-0.381-0.306-0.571-0.815-0.571-1.527v-4.111c0-0.712,0.19-1.221,0.571-1.527c0.382-0.306,0.948-0.459,1.704-0.459
		c0.156,0,0.332,0.002,0.528,0.005c0.195,0.004,0.39,0.007,0.581,0.011c0.193,0.004,0.374,0.009,0.545,0.016
		c0.171,0.007,0.313,0.018,0.428,0.032c0.035,0.007,0.062,0.025,0.079,0.054c0.019,0.028,0.027,0.061,0.027,0.096v0.534
		c0,0.085-0.039,0.128-0.117,0.128h-2.062c-0.285,0-0.512,0.02-0.684,0.059c-0.171,0.039-0.302,0.103-0.395,0.192
		c-0.093,0.089-0.155,0.203-0.187,0.342c-0.032,0.139-0.048,0.312-0.048,0.518v1.484h3.277c0.057,0,0.107,0.021,0.149,0.063
		c0.043,0.042,0.064,0.091,0.064,0.148v0.4c0,0.056-0.021,0.105-0.064,0.147c-0.042,0.042-0.093,0.063-0.149,0.063h-3.277v1.801
		c0,0.2,0.016,0.372,0.048,0.514c0.031,0.143,0.094,0.259,0.187,0.349c0.093,0.089,0.224,0.153,0.395,0.193
		c0.172,0.04,0.398,0.059,0.684,0.059h2.062c0.078,0,0.117,0.042,0.117,0.128v0.544
		C228.561,110.896,228.552,110.928,228.534,110.957z"/>
	<path fill="#666666" d="M238.69,110.898c-0.061,0.061-0.132,0.091-0.217,0.091h-0.655c-0.171,0-0.285-0.057-0.342-0.171
		l-3.31-6.268c-0.007-0.021-0.018-0.032-0.032-0.032c-0.007,0-0.01,0.01-0.01,0.032v6.236c0,0.057-0.019,0.105-0.054,0.144
		c-0.036,0.04-0.082,0.059-0.14,0.059h-0.555c-0.058,0-0.104-0.007-0.139-0.021s-0.054-0.05-0.054-0.107v-7.506
		c0-0.086,0.03-0.157,0.091-0.214c0.061-0.057,0.134-0.085,0.22-0.085h0.586c0.15,0,0.251,0.016,0.301,0.048
		c0.05,0.032,0.096,0.087,0.139,0.165l3.288,6.236l0.021,0.032c0.007,0,0.011-0.011,0.011-0.032v-6.247
		c0-0.057,0.017-0.105,0.053-0.144c0.035-0.039,0.08-0.059,0.137-0.059h0.56c0.057,0,0.103,0.02,0.138,0.059
		c0.034,0.039,0.053,0.087,0.053,0.144v7.421C238.78,110.765,238.75,110.837,238.69,110.898z"/>
	<path fill="#666666" d="M253.996,108.928c0,0.256-0.039,0.511-0.118,0.764c-0.078,0.253-0.215,0.48-0.41,0.684
		c-0.196,0.203-0.465,0.368-0.807,0.496s-0.776,0.192-1.303,0.192c-0.378,0-0.709-0.016-0.993-0.048
		c-0.285-0.032-0.545-0.065-0.779-0.101c-0.093-0.015-0.15-0.036-0.171-0.064c-0.021-0.029-0.032-0.071-0.032-0.128v-0.427
		c0-0.057,0.018-0.1,0.053-0.128c0.036-0.028,0.079-0.042,0.129-0.042h0.032c0.121,0.007,0.258,0.016,0.411,0.026
		c0.152,0.011,0.309,0.018,0.47,0.021c0.16,0.003,0.316,0.007,0.47,0.011s0.29,0.005,0.411,0.005c0.32,0,0.585-0.03,0.795-0.091
		s0.376-0.146,0.497-0.256s0.207-0.244,0.256-0.4c0.05-0.157,0.075-0.328,0.075-0.513c0-0.135-0.021-0.258-0.063-0.369
		c-0.044-0.11-0.114-0.219-0.215-0.326c-0.1-0.106-0.23-0.219-0.395-0.336c-0.164-0.118-0.366-0.251-0.608-0.4l-1.036-0.63
		c-0.491-0.299-0.859-0.6-1.105-0.902c-0.245-0.302-0.368-0.667-0.368-1.094c0-0.648,0.223-1.125,0.668-1.431
		c0.444-0.306,1.076-0.459,1.895-0.459c0.157,0,0.322,0.004,0.497,0.011c0.174,0.007,0.345,0.016,0.513,0.027
		c0.167,0.01,0.325,0.025,0.475,0.042c0.149,0.018,0.274,0.034,0.374,0.048c0.121,0.021,0.182,0.082,0.182,0.182v0.459
		c0,0.114-0.061,0.17-0.182,0.17h-0.021c-0.235-0.014-0.521-0.028-0.859-0.042c-0.339-0.014-0.664-0.021-0.978-0.021
		c-0.555,0-0.955,0.071-1.201,0.214c-0.245,0.142-0.368,0.409-0.368,0.801c0,0.128,0.023,0.244,0.069,0.347
		c0.046,0.103,0.115,0.205,0.208,0.304c0.092,0.1,0.213,0.201,0.361,0.304c0.149,0.104,0.323,0.216,0.522,0.336l0.979,0.587
		c0.312,0.185,0.573,0.363,0.782,0.534c0.209,0.171,0.382,0.342,0.517,0.513s0.23,0.349,0.287,0.534
		C253.966,108.515,253.996,108.714,253.996,108.928z"/>
	<path fill="#666666" d="M263.002,110.957c-0.019,0.029-0.045,0.046-0.08,0.053c-0.101,0.014-0.235,0.023-0.406,0.027
		c-0.17,0.003-0.354,0.009-0.55,0.016c-0.196,0.007-0.394,0.011-0.593,0.011s-0.377,0-0.533,0c-0.755,0-1.322-0.153-1.703-0.459
		c-0.382-0.306-0.572-0.815-0.572-1.527v-4.111c0-0.712,0.19-1.221,0.572-1.527c0.381-0.306,0.948-0.459,1.703-0.459
		c0.156,0,0.332,0.002,0.528,0.005c0.195,0.004,0.39,0.007,0.582,0.011c0.192,0.004,0.373,0.009,0.545,0.016
		c0.17,0.007,0.313,0.018,0.427,0.032c0.035,0.007,0.062,0.025,0.08,0.054c0.018,0.028,0.026,0.061,0.026,0.096v0.534
		c0,0.085-0.039,0.128-0.117,0.128h-2.062c-0.285,0-0.512,0.02-0.683,0.059c-0.172,0.039-0.303,0.103-0.396,0.192
		c-0.092,0.089-0.155,0.203-0.187,0.342c-0.032,0.139-0.048,0.312-0.048,0.518v1.484h3.277c0.057,0,0.107,0.021,0.149,0.063
		c0.043,0.042,0.064,0.091,0.064,0.148v0.4c0,0.056-0.021,0.105-0.064,0.147c-0.042,0.042-0.093,0.063-0.149,0.063h-3.277v1.801
		c0,0.2,0.016,0.372,0.048,0.514c0.031,0.143,0.095,0.259,0.187,0.349c0.093,0.089,0.224,0.153,0.396,0.193
		c0.171,0.04,0.397,0.059,0.683,0.059h2.062c0.078,0,0.117,0.042,0.117,0.128v0.544C263.029,110.896,263.02,110.928,263.002,110.957
		z"/>
	<path fill="#666666" d="M272.33,110.901c-0.264,0.043-0.558,0.081-0.881,0.113c-0.325,0.032-0.739,0.049-1.244,0.049
		c-0.335,0-0.668-0.059-0.999-0.176c-0.331-0.118-0.626-0.306-0.886-0.566c-0.261-0.26-0.472-0.602-0.636-1.025
		s-0.245-0.941-0.245-1.554v-1.431c0-0.648,0.085-1.186,0.256-1.613s0.392-0.769,0.662-1.025c0.271-0.256,0.576-0.436,0.918-0.54
		c0.342-0.103,0.684-0.155,1.025-0.155c0.498,0,0.909,0.016,1.233,0.048c0.323,0.032,0.589,0.066,0.796,0.102
		c0.049,0.007,0.092,0.021,0.128,0.043c0.035,0.021,0.054,0.061,0.054,0.118v0.534c0,0.071-0.047,0.106-0.14,0.106h-0.042
		c-0.157-0.014-0.309-0.026-0.454-0.037c-0.146-0.011-0.298-0.018-0.454-0.021c-0.156-0.003-0.325-0.007-0.507-0.011
		c-0.182-0.003-0.387-0.005-0.614-0.005c-0.249,0-0.487,0.038-0.716,0.112c-0.228,0.075-0.429,0.206-0.604,0.395
		c-0.174,0.188-0.313,0.439-0.416,0.751c-0.103,0.313-0.154,0.71-0.154,1.194v1.428c0,0.441,0.046,0.816,0.139,1.125
		c0.092,0.309,0.221,0.563,0.384,0.762c0.164,0.199,0.354,0.343,0.571,0.432c0.218,0.088,0.451,0.133,0.7,0.133
		c0.327,0,0.601-0.007,0.822-0.021c0.22-0.014,0.395-0.028,0.522-0.042v-3.054c0-0.057,0.019-0.106,0.054-0.149
		s0.082-0.064,0.139-0.064h0.576c0.058,0,0.105,0.021,0.145,0.064s0.059,0.092,0.059,0.149v3.594
		C272.521,110.801,272.458,110.88,272.33,110.901z"/>
	<path fill="#666666" d="M282.111,110.348c-0.478,0.477-1.15,0.715-2.019,0.715c-0.861,0-1.532-0.239-2.013-0.715
		c-0.48-0.477-0.721-1.224-0.721-2.243v-4.848c0-0.057,0.02-0.105,0.06-0.144c0.039-0.039,0.088-0.059,0.146-0.059h0.583
		c0.058,0,0.106,0.02,0.146,0.059c0.04,0.039,0.06,0.087,0.06,0.145v4.854c0,0.343,0.028,0.647,0.085,0.915
		c0.057,0.268,0.154,0.49,0.291,0.668c0.139,0.178,0.318,0.313,0.542,0.406s0.497,0.139,0.822,0.139
		c0.332,0,0.608-0.046,0.828-0.139c0.219-0.093,0.397-0.228,0.536-0.406c0.138-0.178,0.234-0.399,0.292-0.663
		c0.056-0.264,0.085-0.57,0.085-0.92v-4.854c0-0.057,0.02-0.105,0.059-0.145c0.04-0.039,0.089-0.059,0.146-0.059h0.582
		c0.058,0,0.106,0.02,0.146,0.059c0.039,0.039,0.059,0.087,0.059,0.144v4.848C282.826,109.124,282.587,109.871,282.111,110.348z"/>
	<path fill="#666666" d="M293.087,110.85c0,0.092-0.047,0.139-0.139,0.139h-0.684c-0.064,0-0.115-0.005-0.154-0.016
		c-0.04-0.011-0.081-0.051-0.123-0.123l-1.912-3.183h-0.096h-0.182c-0.178,0-0.347-0.001-0.507-0.005s-0.383-0.013-0.668-0.027v3.14
		c0,0.057-0.018,0.106-0.053,0.149c-0.036,0.042-0.082,0.064-0.139,0.064h-0.576c-0.058,0-0.104-0.021-0.14-0.064
		c-0.035-0.043-0.054-0.093-0.054-0.149v-7.475c0-0.079,0.019-0.134,0.054-0.166c0.035-0.032,0.104-0.055,0.203-0.069
		c0.113-0.014,0.247-0.026,0.4-0.038c0.153-0.01,0.313-0.019,0.48-0.026c0.167-0.007,0.337-0.012,0.508-0.016
		c0.17-0.003,0.334-0.005,0.49-0.005c0.42,0,0.813,0.04,1.18,0.118c0.367,0.079,0.684,0.207,0.95,0.385
		c0.268,0.178,0.478,0.413,0.631,0.705s0.229,0.655,0.229,1.089v0.075c0,0.299-0.041,0.568-0.123,0.807s-0.197,0.447-0.347,0.625
		s-0.328,0.328-0.534,0.449s-0.431,0.214-0.673,0.278l1.943,3.244C293.077,110.783,293.087,110.814,293.087,110.85z
		 M291.827,105.281c0-0.536-0.17-0.908-0.512-1.115s-0.848-0.311-1.517-0.311c-0.085,0-0.182,0-0.288,0s-0.215,0.002-0.325,0.005
		c-0.111,0.004-0.216,0.007-0.315,0.011c-0.1,0.004-0.182,0.009-0.246,0.016v2.937c0.235,0.007,0.46,0.012,0.673,0.016
		c0.214,0.003,0.381,0.005,0.502,0.005c0.328,0,0.617-0.023,0.871-0.07c0.252-0.046,0.464-0.126,0.635-0.241
		c0.171-0.115,0.301-0.268,0.39-0.461s0.133-0.433,0.133-0.718V105.281z"/>
	<path fill="#666666" d="M302.912,109.232c-0.143,0.423-0.342,0.771-0.599,1.041c-0.256,0.27-0.56,0.469-0.912,0.598
		s-0.739,0.192-1.159,0.192s-0.807-0.064-1.158-0.192c-0.353-0.128-0.657-0.328-0.913-0.598c-0.256-0.271-0.458-0.618-0.604-1.041
		c-0.146-0.424-0.219-0.931-0.219-1.522v-1.377c0-0.591,0.072-1.098,0.219-1.522c0.146-0.423,0.348-0.77,0.604-1.041
		c0.256-0.271,0.561-0.469,0.913-0.598c0.352-0.128,0.738-0.192,1.158-0.192s0.807,0.064,1.159,0.192s0.656,0.327,0.912,0.598
		c0.257,0.271,0.456,0.618,0.599,1.041c0.142,0.424,0.213,0.931,0.213,1.522v1.377C303.125,108.301,303.053,108.809,302.912,109.232
		z M302.132,106.333c0-0.448-0.045-0.83-0.133-1.143c-0.089-0.313-0.215-0.569-0.377-0.769c-0.164-0.199-0.361-0.343-0.596-0.432
		c-0.233-0.089-0.495-0.134-0.785-0.134s-0.552,0.045-0.785,0.134c-0.234,0.089-0.435,0.233-0.601,0.432
		c-0.167,0.2-0.294,0.456-0.382,0.769c-0.089,0.313-0.133,0.694-0.133,1.143v1.377c0,0.448,0.044,0.83,0.133,1.143
		c0.088,0.313,0.215,0.57,0.382,0.769c0.166,0.199,0.366,0.343,0.601,0.432c0.233,0.089,0.495,0.134,0.785,0.134
		s0.552-0.045,0.785-0.134c0.234-0.089,0.432-0.233,0.596-0.432c0.162-0.199,0.288-0.456,0.377-0.769
		c0.088-0.313,0.133-0.694,0.133-1.143V106.333z"/>
	<path fill="#666666" d="M312.308,108.928c0,0.256-0.039,0.511-0.117,0.764c-0.079,0.253-0.216,0.48-0.411,0.684
		c-0.196,0.203-0.465,0.368-0.807,0.496s-0.775,0.192-1.303,0.192c-0.378,0-0.708-0.016-0.993-0.048
		c-0.284-0.032-0.545-0.065-0.779-0.101c-0.093-0.015-0.149-0.036-0.171-0.064c-0.021-0.029-0.032-0.071-0.032-0.128v-0.427
		c0-0.057,0.018-0.1,0.054-0.128c0.035-0.028,0.078-0.042,0.128-0.042h0.032c0.121,0.007,0.258,0.016,0.411,0.026
		c0.152,0.011,0.31,0.018,0.47,0.021s0.316,0.007,0.47,0.011s0.29,0.005,0.411,0.005c0.32,0,0.585-0.03,0.795-0.091
		s0.376-0.146,0.497-0.256s0.207-0.244,0.256-0.4c0.051-0.157,0.075-0.328,0.075-0.513c0-0.135-0.021-0.258-0.063-0.369
		c-0.043-0.11-0.114-0.219-0.215-0.326c-0.099-0.106-0.23-0.219-0.395-0.336c-0.164-0.118-0.366-0.251-0.608-0.4l-1.035-0.63
		c-0.492-0.299-0.86-0.6-1.105-0.902c-0.246-0.302-0.369-0.667-0.369-1.094c0-0.648,0.223-1.125,0.668-1.431
		c0.444-0.306,1.076-0.459,1.895-0.459c0.157,0,0.323,0.004,0.497,0.011c0.174,0.007,0.345,0.016,0.513,0.027
		c0.167,0.01,0.325,0.025,0.475,0.042c0.149,0.018,0.274,0.034,0.374,0.048c0.121,0.021,0.182,0.082,0.182,0.182v0.459
		c0,0.114-0.061,0.17-0.182,0.17h-0.021c-0.235-0.014-0.521-0.028-0.859-0.042c-0.338-0.014-0.664-0.021-0.978-0.021
		c-0.555,0-0.955,0.071-1.201,0.214c-0.245,0.142-0.368,0.409-0.368,0.801c0,0.128,0.023,0.244,0.069,0.347
		c0.046,0.103,0.115,0.205,0.208,0.304c0.092,0.1,0.213,0.201,0.361,0.304c0.149,0.104,0.323,0.216,0.522,0.336l0.979,0.587
		c0.312,0.185,0.573,0.363,0.782,0.534c0.21,0.171,0.382,0.342,0.517,0.513s0.231,0.349,0.287,0.534
		C312.28,108.515,312.308,108.714,312.308,108.928z"/>
</g>
</svg>
