<svg id="Capa_1" data-name="Capa 1" xmlns="http://www.w3.org/2000/svg" viewBox="0 0 742.92 158.62"><defs><style>.cls-1,.cls-2{fill:#fff}.cls-1{fill-rule:evenodd}</style></defs><path class="cls-1" d="M57.82 40.23a58 58 0 0157 48h-40.2l-7.2-16-9.34-21.77-9.34 21.79L39.4 94h76.09c.09 1.39.15 2.79.15 4.2A57.81 57.81 0 01.94 108.67l39.61.13 8.06 15.7L58 144.56l9.35-20.06 9.35-20H.34A55.57 55.57 0 010 98.23a58 58 0 0157.82-58zM166.82 90.11a40.07 40.07 0 01-9.9-1.09 50.21 50.21 0 01-7.93-2.7V74.66h1.13a27.59 27.59 0 008.13 4.81 24.41 24.41 0 008.63 1.68 22.88 22.88 0 002.79-.23 9.51 9.51 0 002.78-.73 6 6 0 002.18-1.56 3.84 3.84 0 00.89-2.66 3.64 3.64 0 00-1.45-3 9.47 9.47 0 00-3.46-1.68q-2.51-.66-5.36-1.25a43.45 43.45 0 01-5.31-1.45q-5.72-2-8.18-5.4a14 14 0 01-2.47-8.5 13.2 13.2 0 015.83-11.15q5.82-4.27 14.56-4.26a43.43 43.43 0 018.72.88 38.68 38.68 0 017.76 2.41v11.2h-1.1a24.21 24.21 0 00-6.66-4 21.14 21.14 0 00-8.1-1.62 17.05 17.05 0 00-2.9.23 11.56 11.56 0 00-2.7.9 5.42 5.42 0 00-2 1.56 3.58 3.58 0 00-.84 2.32 3.69 3.69 0 001.34 3 13.42 13.42 0 005.15 2l4.77 1.09a42.08 42.08 0 014.88 1.48 16.69 16.69 0 017.6 5 12.79 12.79 0 012.48 8.21 14.17 14.17 0 01-5.74 11.77q-5.76 4.42-15.54 4.44zm35.65-.89l16.57-49h13.44l16.57 49.05h-12.68l-3.08-10H217.9l-3.07 10zm28.13-18.91l-5-16.16-5 16.16zm78 18.91h-11.83L277.87 55v34.22h-11.26v-49h15.12l15.64 28.1V40.17h11.27v49.05zm39.73 1q-11 0-17.53-6.67t-6.48-18.77q0-11.65 6.51-18.58t17.54-6.94a39.77 39.77 0 015.27.32 36.37 36.37 0 014.49.93 32.36 32.36 0 013.65 1.35c1.32.57 2.38 1.06 3.19 1.48V55h-1.24q-.9-.8-2.25-1.89a26.07 26.07 0 00-3.02-2.11 20 20 0 00-3.78-1.8 12.41 12.41 0 00-4.29-.74 13.72 13.72 0 00-4.89.84 11.62 11.62 0 00-4.24 2.91 14.05 14.05 0 00-3 5.07 22.23 22.23 0 00-1.16 7.55 21.34 21.34 0 001.21 7.7 14 14 0 003.2 5 11.49 11.49 0 004.26 2.68 14.19 14.19 0 004.7.82 13.42 13.42 0 004.65-.81 18.45 18.45 0 003.72-1.79 24.44 24.44 0 002.9-2.08c.83-.71 1.56-1.32 2.17-1.88H365V86l-3.12 1.44a29.32 29.32 0 01-3.67 1.36 40.77 40.77 0 01-4.31 1.06 34.26 34.26 0 01-5.54.36zm79.22-25.47q0 11.91-6.35 18.72t-17.43 6.81q-11.12 0-17.43-6.9t-6.33-18.63q0-11.82 6.33-18.69t17.43-6.87q11.06 0 17.43 6.84t6.35 18.72zm-12.72 0a26.48 26.48 0 00-.91-7.47 15.09 15.09 0 00-2.42-5.06 9.32 9.32 0 00-3.5-2.94 10.25 10.25 0 00-4.14-.87 10 10 0 00-4.12.81 9.84 9.84 0 00-3.55 2.87 14.89 14.89 0 00-2.45 5.07 26.7 26.7 0 00-.94 7.55 26.46 26.46 0 00.89 7.5 15 15 0 002.44 5 9 9 0 003.58 2.91 10.21 10.21 0 004.15.88 10 10 0 004.23-.94 9.14 9.14 0 003.52-2.92 16.35 16.35 0 002.44-5 26.62 26.62 0 00.85-7.45zm73.31 24.53h-15l-13.65-18h-4.43v18h-12.24v-49h19.74a43.16 43.16 0 017.1.51 15.36 15.36 0 015.6 2.13A11.84 11.84 0 01481 53.64a15.34 15.34 0 01-2.53 9.15 18 18 0 01-6.79 5.57l16.5 20.86zm-19.83-34a6.77 6.77 0 00-.71-3.19 4.69 4.69 0 00-2.35-2 8.64 8.64 0 00-2.58-.62c-.94-.09-2.11-.14-3.51-.14h-4.12V62.4h3.52a25.62 25.62 0 004.36-.31 6.34 6.34 0 003.08-1.33 5.74 5.74 0 001.76-2.21 8.16 8.16 0 00.59-3.35zM166.82 157.17a40.07 40.07 0 01-9.9-1.09 50.21 50.21 0 01-7.93-2.7v-11.66h1.13a27.59 27.59 0 008.13 4.81 24.63 24.63 0 008.63 1.68 22.88 22.88 0 002.79-.23 9.51 9.51 0 002.78-.73 6 6 0 002.18-1.56 3.84 3.84 0 00.89-2.66 3.64 3.64 0 00-1.45-3 9.47 9.47 0 00-3.46-1.68q-2.51-.66-5.36-1.25a43.45 43.45 0 01-5.31-1.45q-5.72-2-8.18-5.4a14 14 0 01-2.47-8.5 13.2 13.2 0 015.83-11.15q5.82-4.27 14.56-4.26a43.43 43.43 0 018.72.88 38.68 38.68 0 017.76 2.41v11.2h-1.1a24.21 24.21 0 00-6.66-4 21.14 21.14 0 00-8.1-1.62 17.05 17.05 0 00-2.9.23 11.56 11.56 0 00-2.7.9 5.42 5.42 0 00-2 1.56 3.56 3.56 0 00-.84 2.32 3.69 3.69 0 001.34 3 13.42 13.42 0 005.15 2l4.77 1.09a42.08 42.08 0 014.89 1.45 16.69 16.69 0 017.6 5 12.79 12.79 0 012.49 8.24 14.17 14.17 0 01-5.74 11.77q-5.76 4.43-15.54 4.44zm30-.89v-49h33.17v9.36H209v8.6h19.3v9.36H209v12.38h20.91v9.35zm84.87-2.8a62.36 62.36 0 01-8.39 2.58 43.1 43.1 0 01-10.16 1.24q-11.55 0-18.43-6.67t-6.87-18.92q0-11.54 6.87-18.48t18.79-7a35.41 35.41 0 0110 1.17 53.07 53.07 0 018 3.18v11.49h-1.13c-.58-.46-1.44-1.11-2.55-2a24.85 24.85 0 00-3.24-2.15 21.34 21.34 0 00-4.27-1.83 17.18 17.18 0 00-5.12-.75 16 16 0 00-5.76 1 13.14 13.14 0 00-4.65 3 14.21 14.21 0 00-3.08 5 20.13 20.13 0 00-1.13 7q0 8.6 4.31 12.68t11.8 4.08h1.54c.59 0 1.11-.06 1.55-.1v-9.62h-9.52v-9.18h21.45v24.14zm31.51 3.82q-9.88 0-15.21-4.78t-5.31-14v-31.29H305v30.61c0 3.4.64 5.94 1.92 7.6s3.37 2.51 6.28 2.51 4.91-.8 6.24-2.41 2-4.17 2-7.7v-30.61h12.26v31.29q0 9.06-5.18 13.92c-3.47 3.24-8.58 4.86-15.37 4.86zm77.75-1h-15l-13.65-18h-4.5v18h-12.26v-49h19.73a43.29 43.29 0 017.11.51 15.42 15.42 0 015.6 2.13 11.86 11.86 0 015.73 10.83 15.27 15.27 0 01-2.53 9.15 17.9 17.9 0 01-6.79 5.57l16.51 20.86zm-19.83-34a6.77 6.77 0 00-.71-3.19 4.74 4.74 0 00-2.35-2 8.64 8.64 0 00-2.58-.62c-.94-.09-2.11-.14-3.52-.14h-4.16v13.2h3.51a25.67 25.67 0 004.37-.31 6.42 6.42 0 003.05-1.33 5.84 5.84 0 001.76-2.21 8.33 8.33 0 00.58-3.35zm70.5 9.51q0 11.91-6.35 18.72t-17.43 6.81q-11.12 0-17.42-6.9T394 131.77q0-11.82 6.34-18.69t17.42-6.87q11.07 0 17.43 6.84t6.35 18.72zm-12.71 0a26.85 26.85 0 00-.91-7.47 15.28 15.28 0 00-2.42-5.06 9.28 9.28 0 00-3.58-2.88 10.21 10.21 0 00-4.13-.87 10 10 0 00-4.12.81 9.76 9.76 0 00-3.55 2.87 14.89 14.89 0 00-2.45 5.07 31.24 31.24 0 00-.06 15.05 15.39 15.39 0 002.44 5 9.14 9.14 0 003.59 2.91 10.21 10.21 0 004.15.88 10 10 0 004.22-.94 9.06 9.06 0 003.52-2.92 15.91 15.91 0 002.44-5 26.21 26.21 0 00.86-7.45zm37.53 25.42a40 40 0 01-9.89-1.09 49.52 49.52 0 01-7.93-2.7v-11.72h1.13a27.67 27.67 0 008.12 4.81 24.64 24.64 0 008.64 1.68 22.88 22.88 0 002.79-.23 9.51 9.51 0 002.78-.73 6 6 0 002.17-1.56 3.84 3.84 0 00.89-2.66 3.64 3.64 0 00-1.45-3 9.31 9.31 0 00-3.46-1.68c-1.66-.44-3.45-.86-5.35-1.25a43.62 43.62 0 01-5.32-1.45q-5.7-2-8.17-5.4a14 14 0 01-2.48-8.5 13.21 13.21 0 015.84-11.15q5.82-4.27 14.56-4.26a43.41 43.41 0 018.71.88 38.48 38.48 0 017.76 2.41v11.2h-1.09a24.27 24.27 0 00-6.67-4 21.12 21.12 0 00-8.09-1.62 17 17 0 00-2.9.23 11.26 11.26 0 00-2.7.9 5.34 5.34 0 00-2 1.56 3.56 3.56 0 00-.84 2.32 3.68 3.68 0 001.33 3 13.42 13.42 0 005.15 2l4.77 1.09a41 41 0 014.89 1.45 16.58 16.58 0 017.6 5 12.74 12.74 0 012.49 8.21 14.18 14.18 0 01-5.75 11.77q-5.78 4.42-15.58 4.43z"/><g><path class="cls-2" d="M665.92 127.75l-1.7-4.73h-9l-1.7 4.73H648l8.63-22.52H663l8.64 22.52zm-3.44-9.59l-2.73-7.59-2.75 7.59zM689.51 127.75L679.26 114v13.74h-5.37v-22.51H679L689.29 119v-13.77h5.38v22.52zm-11.7-27a5.56 5.56 0 012.11-1.9 5.86 5.86 0 012.51-.54 5.77 5.77 0 011.47.17 7 7 0 011.08.4l.83.4a1.6 1.6 0 00.7.19 1.7 1.7 0 00.88-.29 4.8 4.8 0 001-.82l2.75 2.67a5.56 5.56 0 01-2.11 1.9 5.82 5.82 0 01-2.5.54 5.25 5.25 0 01-1.46-.18 8.37 8.37 0 01-1.09-.41l-.84-.39a1.55 1.55 0 00-.7-.18 1.77 1.77 0 00-.88.28 5.15 5.15 0 00-1 .82zM709.71 104.81a12.59 12.59 0 014.78.88 11.21 11.21 0 013.76 2.44 11 11 0 012.45 3.69 12.8 12.8 0 010 9.33 10.92 10.92 0 01-2.45 3.7 11.21 11.21 0 01-3.76 2.44 13.45 13.45 0 01-9.57 0 11.31 11.31 0 01-3.76-2.44 11.07 11.07 0 01-2.45-3.7 12.8 12.8 0 010-9.33 11.13 11.13 0 012.45-3.69 11.31 11.31 0 013.76-2.44 12.61 12.61 0 014.79-.88zm0 5.15a6.7 6.7 0 00-2.53.47 5.85 5.85 0 00-2 1.35 6.21 6.21 0 00-1.29 2.06 7.71 7.71 0 000 5.3 6.31 6.31 0 001.29 2.06 5.85 5.85 0 002 1.35 7 7 0 005.06 0 5.71 5.71 0 002-1.35 6.31 6.31 0 001.29-2.06 7.71 7.71 0 000-5.3 6.21 6.21 0 00-1.29-2.06 5.71 5.71 0 00-2-1.35 6.7 6.7 0 00-2.53-.43zM740.22 111.62c-.41-.24-.85-.47-1.32-.7a11 11 0 00-1.52-.61 12.57 12.57 0 00-1.71-.43 10.59 10.59 0 00-1.9-.16 6.93 6.93 0 00-1.42.13 3.71 3.71 0 00-1.11.38 2 2 0 00-.74.64 1.45 1.45 0 00-.27.87 1.13 1.13 0 00.37.88 3 3 0 001 .59 8.94 8.94 0 001.48.4l1.77.32.94.16a15.69 15.69 0 013 .82 8.15 8.15 0 012.24 1.33 5.47 5.47 0 011.42 1.87 5.69 5.69 0 01.5 2.46 7 7 0 01-.79 3.46 7 7 0 01-2.12 2.35 9.23 9.23 0 01-3 1.35 14.07 14.07 0 01-3.51.44 19.88 19.88 0 01-2.78-.19 18.84 18.84 0 01-2.65-.54 16 16 0 01-2.41-.9 10.61 10.61 0 01-2.07-1.24l2.69-4.37c.44.29.91.58 1.42.86a12.22 12.22 0 001.67.76 11.24 11.24 0 001.94.54 11.38 11.38 0 002.24.2 7.88 7.88 0 001.41-.12 4 4 0 001.13-.4 2.32 2.32 0 00.76-.65 1.56 1.56 0 00.27-.92 1.32 1.32 0 00-.28-.85 2.16 2.16 0 00-.85-.58 7.05 7.05 0 00-1.39-.41c-.55-.11-1.2-.23-1.94-.34l-1.12-.18a14.41 14.41 0 01-3.07-.81 7 7 0 01-2.23-1.38 5.29 5.29 0 01-1.35-2 6.84 6.84 0 01-.41-2.68 6.7 6.7 0 01.71-3 6.9 6.9 0 011.88-2.25 8.67 8.67 0 012.85-1.43 12.25 12.25 0 013.63-.5c.76 0 1.5 0 2.23.1a15.32 15.32 0 012.18.38 18.77 18.77 0 012.24.73 23.15 23.15 0 012.44 1.17zM600.88 52.59a410.44 410.44 0 00-27.13 45.94c-13.19 26.13-19.09 60.09-19.09 60.09h-24.92s8.46-31.48 22.7-59.1 25.94-43.94 25.94-43.94h-52.86l5.54-19.74h76.36zm92.34.2l-8 7.94a35.74 35.74 0 00-32.79-20.23c-7.47 0-14.53 2.22-18.89 5.93l-6.26 5.33 10-32.82h51.8l3-19h-68.89l-18.5 64.58 19.9 4.17a25.07 25.07 0 0120-10.14c12.26 0 21.58 8.76 22.1 20.53l-26.23 26a23.38 23.38 0 01-14-5.77 20.94 20.94 0 01-6.38-11H598c.52 10.38 4.45 19.27 11.43 25.83a39 39 0 0013.73 8.2l-9.66 9.59 1.27 1.28 79.73-79.13z"/></g></svg>