<?xml version="1.0" encoding="utf-8"?>
<!-- Generator: Adobe Illustrator 16.0.3, SVG Export Plug-In . SVG Version: 6.00 Build 0)  -->
<!DOCTYPE svg PUBLIC "-//W3C//DTD SVG 1.1//EN" "http://www.w3.org/Graphics/SVG/1.1/DTD/svg11.dtd">
<svg version="1.1" id="Capa_1" xmlns="http://www.w3.org/2000/svg" xmlns:xlink="http://www.w3.org/1999/xlink" x="0px" y="0px"
	 width="100px" height="100px" viewBox="0 0 100 100" enable-background="new 0 0 100 100" xml:space="preserve">
<circle fill="#F0047F" cx="50" cy="50" r="48.5"/>
<g>
	<path fill-rule="evenodd" clip-rule="evenodd" fill="#FFFFFF" d="M75.282,34.034c-0.416,0.531-0.725,1.017-1.121,1.416
		c-5.375,5.405-10.756,10.804-16.147,16.193c-7.464,7.463-14.937,14.916-22.407,22.372c-1.491,1.489-1.649,1.487-3.163-0.024
		c-2.006-2.003-4.01-4.009-6.013-6.015c-1.524-1.527-1.526-1.669-0.037-3.16c10.643-10.645,21.288-21.289,31.931-31.934
		c2.247-2.246,4.519-4.468,6.728-6.75c0.893-0.923,1.613-1.062,2.566-0.076c2.208,2.284,4.487,4.499,6.722,6.756
		C74.671,33.145,74.919,33.558,75.282,34.034z M67.72,38.714c-1.207-1.074-2.302-2.041-3.387-3.017
		c-0.636-0.574-1.091-1.271-0.347-2.001c0.757-0.743,1.441-0.226,1.996,0.402c0.961,1.089,1.897,2.201,2.794,3.244
		c1.375-1.333,2.381-2.31,3.269-3.17c-1.953-1.952-3.871-3.869-5.614-5.61C53.819,41.173,41.11,53.881,28.624,66.367
		c1.783,1.8,3.693,3.728,5.596,5.65c1.001-0.99,2.107-2.08,3.29-3.249c-0.592-0.621-1.287-1.142-1.679-1.836
		c-0.238-0.422-0.008-1.107,0.012-1.676c0.527,0.032,1.21-0.13,1.548,0.14c0.622,0.497,1.041,1.248,1.604,1.972
		c0.704-0.745,1.056-1.117,1.608-1.703c-1.188-1.097-2.369-2.057-3.365-3.182c-0.338-0.382-0.483-1.356-0.231-1.748
		c0.517-0.803,1.282-0.438,1.843,0.159c1.036,1.103,2.049,2.227,3.074,3.345c0.717-0.564,1.191-0.938,1.899-1.497
		c-0.879-0.747-1.59-1.173-2.029-1.792c-0.256-0.358-0.078-1.028-0.095-1.558c0.565,0.002,1.289-0.212,1.661,0.057
		c0.638,0.463,1.056,1.229,1.622,1.936c0.722-0.754,1.11-1.16,1.686-1.761c-0.671-0.566-1.357-0.955-1.751-1.54
		c-0.282-0.418-0.171-1.101-0.236-1.663c0.604,0.01,1.375-0.205,1.776,0.086c0.6,0.436,0.94,1.228,1.4,1.882
		c0.829-0.708,1.226-1.049,1.845-1.578c-1.216-1.124-2.261-2.072-3.285-3.043c-0.624-0.59-1.303-1.274-0.419-2.087
		c0.84-0.772,1.535-0.136,2.109,0.512c0.935,1.051,1.839,2.131,2.756,3.2c0.105-0.132,0.211-0.265,0.316-0.396
		c0.446-0.355,0.894-0.71,1.728-1.376c-0.873-0.669-1.646-1.086-2.144-1.717c-0.256-0.324-0.223-1.22,0.05-1.513
		c0.248-0.265,1.116-0.258,1.499-0.024c0.688,0.42,1.22,1.099,1.976,1.822c0.437-0.458,0.828-0.868,1.492-1.563
		c-0.688-0.559-1.391-0.925-1.77-1.504c-0.298-0.454-0.194-1.171-0.268-1.772c0.601,0.048,1.337-0.103,1.77,0.192
		c0.603,0.413,0.979,1.158,1.504,1.83c0.693-0.747,1.047-1.126,1.532-1.649c-1.136-1.087-2.192-2.098-3.251-3.107
		c-0.574-0.548-1.02-1.173-0.355-1.892c0.736-0.797,1.394-0.326,1.997,0.278c1.053,1.055,2.116,2.102,3.224,3.201
		c0.527-0.556,0.912-0.961,1.479-1.558c-0.687-0.581-1.373-0.971-1.763-1.558c-0.275-0.416-0.15-1.098-0.204-1.662
		c0.606,0.023,1.378-0.176,1.78,0.122c0.593,0.441,0.925,1.236,1.422,1.957c0.811-0.853,1.197-1.261,1.836-1.932
		c-0.546-0.397-1.017-0.677-1.41-1.039c-0.654-0.601-1.445-1.292-0.523-2.192c0.852-0.833,1.529-0.102,2.08,0.532
		c0.382,0.442,0.648,0.985,1,1.537C66.643,39.695,67.028,39.343,67.72,38.714z"/>
	<path fill-rule="evenodd" clip-rule="evenodd" fill="#FFFFFF" d="M70.226,62.909c0.616,0.664,2.286,0.84,1.384,2.188
		c-0.312,0.468-1.524,0.332-2.53,0.507c-0.533,0.266-1.338,0.667-2.144,1.067c-0.176-0.829-0.351-1.658-0.527-2.487
		c0.143-0.038,0.284-0.076,0.425-0.112c-0.603-0.685-2.271-0.887-1.395-2.21c0.311-0.47,1.536-0.335,2.401-0.269
		c0.735-0.405,1.008-2.022,2.262-1.222c0.497,0.318,0.378,1.601,0.54,2.444C70.503,62.847,70.363,62.878,70.226,62.909z"/>
	<path fill-rule="evenodd" clip-rule="evenodd" fill="#FFFFFF" d="M32.89,32.143c0.812-0.398,1.766-1.262,2.307-1.054
		c1.333,0.513,0.399,1.612,0.14,2.518c0.588,0.672,2.252,0.873,1.434,2.178c-0.31,0.493-1.597,0.373-2.482,0.337
		c-0.711,0.396-0.901,2.06-2.228,1.18c-0.488-0.324-0.348-1.598-0.309-2.481c-0.416-0.699-2.077-0.874-1.169-2.221
		C30.896,32.134,32.109,32.275,32.89,32.143z"/>
	<path fill-rule="evenodd" clip-rule="evenodd" fill="#FFFFFF" d="M57.264,63.984c0.558-0.25,1.292-0.61,2.058-0.888
		c0.119-0.044,0.514,0.264,0.547,0.449c0.135,0.771,0.182,1.558,0.261,2.338c-0.796-0.355-1.335,0.03-1.804,0.622
		c-0.228-0.182-0.581-0.321-0.657-0.554C57.478,65.376,57.413,64.757,57.264,63.984z"/>
	<path fill-rule="evenodd" clip-rule="evenodd" fill="#FFFFFF" d="M44.069,35.188c-0.622,0.262-1.399,0.612-2.199,0.898
		c-0.101,0.036-0.428-0.237-0.467-0.408c-0.172-0.764-0.277-1.543-0.406-2.319c0.81,0.137,1.519-0.025,2.052-0.7
		c0.196,0.174,0.5,0.315,0.567,0.53C43.815,33.827,43.92,34.494,44.069,35.188z"/>
</g>
</svg>
