<?xml version="1.0" encoding="utf-8"?>
<!-- Generator: Adobe Illustrator 16.0.3, SVG Export Plug-In . SVG Version: 6.00 Build 0)  -->
<!DOCTYPE svg PUBLIC "-//W3C//DTD SVG 1.1//EN" "http://www.w3.org/Graphics/SVG/1.1/DTD/svg11.dtd">
<svg version="1.1" id="Capa_1" xmlns="http://www.w3.org/2000/svg" xmlns:xlink="http://www.w3.org/1999/xlink" x="0px" y="0px"
	 width="200px" height="200px" viewBox="0 0 200 200" enable-background="new 0 0 200 200" xml:space="preserve">
<g>
	<path fill-rule="evenodd" clip-rule="evenodd" fill="#FFFFFF" d="M78.924,115.021c-2.251-5.762-4.354-11.26-6.579-16.707
		c-0.332-0.811-1.158-1.497-1.898-2.049c-7.642-5.681-15.287-11.356-23.01-16.926c-0.879-0.634-2.269-0.949-3.359-0.833
		c-4.35,0.465-8.688,1.085-13.001,1.823c-1.021,0.175-2.079,0.867-2.854,1.601c-2.835,2.684-5.563,5.479-8.319,8.245
		c-1.316,1.322-2.762,2.301-4.445,0.747c-1.758-1.622-1.079-3.19,0.401-4.663c3.31-3.288,6.468-6.739,9.934-9.848
		c1.156-1.038,3.022-1.44,4.638-1.774c2.692-0.556,5.444-0.822,8.928-1.317c-3.188-2.379-5.878-4.387-8.568-6.393
		c-1.967-1.468-2.983-4.792-1.722-6.797c0.53-0.841,1.993-1.666,2.948-1.579c8.244,0.753,16.485,1.614,24.686,2.744
		c1.064,0.146,2.521,1.902,2.722,3.093c0.757,4.499,3.419,6.103,7.671,6.673c5.362,0.72,10.658,1.979,15.951,3.147
		c1.565,0.346,2.453,0.047,3.238-1.364c0.827-1.488,1.852-2.89,2.937-4.208c4.252-5.162,9.526-7.957,16.446-7.399
		c6.642,0.534,13.04,1.97,18.852,5.175c3.254,1.794,6.059,4.402,9.331,6.84c1.941-1.042,3.093-6.103,7.497-2.507
		c0.146-0.177,0.29-0.354,0.436-0.531c-0.714-1.083-1.261-2.342-2.175-3.213c-2.135-2.032-4.414-3.919-6.698-5.785
		c-1.565-1.278-1.844-2.679-1.089-4.541c3.128-7.717,3.735-8.103,11.188-4.413c10.026,4.964,16.735,12.792,18.999,23.917
		c0.978,4.797-0.647,9.208-4.182,12.462c-1.388,1.278-3.917,1.314-6.248,2.013c0.501,1.044,1.093,2.281,1.387,2.896
		c5.302-0.085,10.259-0.79,15.024-0.121c12.82,1.8,22.664,13.046,23.549,26.118c0.878,12.957-7.5,25.213-19.913,29.132
		c-12.496,3.945-26.08-1.179-32.982-12.442c-6.822-11.131-5.178-25.5,3.976-34.749c3.105-3.138,3.105-3.138,0.14-7.381
		c-6.532,5.154-10.612,11.586-11.125,19.974c-0.237,3.892-0.042,7.81-0.077,11.715c-0.03,3.379-0.826,4.174-4.266,4.177
		c-18.101,0.014-36.199,0.036-54.298-0.034c-1.971-0.008-2.95,0.484-3.758,2.438c-5.305,12.837-18.882,19.878-32.363,16.97
		c-13.114-2.828-22.654-14.857-22.477-28.339c0.176-13.336,9.999-25.133,22.998-27.619c13.655-2.611,26.94,4.65,32.088,17.542
		C71.348,115.606,71.395,115.628,78.924,115.021z M140.305,88.857c-1.27-2.426-2.362-4.743-3.698-6.908
		c-0.348-0.563-1.584-1.079-2.202-0.898c-8.764,2.559-17.506,5.193-26.216,7.926c-2.465,0.773-3.385,3.095-2.396,5.516
		c0.754,1.848,1.632,3.646,2.514,5.438c1.411,2.867,1.364,5.674-0.206,8.457c-1.634,2.9-3.219,5.83-4.91,8.696
		c-1.678,2.842-4.216,4.297-7.546,4.309c-2.949,0.009-5.899,0.014-8.85,0.043c-0.262,0.003-0.522,0.169-0.969,0.323
		c0.068,0.783,0.135,1.569,0.195,2.276c13.415,0,26.581,0,40.098,0C124.408,109.632,128.308,97.612,140.305,88.857z M128.613,76.469
		c-1.757-1.548-2.902-2.811-4.279-3.729c-4.848-3.234-10.368-4.567-16.024-5.632c-8.184-1.54-13.541,2.124-17.385,8.894
		c-0.423,0.744-0.832,1.502-1.16,2.291c-0.836,2.001-2.203,2.569-4.342,2.118c-7.442-1.569-14.868-3.323-22.39-4.378
		c-4.646-0.651-7.191-2.653-8.031-7.188c-0.157-0.849-0.989-2.137-1.655-2.236c-4.941-0.734-9.921-1.219-15.689-1.873
		c1.098,0.932,1.552,1.365,2.053,1.737c4.464,3.316,8.935,6.623,13.405,9.933c4.284,3.171,8.553,6.364,12.858,9.505
		c2.991,2.183,5.821,5.524,9.114,6.094c3.289,0.57,7.078-1.614,10.626-2.673C99.746,85.143,113.771,80.923,128.613,76.469z
		 M156.489,99.648c1.662,4.697,1.662,4.697,6.181,4.634c7.797-0.111,14.878,5.146,16.855,12.515
		c2.034,7.586-1.238,15.625-7.912,19.437c-6.946,3.966-15.426,2.744-20.965-3.021c-5.395-5.614-6.288-14.161-2.18-20.851
		c2.498-4.066,2.498-4.066-0.263-7.921c-8.029,5.181-10.513,18.49-5.227,28.007c5.854,10.54,18.901,14.848,29.587,9.769
		c11.199-5.325,16.19-17.867,11.672-29.336C179.931,101.95,167.653,96.026,156.489,99.648z M63.699,130.22
		c-4.954-0.65-4.958-0.607-8.258,2.795c-1.05,1.082-2.219,2.109-3.497,2.897c-8.004,4.936-18.287,2.619-23.361-5.192
		c-4.996-7.692-2.981-18.023,4.552-23.331c7.621-5.368,18.084-3.821,23.518,4.021c2.242,3.234,4.839,2.647,7.814,2.857
		c-2.863-10.248-14.008-17.157-24.608-15.554c-11.703,1.771-19.929,11.459-19.752,23.263c0.169,11.276,9.024,20.963,20.308,22.21
		C50.572,145.308,61.652,138.662,63.699,130.22z M78.185,97.514c2.31,5.937,4.467,11.597,6.768,17.198
		c0.217,0.525,1.334,0.924,2.057,0.965c10.352,0.593,10.284,0.537,15.376-8.498c1.273-2.262,1.235-4.103,0.132-6.386
		c-1.421-2.934-2.402-6.08-3.697-9.462C92.385,93.259,85.433,95.343,78.185,97.514z M161.318,110.237
		c1.723,2.402,2.859,4.624,4.575,6.223c2.264,2.111,3.357,4.209,2.509,6.681c-0.848,2.47-3.147,4.082-5.65,3.958
		c-2.725-0.134-4.465-1.961-5.462-4.993c-0.808-2.453-2.089-4.75-3.275-7.368c-3.411,4.745-3.077,10.357,0.479,14.288
		c3.702,4.094,9.536,5.022,14.284,2.272c4.609-2.67,6.704-8.054,5.16-13.266C172.422,112.915,167.662,109.725,161.318,110.237z
		 M138.386,56.529c-0.243,0.291-0.486,0.581-0.731,0.871c0.582,0.64,1.113,1.336,1.753,1.91c1.556,1.392,3.233,2.651,4.73,4.101
		c3.292,3.188,4.193,7.938,1.835,11.72c-1.214,1.944-1.167,3.347,0.005,5.093c0.735,1.097,1.212,2.364,1.889,3.504
		c0.26,0.438,0.701,0.949,1.151,1.063c3.288,0.828,6.631-1.109,7.201-4.458c0.305-1.795,0.436-4.028-0.362-5.527
		c-2.251-4.22-4.694-8.428-7.691-12.13C145.713,59.646,142.174,57.671,138.386,56.529z M50.803,113.439
		c-4.866-4.662-11.661-4.453-16.015-0.006c-4.445,4.541-4.361,11.68,0.19,16.13c4.214,4.123,10.775,4.451,14.791,0.412
		c-2.438,0-4.58,0.057-6.719-0.01c-4.995-0.155-8.748-3.981-8.641-8.743c0.109-4.876,4.167-8.543,9.3-8.329
		C45.882,112.983,48.049,113.223,50.803,113.439z M71.734,120.664c0,1.364,0,2.408,0,3.43c2.899,0,5.59,0,8.28,0
		c0-1.01,0-1.836,0-2.921C77.228,121.001,74.552,120.837,71.734,120.664z M60.188,124.104c1.827,0,3.562,0,5.467,0
		c0-1.351,0-2.522,0-3.901c-1.863-0.137-3.585-0.263-5.467-0.399C60.188,121.428,60.188,122.706,60.188,124.104z M51.477,119.377
		c0,1.637,0,3.183,0,4.715c1.971,0.571,2.913,0.015,2.947-2.074C54.454,120.149,54.243,118.75,51.477,119.377z"/>
</g>
</svg>
