<?xml version="1.0" encoding="utf-8"?>
<!-- Generator: Adobe Illustrator 16.0.3, SVG Export Plug-In . SVG Version: 6.00 Build 0)  -->
<!DOCTYPE svg PUBLIC "-//W3C//DTD SVG 1.1//EN" "http://www.w3.org/Graphics/SVG/1.1/DTD/svg11.dtd">
<svg version="1.1" id="Capa_1" xmlns="http://www.w3.org/2000/svg" xmlns:xlink="http://www.w3.org/1999/xlink" x="0px" y="0px"
	 width="100px" height="100px" viewBox="0 0 100 100" enable-background="new 0 0 100 100" xml:space="preserve">
<circle fill="#891182" cx="50" cy="50" r="49"/>
<g>
	<path fill-rule="evenodd" clip-rule="evenodd" fill="#FFFFFF" d="M78.598,28.861c-0.142,0.744-0.61,1.271-1.128,1.788
		c-8.602,8.59-17.194,17.187-25.79,25.782c-0.871,0.871-2.03,1.048-3.014,0.452c-0.182-0.11-0.351-0.25-0.501-0.4
		c-2.368-2.362-4.733-4.728-7.098-7.094c-0.973-0.975-0.988-2.469-0.04-3.417c0.939-0.939,2.431-0.94,3.398,0.018
		c1.745,1.731,3.478,3.472,5.214,5.211c0.078,0.077,0.14,0.171,0.282,0.351c0.109-0.165,0.161-0.281,0.245-0.365
		c8.065-8.069,16.132-16.135,24.196-24.205c0.43-0.43,0.907-0.743,1.521-0.822c1.223-0.158,2.34,0.597,2.646,1.791
		c0.02,0.08,0.046,0.159,0.068,0.238C78.598,28.412,78.598,28.636,78.598,28.861z"/>
	<path fill-rule="evenodd" clip-rule="evenodd" fill="#FFFFFF" d="M76.2,49.9c-0.087,7.584-2.791,14.062-8.295,19.304
		c-3.851,3.667-8.444,5.96-13.695,6.774c-8.326,1.292-15.708-0.875-22-6.482c-4.334-3.863-7.101-8.715-8.121-14.428
		c-1.673-9.371,0.93-17.473,7.741-24.134c3.693-3.613,8.177-5.817,13.253-6.759c5.345-0.992,10.522-0.373,15.499,1.826
		c0.888,0.393,1.381,1.101,1.426,2.076s-0.383,1.719-1.227,2.2c-0.694,0.396-1.427,0.405-2.155,0.083
		c-1.629-0.721-3.318-1.249-5.075-1.538c-4.913-0.809-9.597-0.088-13.955,2.325c-5.619,3.113-9.283,7.82-10.657,14.098
		c-1.708,7.803,0.368,14.617,6.013,20.265c3.261,3.262,7.271,5.162,11.831,5.827c10.876,1.586,21.185-5.229,23.963-15.948
		c0.467-1.799,0.685-3.63,0.677-5.489c-0.004-0.691-0.006-1.382,0.001-2.074c0.01-1.226,0.938-2.265,2.109-2.372
		c1.299-0.118,2.42,0.692,2.624,1.954c0.079,0.483,0.035,0.987,0.043,1.482C76.205,49.227,76.2,49.563,76.2,49.9z"/>
</g>
</svg>
