<?xml version="1.0" encoding="UTF-8"?>
<svg width="44px" height="55px" viewBox="0 0 44 55" version="1.1" xmlns="http://www.w3.org/2000/svg" xmlns:xlink="http://www.w3.org/1999/xlink">
    <!-- Generator: sketchtool 64 (101010) - https://sketch.com -->
    <title>1DBE5A6A-9301-451E-B62B-70AB803E5101</title>
    <desc>Created with sketchtool.</desc>
    <g id="diseño-alta-Home---responsive" stroke="none" stroke-width="1" fill="none" fill-rule="evenodd">
        <g id="01.-Home-|-Nav-medium-+-Top-notification" transform="translate(-1078.000000, -695.000000)">
            <g id="icon_asesoramiento" transform="translate(1044.000000, 666.000000)">
                <g id="Group-6">
                    <circle id="Oval" cx="56" cy="56" r="56"></circle>
                </g>
                <g id="user-m-2" transform="translate(34.000000, 29.000000)" fill="#6F1DF9">
                    <g id="user-m">
                        <path d="M27.5517562,27.0524825 C31.4241351,24.6487525 34.0407833,19.874435 34.0407833,14.4150075 C34.0407833,6.56106 28.6254271,0.1250075 21.8465793,0.1250075 C15.0677316,0.1250075 9.65237533,6.56106 9.65237533,14.4150075 C9.65237533,19.874435 12.2690236,24.6487525 16.1414024,27.0524825 L16.1049436,27.0524825 L16.1049533,29.5528325 L9.11137822,31.858305 C7.79469289,32.2397375 6.55453089,32.9765575 5.54498511,33.988745 C3.727438,35.72607 2.50018267,38.0538525 2.07151022,40.595555 L0.226370222,51.079935 C0.122476444,52.0504625 0.122476444,52.93892 0.213862,53.8199 L2.644664,53.5561525 C2.57146756,52.8505125 2.57146756,52.1388675 2.644664,51.43323 L4.47884067,41.0294475 C4.81854022,39.01549 5.78631044,37.17988 7.23528667,35.794475 C7.97412489,35.054195 8.85548889,34.53055 9.82008622,34.2505225 L16.5293211,32.039475 C17.1190189,33.461895 18.284706,34.598785 19.7815371,35.1003425 L20.162076,35.162475 L23.4056656,35.162475 C23.6317889,35.16393 23.8639304,35.1238525 24.0842116,35.044015 C25.2995404,34.5893475 26.2783718,33.7186325 26.8918173,32.62467 L33.8550251,34.9194125 C34.8196224,35.19944 35.7009864,35.7230875 36.4398247,36.4633675 C37.8888009,37.84877 38.8565736,39.6843825 39.1962707,41.6983425 L41.0304473,52.1021225 C41.1036438,52.80776 41.1036438,53.5194075 41.0304473,54.225045 L43.4612493,54.4887875 C43.5526324,53.6078125 43.5526324,52.719355 43.4487411,51.748825 L41.6036036,41.2644425 C41.1749262,38.7227475 39.9476733,36.39496 38.1301262,34.6576375 C37.1205804,33.64545 35.8804184,32.9086275 34.5637331,32.5271975 L27.5915273,30.228765 C27.5982056,30.114865 27.6014469,30.0002325 27.6011756,29.8849925 L27.6011902,27.0524825 L27.5517562,27.0524825 Z M25.1567423,28.174595 C24.1056958,28.520055 22.9957273,28.7050075 21.8465793,28.7050075 C20.7021564,28.7050075 19.5965953,28.521575 18.5493892,28.1788525 L18.5493892,29.89104 C18.5465011,31.1200725 19.2771944,32.216215 20.3748722,32.6625 L23.3313618,32.6625 C24.4321391,32.214705 25.1596522,31.1168 25.1567423,29.888025 L25.1567423,28.174595 Z M21.8465793,26.2050075 C16.5061087,26.2050075 12.0968173,20.9646475 12.0968173,14.4150075 C12.0968173,7.8653675 16.5061087,2.6250075 21.8465793,2.6250075 C27.18705,2.6250075 31.5963413,7.8653675 31.5963413,14.4150075 C31.5963413,20.9646475 27.18705,26.2050075 21.8465793,26.2050075 Z" id="Fill-1"></path>
                        <path d="M27.5517562,27.0524825 L27.48834,26.9456225 L27.1148216,27.1774825 L27.5517562,27.1774825 L27.5517562,27.0524825 Z M16.1414024,27.0524825 L16.1414024,27.1774825 L16.5783396,27.1774825 L16.2048187,26.9456225 L16.1414024,27.0524825 Z M33.9185611,14.4150075 C33.9185611,19.8349475 31.3208353,24.56665 27.48834,26.9456225 L27.6151724,27.15934 C31.5274349,24.7308525 34.1630056,19.9139275 34.1630056,14.4150075 L33.9185611,14.4150075 Z M21.8465793,0.2500075 C28.5423673,0.2500075 33.9185611,6.61303 33.9185611,14.4150075 L34.1630056,14.4150075 C34.1630056,6.50909 28.7084844,1e-05 21.8465793,1e-05 L21.8465793,0.2500075 Z M9.77459756,14.4150075 C9.77459756,6.61303 15.1507913,0.2500075 21.8465793,0.2500075 L21.8465793,1e-05 C14.9846742,1e-05 9.53015311,6.50909 9.53015311,14.4150075 L9.77459756,14.4150075 Z M16.2048187,26.9456225 C12.3723233,24.56665 9.77459756,19.8349475 9.77459756,14.4150075 L9.53015311,14.4150075 C9.53015311,19.9139275 12.1657262,24.7308525 16.0779887,27.15934 L16.2048187,26.9456225 Z M15.9827213,27.0524825 L15.9827311,29.5528325 L16.2271756,29.5528325 L16.2271658,27.0524825 L15.9827213,27.0524825 Z M16.067458,29.43386 L9.07388044,31.7393325 L9.14887356,31.9772775 L16.1424511,29.6718025 L16.067458,29.43386 Z M9.07806778,31.73804 C7.74133556,32.1252775 6.48329978,32.8729275 5.45942467,33.899485 L5.630548,34.0780075 C6.625762,33.0801875 7.84805022,32.3541975 9.14468622,31.978575 L9.07806778,31.73804 Z M5.46152933,33.8974225 C3.62434356,35.6535175 2.38423044,38.0059825 1.95106756,40.5743075 L2.19195289,40.616805 C2.61613489,38.1017275 3.83053,35.7986225 5.62844333,34.08007 L5.46152933,33.8974225 Z M1.95122156,40.5734125 L0.106079111,51.0577975 L0.346658889,51.10208 L2.19179889,40.6177 L1.95122156,40.5734125 Z M0.104874,51.0663325 C6.11111111e-05,52.04545 -1.95555556e-05,52.9428975 0.0923217778,53.83309 L0.335402222,53.806715 C0.244972444,52.9349475 0.244891778,52.055475 0.347866444,51.09354 L0.104874,51.0663325 Z M0.226756444,53.9442075 L2.65755844,53.68046 L2.63176956,53.43185 L0.200967556,53.6955975 L0.226756444,53.9442075 Z M2.76620422,53.5429675 C2.69391711,52.846095 2.69391711,52.1432875 2.76620422,51.44642 L2.52312378,51.420045 C2.449018,52.1344475 2.449018,52.854935 2.52312378,53.5693425 L2.76620422,53.5429675 Z M2.76494778,51.4554125 L4.599122,41.0516325 L4.35855689,41.0072725 L2.52438267,51.4110525 L2.76494778,51.4554125 Z M4.59928333,41.0507025 C4.93447778,39.0634525 5.88934133,37.2524875 7.31875467,35.8857875 L7.15181867,35.703165 C5.68327711,37.107275 4.70260022,38.9675325 4.358398,41.0082025 L4.59928333,41.0507025 Z M7.32082022,35.883765 C8.04533156,35.1578375 8.90885111,34.644995 9.85346022,34.37077 L9.78671222,34.1302725 C8.80212422,34.4161025 7.90291578,34.9505525 7.14975311,35.705185 L7.32082022,35.883765 Z M9.85757178,34.3694975 L16.5668067,32.1584525 L16.4918356,31.9205 L9.78260067,34.1315475 L9.85757178,34.3694975 Z M16.4167936,32.08827 C17.0198893,33.543 18.2121916,34.7060225 19.743482,35.2191325 L19.8195922,34.9815575 C18.3572229,34.491545 17.2181484,33.38079 16.6418462,31.9906825 L16.4167936,32.08827 Z M19.76227,35.22378 L20.1428089,35.2859125 L20.1813431,35.03904 L19.8008042,34.9769075 L19.76227,35.22378 Z M20.162076,35.2874775 L23.4056656,35.2874775 L23.4056656,35.037475 L20.162076,35.037475 L20.162076,35.2874775 Z M23.4048956,35.287475 C23.6454264,35.28902 23.8916333,35.2464275 24.1250387,35.161835 L24.0433844,34.9261925 C23.83623,35.001275 23.6181513,35.03884 23.4064356,35.0374775 L23.4048956,35.287475 Z M24.1261998,35.1614075 C25.3691924,34.6963925 26.37041,33.8057625 26.9978402,32.6868575 L26.7857944,32.5624825 C26.1863336,33.6315075 25.2298884,34.482305 24.0422233,34.9266225 L24.1261998,35.1614075 Z M26.8543318,32.743645 L33.8175396,35.0383875 L33.8925107,34.8004375 L26.9293029,32.505695 L26.8543318,32.743645 Z M33.8216511,35.0396625 C34.7662578,35.313885 35.6297773,35.8267325 36.3542936,36.55266 L36.5253582,36.3740775 C35.7721956,35.619445 34.8729847,35.0849925 33.8884016,34.799165 L33.8216511,35.0396625 Z M36.3563567,36.55468 C37.78577,37.9213775 38.740636,39.7323425 39.075828,41.719595 L39.3167158,41.677095 C38.9725111,39.6364225 37.9918342,37.776165 36.5232951,36.3720575 L36.3563567,36.55468 Z M39.0759869,41.720525 L40.9101684,52.124305 L41.1507287,52.079945 L39.316552,41.676165 L39.0759869,41.720525 Z M40.9089096,52.1153125 C40.9811942,52.8121825 40.9811942,53.5149875 40.9089096,54.21186 L41.1519876,54.238235 C41.2260933,53.5238275 41.2260933,52.80334 41.1519876,52.0889375 L40.9089096,52.1153125 Z M41.0175529,54.3493525 L43.4483549,54.613095 L43.4741462,54.3644875 L41.0433442,54.1007425 L41.0175529,54.3493525 Z M43.5827896,54.5019775 C43.6751284,53.61179 43.6750502,52.714345 43.5702398,51.735225 L43.3272424,51.76243 C43.4302171,52.7243675 43.4301389,53.60384 43.3397116,54.475605 L43.5827896,54.5019775 Z M43.5690322,51.726685 L41.7238922,41.242305 L41.4833124,41.2865875 L43.32845,51.77097 L43.5690322,51.726685 Z M41.7240462,41.2431975 C41.2908809,38.674875 40.0507702,36.3224075 38.2135796,34.566315 L38.0466704,34.7489625 C39.8445789,36.4675125 41.058974,38.77062 41.4831584,41.2856925 L41.7240462,41.2431975 Z M38.2156867,34.5683775 C37.191814,33.5418175 35.9337733,32.79417 34.5970411,32.40693 L34.5304251,32.647465 C35.8270611,33.0230875 37.0493493,33.7490775 38.0445633,34.7469 L38.2156867,34.5683775 Z M34.6012284,32.408225 L27.6290227,30.1097925 L27.554032,30.3477375 L34.5262378,32.6461675 L34.6012284,32.408225 Z M27.7135296,30.2362475 C27.7203593,30.1197575 27.7236764,30.0025275 27.7233978,29.88469 L27.4789533,29.885295 C27.4792198,29.997935 27.4760493,30.1099725 27.4695227,30.2212825 L27.7135296,30.2362475 Z M27.7233978,29.8849925 L27.7234124,27.0524825 L27.4789656,27.0524825 L27.4789533,29.8849925 L27.7233978,29.8849925 Z M25.1193458,28.05559 C24.0801538,28.3971525 22.9827913,28.5800075 21.8465793,28.5800075 L21.8465793,28.83001 C23.0086633,28.83001 24.1312378,28.642955 25.194136,28.2936 L25.1193458,28.05559 Z M21.8465793,28.5800075 C20.7150362,28.5800075 19.6220347,28.3986575 18.5866413,28.0597975 L18.512142,28.297905 C19.5711584,28.644495 20.6892767,28.83001 21.8465793,28.83001 L21.8465793,28.5800075 Z M18.67162,29.89104 L18.6716151,28.1788525 L18.4271682,28.1788525 L18.4271756,29.89104 L18.67162,29.89104 Z M20.4200211,32.546315 C19.369086,32.11906 18.6688456,31.0691775 18.67162,29.8913425 L18.4271756,29.89074 C18.4241591,31.1709675 19.1853029,32.3133725 20.3297233,32.7786325 L20.4200211,32.546315 Z M23.3313618,32.5375 L20.3748722,32.537475 L20.3748722,32.7874775 L23.3313618,32.7875 L23.3313618,32.5375 Z M25.0345113,29.8883275 C25.0373078,31.06613 24.3400422,32.1176475 23.2861884,32.54635 L23.3765327,32.7786475 C24.524236,32.3117675 25.2819967,31.1674725 25.2789558,29.88772 L25.0345113,29.8883275 Z M25.0345162,28.1745975 L25.0345113,29.888025 L25.2789558,29.888025 L25.2789631,28.1745975 L25.0345162,28.1745975 Z M11.9745951,14.4150075 C11.9745951,21.0139075 16.4207731,26.33001 21.8465793,26.33001 L21.8465793,26.0800075 C16.5914442,26.0800075 12.219042,20.9153875 12.219042,14.4150075 L11.9745951,14.4150075 Z M21.8465793,2.50001 C16.4207731,2.50001 11.9745951,7.81611 11.9745951,14.4150075 L12.219042,14.4150075 C12.219042,7.91463 16.5914442,2.7500075 21.8465793,2.7500075 L21.8465793,2.50001 Z M31.7185636,14.4150075 C31.7185636,7.81611 27.272388,2.50001 21.8465793,2.50001 L21.8465793,2.7500075 C27.1017144,2.7500075 31.4741191,7.91463 31.4741191,14.4150075 L31.7185636,14.4150075 Z M21.8465793,26.33001 C27.272388,26.33001 31.7185636,21.0139075 31.7185636,14.4150075 L31.4741191,14.4150075 C31.4741191,20.9153875 27.1017144,26.0800075 21.8465793,26.0800075 L21.8465793,26.33001 Z" id="Fill-2"></path>
                    </g>
                </g>
            </g>
        </g>
    </g>
</svg>