<?xml version="1.0" encoding="utf-8"?>
<!-- Generator: Adobe Illustrator 16.0.3, SVG Export Plug-In . SVG Version: 6.00 Build 0)  -->
<!DOCTYPE svg PUBLIC "-//W3C//DTD SVG 1.1//EN" "http://www.w3.org/Graphics/SVG/1.1/DTD/svg11.dtd">
<svg version="1.1" id="Capa_1" xmlns="http://www.w3.org/2000/svg" xmlns:xlink="http://www.w3.org/1999/xlink" x="0px" y="0px"
	 width="32px" height="32px" viewBox="0 0 32 32" enable-background="new 0 0 32 32" xml:space="preserve">
<g>
	<path d="M719,425c0,18-3.333,41.5-10,70.5s-13.667,51.834-21,68.5c-14,33.334-54.667,68.666-122,106c-62.667,34-124.667,51-186,51
		c-18,0-35.5-1.166-52.5-3.5S291.333,711,270,705s-37.167-10.834-47.5-14.5S193.667,680,167,670s-43-16-49-18
		C52.667,628.666-5.667,601-57,569c-85.333-52.666-173.5-124.5-264.5-215.5S-484.333,174.334-537,89
		c-32-51.334-59.667-109.667-83-175c-2-6-8-22.333-18-49c-10-26.666-16.833-45.166-20.5-55.5c-3.667-10.333-8.5-26.166-14.5-47.5
		c-6-21.333-10.167-40.5-12.5-57.5S-689-330-689-348c0-61.333,17-123.333,51-186c37.333-67.333,72.667-108,106-122
		c16.667-7.333,39.5-14.333,68.5-21s52.5-10,70.5-10c9.333,0,16.333,1,21,3c12,4,29.667,29.333,53,76
		c7.333,12.667,17.333,30.667,30,54s24.333,44.5,35,63.5s21,36.833,31,53.5c2,2.667,7.833,11,17.5,25
		c9.667,14,16.833,25.834,21.5,35.5c4.667,9.667,7,19.167,7,28.5c0,13.334-9.5,30-28.5,50s-39.667,38.334-62,55
		c-22.333,16.667-43,34.334-62,53c-19,18.667-28.5,34-28.5,46c0,6,1.667,13.5,5,22.5s6.167,15.834,8.5,20.5
		c2.333,4.667,7,12.667,14,24c7,11.334,10.833,17.667,11.5,19c50.667,91.334,108.667,169.667,174,235S-1.333,300.334,90,351
		c1.333,0.666,7.667,4.5,19,11.5s19.333,11.666,24,14s11.5,5.166,20.5,8.5s16.5,5,22.5,5c12,0,27.333-9.5,46-28.5
		s36.333-39.666,53-62s35-43,55-62s36.667-28.5,50-28.5c9.333,0,18.833,2.334,28.5,7s21.5,11.834,35.5,21.5s22.333,15.5,25,17.5
		c16.667,10,34.5,20.334,53.5,31s40.167,22.334,63.5,35s41.333,22.666,54,30c46.667,23.334,72,41,76,53
		C718,408.666,719,415.666,719,425z"/>
</g>
<g>
	<path fill="#FFFFFF" d="M28.5,23.244c0,0.319-0.06,0.737-0.178,1.252s-0.242,0.92-0.373,1.216c-0.248,0.593-0.971,1.22-2.166,1.883
		C24.671,28.198,23.57,28.5,22.48,28.5c-0.319,0-0.63-0.021-0.932-0.063c-0.302-0.041-0.643-0.115-1.021-0.222
		s-0.659-0.192-0.843-0.258c-0.184-0.064-0.513-0.186-0.985-0.363c-0.474-0.178-0.764-0.284-0.871-0.32
		c-1.159-0.414-2.195-0.905-3.106-1.474c-1.515-0.935-3.081-2.21-4.696-3.826c-1.616-1.615-2.892-3.181-3.827-4.696
		c-0.568-0.911-1.059-1.947-1.474-3.107c-0.036-0.106-0.142-0.396-0.319-0.87c-0.178-0.473-0.299-0.802-0.364-0.985
		s-0.151-0.464-0.257-0.843s-0.181-0.72-0.222-1.021S3.5,9.839,3.5,9.52c0-1.09,0.302-2.19,0.906-3.303
		c0.663-1.195,1.29-1.918,1.882-2.166C6.583,3.92,6.989,3.796,7.504,3.678S8.436,3.5,8.756,3.5c0.166,0,0.29,0.018,0.373,0.054
		c0.213,0.07,0.527,0.521,0.941,1.349c0.13,0.226,0.308,0.545,0.532,0.959c0.225,0.414,0.432,0.79,0.622,1.128
		c0.189,0.337,0.373,0.653,0.55,0.949c0.036,0.048,0.139,0.195,0.311,0.444c0.171,0.249,0.299,0.459,0.382,0.63
		c0.083,0.172,0.124,0.341,0.124,0.507c0,0.236-0.168,0.532-0.506,0.888c-0.337,0.354-0.705,0.681-1.101,0.977
		s-0.763,0.609-1.101,0.94c-0.337,0.332-0.506,0.604-0.506,0.817c0,0.106,0.03,0.239,0.089,0.399
		c0.059,0.159,0.109,0.281,0.151,0.364c0.042,0.082,0.125,0.225,0.249,0.426c0.125,0.201,0.192,0.313,0.205,0.337
		c0.899,1.622,1.929,3.013,3.089,4.173s2.551,2.19,4.173,3.09c0.023,0.012,0.136,0.08,0.337,0.204s0.344,0.207,0.426,0.248
		c0.083,0.042,0.205,0.092,0.364,0.151c0.16,0.06,0.293,0.089,0.399,0.089c0.213,0,0.485-0.169,0.817-0.506
		c0.331-0.338,0.645-0.705,0.94-1.102s0.622-0.763,0.977-1.101c0.355-0.337,0.651-0.506,0.888-0.506
		c0.166,0,0.335,0.041,0.507,0.124c0.171,0.083,0.381,0.21,0.63,0.382s0.396,0.275,0.444,0.311c0.296,0.178,0.612,0.361,0.949,0.551
		c0.338,0.189,0.714,0.396,1.128,0.621c0.414,0.226,0.733,0.402,0.959,0.533c0.828,0.414,1.278,0.728,1.349,0.94
		C28.482,22.954,28.5,23.078,28.5,23.244z"/>
</g>
</svg>
