<?xml version="1.0" encoding="utf-8"?>
<!-- Generator: Adobe Illustrator 16.0.3, SVG Export Plug-In . SVG Version: 6.00 Build 0)  -->
<!DOCTYPE svg PUBLIC "-//W3C//DTD SVG 1.1//EN" "http://www.w3.org/Graphics/SVG/1.1/DTD/svg11.dtd">
<svg version="1.1" id="Capa_1" xmlns="http://www.w3.org/2000/svg" xmlns:xlink="http://www.w3.org/1999/xlink" x="0px" y="0px"
	 width="200px" height="200px" viewBox="0 0 200 200" enable-background="new 0 0 200 200" xml:space="preserve">
<g>
	<path fill-rule="evenodd" clip-rule="evenodd" fill="#FFFFFF" d="M101.506,148.88c-13.902,10.934-27.641,21.739-41.382,32.542
		c-1.178,0.926-2.379,1.823-3.562,2.743c-2.74,2.131-6.012,2.376-8.157-0.005c-1.606-1.783-2.823-5.163-2.304-7.386
		c1.659-7.099,4.188-13.995,6.417-20.958c3.243-10.128,6.376-20.294,9.862-30.337c1.057-3.045,0.556-4.74-1.938-6.729
		c-12.369-9.867-24.583-19.927-36.849-29.923c-1.162-0.947-2.751-1.704-3.352-2.935c-1.146-2.35-2.966-5.48-2.207-7.356
		c0.865-2.135,4.133-4.358,6.549-4.599c6.436-0.64,12.976-0.24,19.474-0.245c8.831-0.005,17.667-0.165,26.492,0.076
		c3.694,0.102,5.532-0.92,6.853-4.637c5.34-15.028,11.14-29.893,16.689-44.848c1.348-3.632,3.015-6.954,7.417-6.959
		c4.413-0.005,6.057,3.346,7.4,6.967c5.555,14.955,11.354,29.821,16.693,44.852c1.324,3.727,3.182,4.671,6.861,4.625
		c14.66-0.188,29.324-0.055,43.988-0.09c3.846-0.01,7.418,0.305,8.85,4.735c1.34,4.146-1.17,6.557-3.97,8.836
		c-12.915,10.518-25.784,21.094-38.792,31.495c-2.484,1.987-2.93,3.695-1.912,6.743c5.42,16.233,10.537,32.567,15.818,48.847
		c1.194,3.682,1.908,7.269-1.718,9.945c-3.853,2.845-7.106,0.972-10.325-1.581C130.188,171.423,115.91,160.225,101.506,148.88z
		 M26.259,80.397c-0.07,0.389-0.14,0.778-0.21,1.167c1.245,1.074,2.464,2.179,3.738,3.217c11.999,9.787,23.928,19.662,36.055,29.288
		c4.255,3.378,5.524,7.003,3.638,12.176c-2.504,6.87-4.56,13.903-6.789,20.873c-3.155,9.868-6.293,19.742-9.825,30.826
		c2.784-2.109,4.507-3.376,6.189-4.696c12.047-9.457,24.073-18.942,36.133-28.384c5.349-4.188,7.316-4.146,12.753,0.094
		c4.463,3.48,8.902,6.991,13.356,10.484c9.256,7.261,18.515,14.519,28.854,22.627c-0.695-2.237-0.967-3.135-1.253-4.027
		c-5.072-15.834-9.999-31.717-15.301-47.473c-1.806-5.368-0.807-9.076,3.664-12.605c12.151-9.593,24.064-19.489,36.063-29.276
		c1.312-1.069,2.568-2.205,4.988-4.29c-3.287,0-4.914,0-6.543,0c-13.988,0-27.979-0.163-41.963,0.081
		c-5.341,0.093-8.248-2.027-10.032-6.964c-5.255-14.544-10.78-28.991-16.222-43.468c-0.531-1.412-1.216-2.766-2.151-4.87
		c-0.954,2.417-1.581,3.94-2.16,5.482c-5.141,13.702-10.258,27.413-15.413,41.109c-3.12,8.289-3.626,8.622-12.282,8.627
		c-10.491,0.007-20.982,0.002-31.473,0.002C35.47,80.397,30.865,80.397,26.259,80.397z"/>
</g>
</svg>
