<?xml version="1.0" encoding="utf-8"?>
<!-- Generator: Adobe Illustrator 16.0.3, SVG Export Plug-In . SVG Version: 6.00 Build 0)  -->
<!DOCTYPE svg PUBLIC "-//W3C//DTD SVG 1.1//EN" "http://www.w3.org/Graphics/SVG/1.1/DTD/svg11.dtd">
<svg version="1.1" id="Capa_1" xmlns="http://www.w3.org/2000/svg" xmlns:xlink="http://www.w3.org/1999/xlink" x="0px" y="0px"
	 width="200px" height="200px" viewBox="0 0 200 200" enable-background="new 0 0 200 200" xml:space="preserve">
<g>
	<path fill-rule="evenodd" clip-rule="evenodd" fill="#FFFFFF" d="M30.626,57.125c1.708-4.918,5.131-6.686,10.329-6.646
		c23.224,0.177,46.454,0.07,69.68,0.082c6.726,0.003,9.509,2.787,9.565,9.543c0.027,3.609,0.005,7.22,0.005,10.597
		c9.231,0,18.101-0.219,26.953,0.086c5.052,0.172,8.589,3.627,11.551,7.374c4.113,5.198,8.213,10.436,11.895,15.932
		c2.027,3.033,3.206,6.645,4.762,9.992c0,10.725,0,21.441,0,32.166c-2.775,6.751-8.517,7.142-14.656,6.485
		c-1.861,8.316-7.106,12.871-14.937,14.742c-1.498,0-2.997,0-4.503,0c-7.988-1.813-13.095-6.693-14.844-13.856
		c-3.124-0.906-5.527-1.64-7.952-2.291c-0.521-0.137-1.143-0.021-1.692,0.092c-2.156,0.448-4.291,1.299-6.449,1.338
		c-8.237,0.163-16.476,0.066-24.873,0.066c-1.883,8.179-7.101,12.793-14.95,14.651c-1.499,0-3,0-4.502,0
		c-5.529-1.446-10.893-3.739-12.795-9.41c-1.719-5.132-4.784-5.916-9.241-5.25c-0.521,0.072-1.07-0.049-1.595,0.018
		c-5.533,0.676-9.446-1.516-11.75-6.585C30.626,109.873,30.626,83.501,30.626,57.125z M36.38,96.265
		c0,12.116-0.01,24.231,0.006,36.347c0.005,3.73,1.026,4.723,4.774,4.77c2.251,0.024,4.512-0.132,6.751,0.04
		c2.238,0.172,3.312-0.487,4.056-2.817c2.258-7.068,9.095-11.851,16.294-11.855c7.323-0.004,14.116,4.934,16.4,12.16
		c0.575,1.815,1.293,2.555,3.289,2.523c7.504-0.12,15.012-0.024,22.511-0.056c3.427-0.021,4.297-0.914,4.3-4.454
		c0.017-24.125,0.022-48.248,0.008-72.369c-0.001-3.688-0.886-4.543-4.556-4.545c-23.157-0.011-46.314-0.012-69.472,0.001
		c-3.845,0.002-4.355,0.561-4.359,4.555C36.373,72.465,36.38,84.363,36.38,96.265z M154.641,82.237
		c-3.235-4.272-6.615-6.188-11.438-5.928c-6.202,0.343-12.429,0.138-18.647,0.065c-2.984-0.032-4.278,1.315-4.273,4.269
		c0.034,17.467,0.034,34.934-0.002,52.401c-0.004,2.389,0.91,3.836,3.338,4.319c2.457,0.495,2.965-0.979,3.618-2.883
		c2.339-6.804,8.667-11.41,15.759-11.73c6.547-0.298,13.241,3.857,16.206,10.145c0.667,1.418,1.088,2.958,1.631,4.465
		c1.851,0,3.702,0.406,5.227-0.12c1.357-0.465,3.323-1.928,3.37-3.021c0.287-7.564,0.151-15.151,0.151-23.057
		c-1.327,0-2.367,0-3.402,0c-8.146,0-16.29,0.027-24.436-0.01c-5.918-0.033-9.549-3.687-9.626-9.623
		c-0.047-3.109-0.036-6.22-0.004-9.329c0.056-6.649,3.411-9.935,10.178-9.961C146.216,82.226,150.136,82.237,154.641,82.237z
		 M169.602,105.408c-1.679-7.107-6.434-11.743-10.309-16.894c-0.33-0.438-1.346-0.506-2.046-0.511
		c-5.239-0.037-10.479,0.016-15.719-0.033c-2.512-0.023-3.862,1.181-3.94,3.6c-0.106,3.422-0.133,6.853,0.015,10.271
		c0.097,2.18,1.355,3.561,3.709,3.563C150.609,105.414,159.906,105.408,169.602,105.408z M143.442,151.696
		c6.375,0.022,11.746-5.211,11.81-11.499c0.063-6.268-5.302-11.634-11.641-11.654c-6.422-0.021-11.714,5.136-11.794,11.486
		C131.738,146.277,137.113,151.668,143.442,151.696z M68.304,151.698c6.316-0.02,11.746-5.406,11.707-11.629
		c-0.04-6.262-5.433-11.533-11.787-11.526c-6.351,0.008-11.728,5.346-11.689,11.609C56.573,146.446,61.934,151.71,68.304,151.698z"
		/>
</g>
</svg>
