<?xml version="1.0" encoding="utf-8"?>
<!-- Generator: Adobe Illustrator 16.0.3, SVG Export Plug-In . SVG Version: 6.00 Build 0)  -->
<!DOCTYPE svg PUBLIC "-//W3C//DTD SVG 1.1//EN" "http://www.w3.org/Graphics/SVG/1.1/DTD/svg11.dtd">
<svg version="1.1" id="Capa_1" xmlns="http://www.w3.org/2000/svg" xmlns:xlink="http://www.w3.org/1999/xlink" x="0px" y="0px"
	 width="200px" height="200px" viewBox="0 0 200 200" enable-background="new 0 0 200 200" xml:space="preserve">
<g>
	<path fill-rule="evenodd" clip-rule="evenodd" fill="#FFFFFF" d="M100.946,151.284c-8.563,3.129-13.134,1.881-18.431-5.338
		c-4.684-6.383-7.824-13.372-6.738-22.359c4.29,0.703,8.143,1.335,12.297,2.016c-8.271-7.249-12.749-16.106-12.72-28.123
		c4.745,0.762,8.724,1.401,12.772,2.051c-8.257-7.174-12.768-16.056-12.791-27.902c4.265,0.44,7.783,0.804,11.66,1.204
		C79.877,65.198,74.93,56.901,75.56,45.789c10.108-0.494,17.695,3.773,24.468,10.102c0.352-0.265,0.703-0.529,1.056-0.793
		c-0.659-1.086-1.069-2.755-2.02-3.164c-5.463-2.347-7.089-6.921-6.988-12.158c0.175-9.121,3.09-17.237,9.944-23.604
		c8.498,5.261,13.727,22.122,9.336,30.621c-0.982,1.903-3.224,3.145-4.843,4.734c-1.055,1.037-2.033,2.152-2.518,3.912
		c7.547-5.465,15.069-10.313,25.391-9.577c0.726,10.922-4.083,19.24-11.616,27.068c4.067-0.468,7.537-0.868,11.829-1.362
		c0.14,11.833-4.445,20.674-12.741,27.979c4.008-0.667,7.956-1.323,12.657-2.104c0.36,12.051-4.374,20.843-12.695,28.235
		c4.083-0.709,7.936-1.377,11.708-2.032c3.064,9.601-5.79,26.964-14.779,29.082c-2.815,0.663-6.038-0.403-9.695-0.733
		c0,6.458,0,13.51,0,20.562c0,2,0.215,4.03-0.069,5.988c-0.219,1.507-1.065,2.922-1.633,4.378c-0.469-1.39-1.316-2.771-1.342-4.169
		c-0.134-7.496-0.063-14.995-0.063-22.493C100.946,154.65,100.946,153.039,100.946,151.284z M102.56,20.023
		c-5.374,7.384-8.456,14.737-6.668,23.494c0.73,3.576,2.907,5.428,6.601,5.432s5.916-1.833,6.604-5.419
		C110.765,34.823,107.698,27.455,102.56,20.023z M78.504,100.872c1.39,9.313,4.55,16.53,11.536,21.662
		c2.998,2.202,5.907,1.781,8.544-0.782c2.64-2.565,3.091-5.402,1.002-8.511C94.744,106.036,87.675,102.629,78.504,100.872z
		 M126.364,100.865c-9.075,1.814-16.058,5.191-20.864,12.208c-2.08,3.037-1.854,5.909,0.779,8.545
		c2.576,2.578,5.484,3.22,8.518,1.018C121.931,117.454,125.259,110.215,126.364,100.865z M78.592,127.013
		c1.097,8.968,4.271,15.969,10.84,21.204c2.968,2.364,6.022,2.533,8.982-0.223c3.118-2.902,3.166-5.958,0.735-9.296
		C94.264,131.987,87.446,128.662,78.592,127.013z M126.388,127.002c-9.197,1.75-16.421,5.241-21.211,12.726
		c-1.886,2.945-1.269,5.665,1.213,8.082c2.466,2.401,5.229,3.052,8.107,1.083C121.975,143.776,125.222,136.349,126.388,127.002z
		 M78.384,74.725c1.575,9.117,4.535,16.363,11.455,21.535c3.149,2.354,6.19,1.946,8.921-0.788c2.619-2.622,2.807-5.499,0.714-8.545
		C94.655,79.91,87.69,76.544,78.384,74.725z M126.429,74.645c-9.04,1.999-16.098,5.212-20.905,12.258
		c-2.071,3.037-1.926,5.922,0.7,8.555c2.727,2.733,5.777,3.18,8.917,0.811C122.016,91.081,125.205,83.942,126.429,74.645z
		 M78.609,48.759c0.927,8.68,4.211,15.509,10.476,20.863c2.995,2.56,6.245,2.997,9.365,0.063c3.281-3.085,3.05-6.414,0.455-9.754
		C93.979,53.589,87.384,50.186,78.609,48.759z M126.451,48.76c-8.962,1.478-15.685,4.908-20.599,11.534
		c-2.44,3.292-2.396,6.454,0.648,9.34c2.859,2.711,5.916,2.702,8.948,0.315C122.06,64.748,125.186,57.734,126.451,48.76z
		 M100.766,82.434c0-3.543,0-6.441,0-9.369c-2.968,0.85-5.809,1.663-8.673,2.482C94.77,77.673,97.438,79.792,100.766,82.434z
		 M91.835,101.577c3.005,2.289,5.798,4.417,8.837,6.732c0-3.356,0-6.206,0-8.986C97.643,100.096,94.85,100.809,91.835,101.577z
		 M113.157,101.559c-3.084-0.77-5.961-1.487-8.747-2.183c0,2.935,0,5.761,0,8.908C107.502,105.907,110.206,103.828,113.157,101.559z
		 M91.698,127.605c3.08,2.327,5.901,4.459,8.974,6.779c0-3.351,0-6.214,0-8.974C97.623,126.157,94.807,126.846,91.698,127.605z
		 M113.214,127.614c-3.166-0.78-5.989-1.477-8.922-2.199c0,2.8,0,5.67,0,9.077C107.492,132.025,110.29,129.868,113.214,127.614z
		 M104.211,82.378c3.366-2.642,6.105-4.792,8.673-6.808c-2.921-0.844-5.724-1.654-8.673-2.507
		C104.211,75.893,104.211,78.691,104.211,82.378z"/>
</g>
</svg>
