<?xml version="1.0" encoding="utf-8"?>
<!-- Generator: Adobe Illustrator 16.0.3, SVG Export Plug-In . SVG Version: 6.00 Build 0)  -->
<!DOCTYPE svg PUBLIC "-//W3C//DTD SVG 1.1//EN" "http://www.w3.org/Graphics/SVG/1.1/DTD/svg11.dtd">
<svg version="1.1" id="Layer_1" xmlns="http://www.w3.org/2000/svg" xmlns:xlink="http://www.w3.org/1999/xlink" x="0px" y="0px"
	 width="400px" height="400px" viewBox="0 0 400 400" enable-background="new 0 0 400 400" xml:space="preserve">
<g>
	<g>
		<path fill="#0E0B38" d="M200,0C89.542,0,0,89.542,0,200c0,110.455,89.542,200,200,200c110.457,0,200-89.545,200-200
			C400,89.542,310.457,0,200,0z M260.944,213.545c-0.975,0.975-2.044,1.799-3.157,2.516l-75.06,75.06
			c-3.646,3.647-8.424,5.471-13.203,5.471c-4.778,0-9.555-1.823-13.202-5.471c-7.294-7.294-7.294-19.12,0-26.411L221,200.021
			l-64.354-64.354c-7.293-7.297-7.293-19.12,0-26.411c7.293-7.293,19.117-7.289,26.41-0.004l74.729,74.724
			c1.113,0.716,2.183,1.539,3.153,2.515c3.728,3.728,5.526,8.639,5.442,13.528C266.469,204.906,264.675,209.814,260.944,213.545z"/>
	</g>
</g>
</svg>
